<?xml version="1.0" encoding="UTF-8" standalone="no"?>
<!-- Created with Inkscape (http://www.inkscape.org/) -->

<svg
   xmlns:dc="http://purl.org/dc/elements/1.1/"
   xmlns:cc="http://creativecommons.org/ns#"
   xmlns:rdf="http://www.w3.org/1999/02/22-rdf-syntax-ns#"
   xmlns:svg="http://www.w3.org/2000/svg"
   xmlns="http://www.w3.org/2000/svg"
   xmlns:sodipodi="http://sodipodi.sourceforge.net/DTD/sodipodi-0.dtd"
   xmlns:inkscape="http://www.inkscape.org/namespaces/inkscape"
   version="1.1"
   width="16.25"
   height="17.5"
   id="svg2"
   xml:space="preserve"
   inkscape:version="0.48.3.1 r9886"
   sodipodi:docname="custom.eps"><sodipodi:namedview
     pagecolor="#ffffff"
     bordercolor="#666666"
     borderopacity="1"
     objecttolerance="10"
     gridtolerance="10"
     guidetolerance="10"
     inkscape:pageopacity="0"
     inkscape:pageshadow="2"
     inkscape:window-width="958"
     inkscape:window-height="809"
     id="namedview10"
     showgrid="false"
     inkscape:zoom="11.313709"
     inkscape:cx="31.629131"
     inkscape:cy="-5.4328552"
     inkscape:window-x="188"
     inkscape:window-y="154"
     inkscape:window-maximized="0"
     inkscape:current-layer="svg2" /><metadata
     id="metadata8"><rdf:RDF><cc:Work
         rdf:about=""><dc:format>image/svg+xml</dc:format><dc:type
           rdf:resource="http://purl.org/dc/dcmitype/StillImage" /><dc:title></dc:title></cc:Work></rdf:RDF></metadata><defs
     id="defs6" /><path
     sodipodi:nodetypes="cccccccccccccccc"
     d="m 13.684431,16.248985 c -0.145988,0.141114 -0.189938,0.141114 -0.70215,0.04346 C 9.4910685,15.604946 6.6434185,13.738731 5.433456,11.361293 4.988631,10.482393 4.8270185,9.8324813 4.778181,8.6801433 4.729843,7.4648058 4.842143,6.8588558 5.326031,5.8236933 c 0.6875,-1.4838875 1.86475,-2.694775 3.5688505,-3.686025 1.1323245,-0.65875 2.6811495,-1.22512499 4.0873995,-1.50387499 0.512212,-0.102625 0.556162,-0.09775 0.70215,0.043875 0.195315,0.194875 0.195315,0.51762499 -0.0049,0.68849999 -0.08741,0.07275 -0.53125,0.23875 -0.986338,0.36625 -1.923337,0.537625 -3.3486245,1.567875 -4.408687,3.178675 -0.7861375,1.1963 -1.0835,2.338875 -1.0161125,3.90625 0.063963,1.4550877 0.513675,2.6025497 1.490238,3.8227627 0.942375,1.182612 2.4609365,2.1538 4.0571245,2.598628 0.390137,0.107423 0.776362,0.258789 0.863775,0.336427 0.20019,0.181152 0.20019,0.473632 0.0049,0.673827 z"
     id="path14"
     style="fill:#000000;fill-opacity:1;fill-rule:nonzero;stroke:none"
     inkscape:connector-curvature="0" /><path
     d="m 3.411672,5.575667 c 1.4497,0 2.6210875,1.3085875 2.6210875,2.9296875 0,1.6215755 -1.1713875,2.9301755 -2.6210875,2.9301755 -1.44625,0 -2.622625,-1.3086 -2.622625,-2.9301755 0,-1.6211 1.176375,-2.9296875 2.622625,-2.9296875"
     id="path16"
     style="fill:#ffffff;fill-opacity:1;fill-rule:nonzero;stroke:none"
     inkscape:connector-curvature="0" /></svg>