<?xml version="1.0" encoding="UTF-8" standalone="no"?>
<!-- Created with Inkscape (http://www.inkscape.org/) -->

<svg
   xmlns:dc="http://purl.org/dc/elements/1.1/"
   xmlns:cc="http://creativecommons.org/ns#"
   xmlns:rdf="http://www.w3.org/1999/02/22-rdf-syntax-ns#"
   xmlns:svg="http://www.w3.org/2000/svg"
   xmlns="http://www.w3.org/2000/svg"
   xmlns:sodipodi="http://sodipodi.sourceforge.net/DTD/sodipodi-0.dtd"
   xmlns:inkscape="http://www.inkscape.org/namespaces/inkscape"
   version="1.1"
   width="16.25"
   height="17.5"
   id="svg2"
   xml:space="preserve"
   inkscape:version="0.48.5 r10040"
   sodipodi:docname="suspension.svg"><sodipodi:namedview
     pagecolor="#ffffff"
     bordercolor="#666666"
     borderopacity="1"
     objecttolerance="10"
     gridtolerance="10"
     guidetolerance="10"
     inkscape:pageopacity="0"
     inkscape:pageshadow="2"
     inkscape:window-width="958"
     inkscape:window-height="809"
     id="namedview10"
     showgrid="false"
     inkscape:zoom="11.313709"
     inkscape:cx="16.514724"
     inkscape:cy="-5.4328552"
     inkscape:window-x="455"
     inkscape:window-y="97"
     inkscape:window-maximized="0"
     inkscape:current-layer="svg2" /><metadata
     id="metadata8"><rdf:RDF><cc:Work
         rdf:about=""><dc:format>image/svg+xml</dc:format><dc:type
           rdf:resource="http://purl.org/dc/dcmitype/StillImage" /><dc:title></dc:title></cc:Work></rdf:RDF></metadata><defs
     id="defs6" /><g
     transform="matrix(19.495835,0,0,19.495835,-682.96508,-298.36706)"
     id="Note-22-142"><g
       style="color:#000000"
       id="g262"><path
         style="fill:currentColor"
         inkscape:connector-curvature="0"
         transform="matrix(0.004,0,0,-0.004,35.1639,15.7488)"
         d="M 14,-82 C 7,-82 0,-76 0,-69 V 62 c 0,22 53,27 70,27 17,0 70,-5 70,-27 V -69 c 0,-7 -7,-13 -14,-13 -2,0 -4,0 -6,1 -15,8 -33,13 -50,13 -17,0 -35,-5 -50,-13 -2,-1 -4,-1 -6,-1 z"
         id="path264" /></g></g></svg>