<?xml version="1.0" encoding="UTF-8" standalone="no"?>
<!-- Created with Inkscape (http://www.inkscape.org/) -->

<svg
   xmlns:dc="http://purl.org/dc/elements/1.1/"
   xmlns:cc="http://creativecommons.org/ns#"
   xmlns:rdf="http://www.w3.org/1999/02/22-rdf-syntax-ns#"
   xmlns:svg="http://www.w3.org/2000/svg"
   xmlns="http://www.w3.org/2000/svg"
   xmlns:sodipodi="http://sodipodi.sourceforge.net/DTD/sodipodi-0.dtd"
   xmlns:inkscape="http://www.inkscape.org/namespaces/inkscape"
   width="744.09448819"
   height="1052.3622047"
   id="svg6721"
   version="1.1"
   inkscape:version="0.48.3.1 r9886"
   sodipodi:docname="separator.eps">
  <defs
     id="defs6723" />
  <sodipodi:namedview
     id="base"
     pagecolor="#ffffff"
     bordercolor="#666666"
     borderopacity="1.0"
     inkscape:pageopacity="0.0"
     inkscape:pageshadow="2"
     inkscape:zoom="2.8"
     inkscape:cx="229.42483"
     inkscape:cy="603.79378"
     inkscape:document-units="px"
     inkscape:current-layer="layer1"
     showgrid="false"
     inkscape:window-width="1188"
     inkscape:window-height="623"
     inkscape:window-x="2"
     inkscape:window-y="95"
     inkscape:window-maximized="0" />
  <metadata
     id="metadata6726">
    <rdf:RDF>
      <cc:Work
         rdf:about="">
        <dc:format>image/svg+xml</dc:format>
        <dc:type
           rdf:resource="http://purl.org/dc/dcmitype/StillImage" />
        <dc:title></dc:title>
      </cc:Work>
    </rdf:RDF>
  </metadata>
  <g
     inkscape:label="Layer 1"
     inkscape:groupmode="layer"
     id="layer1">
    <g
       style="fill-rule:evenodd"
       id="_77893976"
       transform="matrix(12.225208,0,0,12.225208,-2231.041,-2204.9539)">
      <g
         id="g25">
        <path
           style="fill:#000000;fill-rule:nonzero"
           inkscape:connector-curvature="0"
           d="m 175.771,211.943 c 0.38548,-0.0154 1.29548,-0.29244 0.9775,0.53475 -0.68711,0.41 -1.6554,0.12883 -2.20548,0.79342 -0.30778,1.09303 0.56338,1.90388 1.18708,2.66356 0.5051,-0.56747 0.73004,-1.44579 1.46828,-1.7556 0.30369,-0.13497 0.46626,0.23825 0.61451,0.43354 0.56237,0.80163 0.38548,1.8517 0.38855,2.76785 1.15129,-0.047 2.31591,0.0113 3.45595,0.1728 -0.048,1.01225 -0.84353,1.67377 -1.56439,2.26785 -0.78423,0.65439 -1.85066,0.70856 -2.77909,1.03782 1.12167,0.65028 2.43657,0.7505 3.69831,0.88852 1.35377,0.047 2.70446,-0.11451 4.05924,-0.12167 0.92023,0.0205 1.82,-0.17996 2.69832,-0.43661 1.85681,-0.3323 3.55516,-1.18708 5.33017,-1.78933 -0.94373,-0.55724 -2.23513,-0.27195 -3.07049,-1.06132 -0.83435,-0.70447 -1.75252,-1.8149 -1.24128,-2.97438 0.68199,0.49794 1.19323,1.24641 2.0061,1.547 0.8507,0.19837 1.73821,0.32311 2.60832,0.17895 0.92536,-0.13394 1.86704,-0.15031 2.78217,-0.35479 2.80057,-0.54089 5.64714,-1.01637 8.50907,-0.88038 1.69525,0.28016 3.51936,0.11147 5.08375,0.93046 1.00509,0.49183 1.93042,1.12575 2.84147,1.77194 0.6237,0.42945 1.03373,1.0777 1.52451,1.64108 0.8507,0.90797 1.29447,2.17583 1.1421,3.4161 0.60428,-0.006 1.2096,-0.0204 1.81287,-0.0695 -0.18404,-1.21882 0.16565,-2.46726 0.68199,-3.56438 0.93863,-1.55926 2.34761,-2.77704 3.31384,-4.31485 -0.78934,0.17689 -1.61856,0.44785 -2.15742,1.08793 -0.49794,0.47953 -0.62167,1.18299 -0.91101,1.78626 -0.29856,-0.12066 -0.74233,-0.25766 -0.74743,-0.65645 -0.0215,-0.8609 0.47747,-1.65334 0.45907,-2.51221 -0.19631,-0.55112 -0.70346,-0.9233 -1.06031,-1.3691 -0.29856,0.73108 -0.91716,1.40692 -0.80775,2.24536 0.22596,0.67482 0.48875,1.34046 0.59405,2.05007 -0.23108,0.1002 -0.46319,0.19938 -0.69529,0.29346 -0.42533,-0.62576 -0.44374,-1.42124 -0.83432,-2.05621 -0.52863,-0.38343 -1.25256,-0.19019 -1.86707,-0.24642 0.4049,0.56747 0.91614,1.04703 1.33638,1.60326 0.62373,0.85478 1.46112,1.56848 1.81388,2.59812 0.41206,0.93658 0.76688,2.08685 0.31595,3.06128 -0.36299,-0.82821 -0.45501,-1.74536 -0.84455,-2.56232 -0.2219,-0.55622 -0.60428,-1.0235 -0.94785,-1.50509 -0.59405,-0.76378 -1.12677,-1.57766 -1.8149,-2.26478 -0.71369,-0.71471 -1.32716,-1.57155 -1.57358,-2.56641 0.2423,-0.0286 0.48568,-0.0563 0.73004,-0.0818 0.74844,0.82108 1.87318,1.03782 2.94984,1.00205 0.36197,-0.82618 0.79038,-1.62473 1.03579,-2.49894 0.34148,0.0327 0.74537,-0.0726 1.02043,0.17996 0.74641,0.6963 1.35684,1.55314 1.67276,2.53163 1.02657,-0.76172 2.30162,-1.03779 3.55925,-1.1012 -0.29856,1.30162 -1.38237,2.17994 -2.11038,3.23921 -1.38956,1.56132 -2.45906,3.48971 -2.57972,5.61546 0.2914,0.0225 0.57567,0.045 0.86808,0.0685 0.0971,-0.76685 0.0777,-1.57358 0.39265,-2.29544 0.51327,-1.29548 1.60836,-2.21571 2.63902,-3.09606 0.57054,-0.52556 1.29751,-0.81902 1.95393,-1.21676 1.35785,-0.84354 3.00815,-0.9693 4.55617,-1.14824 2.14516,-0.13495 4.28418,0.2914 6.34958,0.83333 1.78116,0.29242 3.5613,0.63802 5.3762,0.62985 1.65128,0.20755 3.15026,-0.71167 4.48765,-1.56338 -0.0787,-0.74436 -0.64315,-1.2791 -0.83128,-1.98361 0.25868,-0.0368 0.50307,-0.0644 0.76992,-0.0736 0.68201,0.57668 1.17789,1.4468 1.04805,2.36805 -0.12373,0.73108 -0.47852,1.39466 -0.83128,2.03781 -0.23619,0.364 -0.52147,0.76992 -1.00101,0.8098 -0.84763,0.26688 -1.80264,0.28937 -2.54392,0.82311 1.29447,0.38956 2.60835,0.70957 3.89053,1.1421 1.31287,0.32105 2.60629,0.81388 3.97539,0.8149 2.23719,0.0297 4.56127,0.19326 6.70336,-0.59611 -1.03883,-0.65027 -2.22696,-1.44167 -2.37622,-2.77909 0.2188,0.0532 0.49997,0.0317 0.63903,0.24642 0.51431,0.65541 1.14314,1.29652 1.97746,1.5061 0.9826,0.15031 1.99998,-0.0807 2.97134,0.16872 0.79035,-0.74436 1.52451,-1.57051 2.02143,-2.54493 0.38035,-0.95397 0.17382,-2.02859 0.24233,-3.02858 -0.1084,-0.0797 -0.21575,-0.16052 -0.32209,-0.24028 -0.32616,0.61758 -0.64109,1.25151 -0.82308,1.92738 -0.1319,0.4458 0.11144,1.03779 -0.32004,1.34864 -0.27914,0.0184 -0.58999,-0.0849 -0.74334,-0.33128 -0.48976,-0.76073 -0.88139,-1.70447 -1.83229,-1.98259 0.047,1.16155 0.44887,2.26991 0.67074,3.40485 -0.092,0.0992 -0.18303,0.20042 -0.27198,0.30062 -0.48568,-0.12475 -0.94475,-0.32923 -1.40898,-0.51533 -0.64416,-0.25257 -1.35272,-0.23825 -2.02039,-0.39366 0.39568,-0.71983 1.36194,-0.48057 2.03471,-0.63494 0.0879,-0.78323 -0.0235,-1.60734 0.26175,-2.35579 0.20451,-0.5184 0.86501,-0.51432 1.3231,-0.37221 0.59918,0.22497 1.16256,0.54704 1.65641,0.95501 0.25665,-0.41307 0.64619,-0.82821 0.49692,-1.36707 -0.0624,-0.73618 -0.75151,-1.14926 -1.19731,-1.64514 -0.0123,-0.18202 0.0245,-0.36198 0.0491,-0.54194 0.93046,0.18202 2.21571,0.16054 2.66458,1.17381 0.28526,0.52455 0.68607,1.03271 0.67996,1.66256 0.0818,1.28626 -0.2863,2.57563 -0.88447,3.70547 -0.56848,0.78013 -1.17789,1.57564 -2.02451,2.07256 -1.56746,1.21366 -3.57661,1.64821 -5.50807,1.83739 -1.57155,0.046 -3.16866,0.22596 -4.72488,-0.092 -0.73925,-0.14008 -1.49996,-0.17996 -2.21162,-0.43762 -1.4519,-0.41412 -2.82306,-1.11143 -4.32812,-1.3282 1.16152,0.79447 2.43657,1.42124 3.50812,2.34556 0.61144,0.44887 1.00304,1.11042 1.50918,1.66256 1.46112,1.71673 2.64922,3.83734 4.75963,4.85368 0.76787,0.52353 1.70548,0.56237 2.56334,0.84252 -0.19427,0.30984 -0.45603,0.63599 -0.8558,0.64416 -1.91408,0.0849 -4.00609,-0.10735 -5.53161,-1.39362 -0.70039,0.52145 -1.47034,0.9744 -2.35272,1.09506 -0.34458,-0.85272 -0.36093,-1.78727 -0.41003,-2.69116 -1.08996,-0.0695 -2.43248,0.16257 -3.29952,-0.67688 -0.43046,-0.53782 0.33331,-0.97852 0.65541,-1.32615 1.07665,-1.09202 2.76478,-1.00408 4.16352,-0.8047 -0.6963,-0.94475 -1.64004,-1.66867 -2.54902,-2.39668 -0.84253,-0.71471 -1.89875,-1.08894 -2.82205,-1.67789 -0.44887,-0.2914 -0.9642,-0.45296 -1.4826,-0.56643 -0.0327,0.72697 -0.40693,1.34148 -0.97136,1.77296 -0.12782,0.65848 -0.0143,1.40284 -0.37116,1.99998 -0.45806,0.64518 -1.08689,1.24435 -1.90793,1.34762 -0.89774,0.044 -1.91509,0.25051 -2.72182,-0.26175 -0.33743,-0.1084 -0.25564,-0.48365 -0.28016,-0.75154 0.85989,-0.12269 1.97132,-0.24538 2.32509,-1.18299 0.52147,-1.43964 -0.44272,-2.83636 -1.44782,-3.77294 -0.74844,-0.73926 -1.81182,-0.92432 -2.74536,-1.32513 -1.55825,-0.47238 -3.1666,-0.88342 -4.80667,-0.84354 -1.33432,-0.0307 -2.59505,0.45603 -3.82917,0.89774 -0.82922,0.50304 -1.68403,1.00712 -2.365,1.70855 -0.78731,0.91408 -1.33945,2.0521 -1.4202,3.26784 0.60837,0.0409 1.21673,-0.0113 1.82307,-0.0675 0.14008,-0.60019 0.2321,-1.24435 0.69529,-1.69731 0.96011,-1.20957 2.64412,-1.38342 4.07457,-1.33536 0.95704,0.21781 1.89159,0.68509 2.53267,1.44683 0.53576,0.5644 0.70549,1.35478 0.86704,2.09198 0.25358,1.12677 -0.13802,2.24739 -0.56747,3.27295 -0.53576,1.12062 -1.65949,1.81388 -2.79851,2.20548 -1.11961,0.27097 -2.37112,0.65338 -3.46928,0.11452 -0.65132,-0.39673 -1.51225,-0.38751 -2.00813,-1.03269 -0.85785,-0.96727 -1.82104,-2.0194 -1.88956,-3.38134 -0.35171,0.0246 -0.70346,0.0573 -1.05211,0.0869 0.23721,0.62268 0.50304,1.23922 0.85786,1.80568 0.37114,0.56953 0.85377,1.08793 1.01019,1.77197 -0.45704,0.14211 -0.98567,0.1053 -1.40591,0.35377 -0.39568,0.39977 -0.59097,0.95806 -0.99793,1.35272 -0.23416,0.24233 -0.66767,0.14521 -0.84763,-0.11144 -0.21984,-0.3507 -0.38241,-0.72902 -0.56443,-1.09917 -0.42124,0.14828 -0.85069,0.27607 -1.28525,0.37629 -0.0348,-0.29858 -0.137,-0.62781 0.0389,-0.90182 0.60428,-1.13291 1.16358,-2.29855 1.4928,-3.54391 -0.30673,-0.007 -0.56646,10e-4 -0.85989,0 -0.26688,1.38953 -1.22902,2.55006 -2.37318,3.3343 -2.08482,1.54599 -5.33017,1.59097 -7.24219,-0.2679 -0.82209,-0.9959 -1.51329,-2.23003 -1.38547,-3.56948 0.0941,-0.87319 0.23109,-1.7924 0.70552,-2.55006 1.30875,-1.73922 3.90485,-2.30466 5.85878,-1.39669 0.56646,0.43864 1.15132,0.9458 1.3824,1.64925 0.0532,0.3323 0.0552,0.6728 0.0644,1.00918 0.87829,0.0348 1.75762,0.0972 2.63696,0.0879 -0.43148,-1.77809 -1.62676,-3.3394 -3.21979,-4.23306 -1.67276,-0.85479 -3.52754,-1.40898 -5.41605,-1.42738 -0.79038,-0.0215 -1.58077,-0.0153 -2.37011,-0.0153 -0.006,-0.24233 -0.006,-0.48568 -0.002,-0.72801 1.75458,-0.16051 3.50812,0.0552 5.25247,0.22905 -0.99281,-0.24439 -1.95906,-0.6268 -2.9887,-0.69836 -3.07661,-0.47136 -6.142,0.27915 -9.19308,0.60837 -2.24026,0.36606 -4.54083,0.58077 -6.7964,0.23416 0.39467,0.27198 0.82104,0.50408 1.27705,0.65743 0.75256,0.20553 1.50613,-0.10019 2.24232,-0.22085 0.0368,0.36913 0.0736,0.73926 0.15132,1.10225 0.62883,-0.0511 1.33533,0.0419 1.85988,-0.39366 0.50918,-0.28015 0.78322,-0.99999 1.46727,-0.88443 0.43455,-0.0164 0.61552,0.49281 0.76583,0.80058 -0.75971,0.54295 -1.70754,0.67996 -2.49998,1.14926 -0.46214,0.36401 -0.18198,1.02147 -0.10938,1.50509 0.42023,-0.16256 0.76276,-0.73618 1.25867,-0.50611 -0.0215,0.79856 -0.80369,1.4151 -0.61758,2.24536 0.19735,0.43864 0.53167,0.80059 0.82922,1.17584 0.0133,-0.75253 0.007,-1.51225 0.12167,-2.25863 0.52657,-1.88649 2.15948,-3.2699 3.92224,-3.98562 0.6912,-0.24439 2.2249,-0.71121 2.96723,-0.70507 -0.16361,0.15848 0.94126,0.78525 -1.20755,0.89523 -1.14517,0.48467 -2.41816,0.79552 -3.3619,1.65131 -0.53988,0.48058 -1.05929,1.00918 -1.40286,1.65131 -0.26584,0.62576 -0.32105,1.32101 -0.33432,1.9928 0.006,0.63393 0.41,1.12984 0.71777,1.64415 0.8967,-0.13291 1.51529,-0.85785 2.36805,-1.09712 -0.0317,0.52759 -0.16054,1.11552 -0.62984,1.4335 -1.13291,0.57976 -2.62163,0.3916 -3.53061,-0.50918 -0.61144,-0.67381 -1.18097,-1.45501 -1.33026,-2.37524 -0.15541,-0.76378 -0.53985,-1.4519 -0.75662,-2.19728 -1.39365,0.92942 -2.79341,1.86191 -4.02243,3.00914 -0.51532,0.42331 -0.84046,1.0184 -1.18299,1.57972 1.2474,0.0419 2.6891,0.0153 3.65228,0.96011 0.33332,0.20144 0.41206,0.70346 0.14211,0.9877 -0.65233,0.82925 -1.74023,1.06747 -2.71568,1.30061 0.0194,0.75459 0.3374,1.57358 -0.0419,2.2842 -0.55622,-0.0174 -1.11039,-0.0532 -1.66253,-0.10837 -0.59509,-0.137 -1.07158,-0.52454 -1.52758,-0.90591 -1.80672,0.86603 -3.69219,1.76171 -5.73304,1.82307 -0.0521,-0.28528 -0.19529,-0.64007 0.0665,-0.86603 0.63292,-0.57874 1.45704,-0.85785 2.16664,-1.32104 1.37319,-0.91104 2.53879,-2.08485 3.71364,-3.23205 1.37521,-1.35275 2.44781,-3.01325 4.03571,-4.14411 0.60327,-0.42536 1.16665,-0.90284 1.74638,-1.35887 -1.99381,0.48771 -3.8803,1.3333 -5.87718,1.81182 -1.14723,0.26685 -2.32921,0.30366 -3.49792,0.40899 -1.81794,0.0798 -3.69318,0.1544 -5.43446,-0.47035 -1.41101,-0.64824 -2.67684,-1.58074 -3.84656,-2.59299 -1.07361,-0.93762 -1.67992,-2.31591 -1.76887,-3.7259 -0.12373,-1.01225 0.15643,-2.12574 0.91,-2.84352 0.60529,-0.73925 1.61346,-0.80774 2.48256,-0.97747 z m -2.2924,2.06642 0,0 c -0.40386,1.29241 -0.41919,2.78318 0.3865,3.92734 0.65952,0.79343 1.33536,1.6472 2.27707,2.11346 1.35478,-0.0133 2.72594,-0.32412 3.93244,-0.94988 0.2996,-0.13906 0.48567,-0.42125 0.66462,-0.68404 -1.15132,-0.45603 -2.40181,-0.27506 -3.56539,0.0327 -0.20961,-1.03269 0.21268,-2.05723 0.089,-3.08788 -0.28323,0.18405 -0.55521,0.39163 -0.78323,0.64213 -0.31902,0.46215 -0.2996,1.07564 -0.62166,1.53167 -0.12374,0.19529 -0.49284,0.27709 -0.61657,0.0491 -0.34047,-0.51124 -0.29856,-1.18813 -0.67381,-1.68299 -0.4049,-0.60532 -0.75766,-1.24334 -1.08894,-1.89159 z m 52.7241,2.94781 0,0 c 2.91407,0.0266 5.93242,0.37421 8.55303,1.74026 1.53474,0.81592 2.87419,2.51323 2.54288,4.33427 -0.0695,0.99591 -0.87215,1.69322 -1.66253,2.17992 0.76786,-0.16666 1.88237,-0.09 2.25455,-0.95704 0.58179,-0.78218 0.0624,-1.74844 0.0184,-2.60731 0.39163,-0.0552 0.78323,-0.10634 1.17587,-0.16054 -0.0153,-0.37829 -0.001,-0.81081 -0.28528,-1.10428 -0.53681,-0.77093 -1.58381,-0.79241 -2.31794,-1.27296 -0.0777,-0.28427 -0.009,-0.57669 0.0327,-0.86093 0.80062,0.22903 1.52248,0.67584 2.33944,0.85377 0.64622,0.21471 1.32206,0.0439 1.95703,-0.11758 0.31592,-0.0879 0.1544,-0.60533 0.36296,-0.75972 0.70451,0.092 1.49999,0.29653 2.16154,-0.0859 0.39059,-0.32004 0.64005,-0.77914 0.85888,-1.22595 -0.94171,0.41817 -1.8742,0.93965 -2.91816,1.03066 -1.51428,0.33435 -3.04493,-0.0634 -4.56434,-0.10941 -2.02758,-0.16565 -3.96618,-0.85276 -5.98764,-1.04906 -1.50303,-0.2188 -3.03061,-0.0726 -4.52139,0.17178 z m -17.0886,0.56133 0,0 c 0.0153,0.0327 0.044,0.0992 0.0583,0.1319 0.26482,0.0624 0.0859,-0.35479 -0.0583,-0.1319 z m -16.1551,2.65846 0,0 c 0.0153,0.0327 0.044,0.0992 0.0583,0.13187 0.26583,0.0624 0.0869,-0.35479 -0.0583,-0.13187 z m 13.3812,1.85988 0,0 c -1.94579,1.3282 -1.89057,4.70134 0.15234,5.91196 0.79345,0.51735 1.67175,1.04498 2.66971,0.91205 2.26272,0.0603 4.6226,-1.31696 5.24734,-3.57971 -0.75459,-0.002 -1.50918,-0.002 -2.26275,10e-4 -0.30265,0.44991 -0.58179,0.92023 -0.93148,1.33536 -0.52759,0.47341 -1.22491,0.80264 -1.9519,0.71369 -0.75357,0.0307 -1.66357,-0.0491 -2.11038,-0.75766 -0.80163,-0.80366 -1.21778,-2.31794 -0.26279,-3.15843 0.49999,-0.6646 1.53474,-0.12883 1.728,0.54602 0.0102,0.54393 -0.13701,1.07973 -0.18712,1.61856 0.71984,0.71882 1.84252,0.49797 2.61447,-0.0174 -0.51428,-0.1626 -1.04599,-0.29346 -1.52552,-0.54602 -0.29447,-0.37117 -0.35684,-1.05315 0.12269,-1.30673 0.63393,-0.33639 1.41205,-0.12678 2.09505,-0.25152 -0.45397,-1.29957 -1.72389,-2.47135 -3.18501,-2.25968 -0.80264,0.008 -1.59914,0.32821 -2.21264,0.83843 z m 17.1347,-0.53782 0,0 c -0.83026,0.31287 -1.36093,1.06132 -1.59201,1.88646 0.52657,0.10735 1.0726,0.0501 1.59816,0.16361 0.65028,0.30059 0.51121,1.41101 -0.15031,1.63186 -0.27404,0.0644 -0.82209,0.1912 -1.0961,0.2556 0.43455,1.07567 1.81284,0.95194 2.69832,0.55011 -0.31696,-0.61042 -0.48568,-1.27606 -0.52863,-1.9652 0.52863,-0.31389 1.11143,-0.79345 1.77707,-0.52249 0.68506,0.32821 1.11245,1.09813 1.04396,1.85681 -0.20758,0.95194 -0.88751,1.82104 -1.82104,2.14108 -0.71572,0.092 -1.45396,0.0705 -2.16458,-0.0491 -0.84253,-0.44377 -1.3691,-1.28221 -1.66151,-2.16255 -0.77914,-0.0777 -1.56236,-0.11655 -2.34147,-0.17689 0.4744,1.10428 1.00509,2.28524 2.02653,2.99178 1.59505,1.29754 3.99585,1.18198 5.69624,0.14825 1.09097,-0.76685 1.89362,-2.13595 1.66253,-3.49789 -0.17587,-0.92945 -0.10428,-2.12572 -1.01941,-2.68298 -1.12677,-1.02043 -2.7566,-0.83739 -4.12773,-0.56849 z m -16.329,2.99279 0,0 c -0.20245,0.75151 0.39058,1.32716 0.88443,1.78626 -0.20755,-0.83638 -0.0849,-1.71571 -0.32922,-2.54493 -0.26587,0.18097 -0.53373,0.41307 -0.55521,0.75867 z m 3.33022,-0.44479 0,0 c -0.0788,0.16564 -0.15645,0.3323 -0.23109,0.5 2.43552,0.15541 4.87516,-0.0705 7.31274,-0.003 1.70142,0.0562 3.40792,0.0337 5.09503,-0.20451 0.002,-0.0716 0.006,-0.21471 0.007,-0.28627 -4.0613,-0.0828 -8.12257,0.0358 -12.1838,-0.006 z m 14.6122,0.41514 0,0 c 0.1912,0.44171 0.4949,0.81388 0.79038,1.18914 -0.2505,0.65743 -0.95805,0.86501 -1.51532,1.18198 1.29652,0.31595 2.48259,-1.17279 1.97645,-2.37419 -0.31899,-0.44273 -0.87829,-0.24541 -1.25151,0.003 z m -8.68697,1.08381 0,0 c -0.24436,0.99384 -0.59814,1.95703 -0.99078,2.90178 0.26891,-0.0388 0.55316,-0.0726 0.82514,-0.11145 0.15132,0.43763 0.27607,0.88444 0.41412,1.32615 0.0675,0.002 0.20245,0.005 0.26992,0.006 0.12066,-0.47852 0.23311,-0.95907 0.32618,-1.44475 0.36195,0.0736 0.71981,0.15234 1.08381,0.22085 0.0798,-0.0787 0.1595,-0.15746 0.24028,-0.23517 -0.88751,-0.83026 -1.29649,-1.99894 -1.593,-3.14924 -0.21677,0.11144 -0.52864,0.20552 -0.57568,0.48568 z m -27.3809,0.14622 0,0 c -1.15439,0.30059 -1.87011,1.32922 -2.74944,2.05416 -0.67996,0.71572 -1.52657,1.2423 -2.20244,1.95906 0.93252,-0.12678 1.63699,-0.77914 2.42839,-1.21879 0.26277,-0.15133 0.65233,-0.17179 0.8456,0.10428 0.61144,0.60124 1.3282,1.25766 2.25148,1.16769 -0.12269,-0.46933 -0.18506,-0.99283 -0.49487,-1.38855 -0.22085,-0.28627 -0.4775,-0.54393 -0.683,-0.84252 0.95498,-0.44273 2.04187,-0.36094 3.04084,-0.64005 0.28424,-0.0931 0.47954,-0.33128 0.66665,-0.55011 -0.85785,-0.68506 -2.047,-0.87727 -3.10322,-0.64517 z m 53.6862,1.11654 0,0 c -0.004,0.0879 -0.0133,0.26482 -0.0174,0.35276 1.18299,0.26073 2.40486,0.0409 3.6022,0.14315 -0.0767,0.89669 -0.18303,1.79035 -0.20961,2.69014 0.84455,-0.18202 1.32922,-1.10019 2.17786,-1.17995 0.6779,0.78832 1.65847,1.33945 2.72797,1.2505 -0.52249,-0.67894 -1.35478,-1.01022 -1.91816,-1.64824 -0.8558,-0.80775 -1.41101,-2.02758 -2.60525,-2.3977 -1.29244,-0.29346 -2.67174,0.0572 -3.75761,0.78934 z"
           class="fil0"
           id="_77894024"
           sodipodi:nodetypes="ccccccccccccccccccccccccccccccccccccccccccccccccccccccccccccccccccccccccccccccccccccccccccccccccccccccccccccccccccccccccccccccccccccccccccccccccccccccccccccccccccccccccccccccccccccccccccccccccccccccccccccccccccccccccccccccccccccccccccccccccccccccccccccccccccccccccccccccccccccccccccccccccccccccccccccccccccccccccccccccccccccccccccccccccccccccccc" />
      </g>
    </g>
  </g>
</svg>
