<?xml version="1.0" encoding="UTF-8" standalone="no"?>
<!-- Created with Inkscape (http://www.inkscape.org/) -->

<svg
   xmlns:dc="http://purl.org/dc/elements/1.1/"
   xmlns:cc="http://creativecommons.org/ns#"
   xmlns:rdf="http://www.w3.org/1999/02/22-rdf-syntax-ns#"
   xmlns:svg="http://www.w3.org/2000/svg"
   xmlns="http://www.w3.org/2000/svg"
   xmlns:sodipodi="http://sodipodi.sourceforge.net/DTD/sodipodi-0.dtd"
   xmlns:inkscape="http://www.inkscape.org/namespaces/inkscape"
   version="1.1"
   width="16.25"
   height="17.5"
   id="svg2"
   xml:space="preserve"
   inkscape:version="0.48.3.1 r9886"
   sodipodi:docname="suspension.svg"><sodipodi:namedview
     pagecolor="#ffffff"
     bordercolor="#666666"
     borderopacity="1"
     objecttolerance="10"
     gridtolerance="10"
     guidetolerance="10"
     inkscape:pageopacity="0"
     inkscape:pageshadow="2"
     inkscape:window-width="958"
     inkscape:window-height="809"
     id="namedview10"
     showgrid="false"
     inkscape:zoom="11.313709"
     inkscape:cx="31.452354"
     inkscape:cy="-5.4328552"
     inkscape:window-x="188"
     inkscape:window-y="154"
     inkscape:window-maximized="0"
     inkscape:current-layer="svg2" /><metadata
     id="metadata8"><rdf:RDF><cc:Work
         rdf:about=""><dc:format>image/svg+xml</dc:format><dc:type
           rdf:resource="http://purl.org/dc/dcmitype/StillImage" /><dc:title></dc:title></cc:Work></rdf:RDF></metadata><defs
     id="defs6" /><g
     id="g12"
     transform="matrix(0.125,0,0,-0.125,0,17.5)"><path
       inkscape:connector-curvature="0"
       style="fill:#000000;fill-opacity:1;fill-rule:nonzero;stroke:none"
       id="path14"
       d="M 0.898438,11.1719 C -0.230469,12.3398 -0.230469,12.6914 0.550781,16.7891 6.05078,44.7188 20.9805,67.5 40,77.1797 c 7.0312,3.5586 12.2305,4.8515 21.4492,5.2422 9.7227,0.3867 14.5703,-0.5117 22.8516,-4.3828 11.8711,-5.5 21.5582,-14.918 29.4882,-28.5508 5.27,-9.0586 9.801,-21.4492 12.031,-32.6992 0.821,-4.0977 0.782,-4.4493 -0.351,-5.6172 -1.559,-1.56252 -4.141,-1.56252 -5.508,0.039 -0.582,0.6993 -1.91,4.25 -2.93,7.8907 -4.301,15.3867 -12.543,26.789 -25.4294,35.2695 -9.5704,6.2891 -18.711,8.668 -31.25,8.1289 C 48.7109,61.9883 39.5312,58.3906 29.7695,50.5781 20.3086,43.0391 12.5391,30.8906 8.98047,18.1211 8.12109,15 6.91016,11.9102 6.28906,11.2109 4.83984,9.60938 2.5,9.60938 0.898438,11.1719 z"
       sodipodi:nodetypes="cccccccccccccccc" /><path
       inkscape:connector-curvature="0"
       style="fill:#ffffff;fill-opacity:1;fill-rule:nonzero;stroke:none"
       id="path16"
       d="m 87.6992,106.789 c 0,-11.5976 -10.4687,-20.9687 -23.4375,-20.9687 -12.9726,0 -23.4414,9.3711 -23.4414,20.9687 0,11.57 10.4688,20.981 23.4414,20.981 12.9688,0 23.4375,-9.411 23.4375,-20.981" /><path
       inkscape:connector-curvature="0"
       style="fill:none;stroke:#000000;stroke-width:8;stroke-linecap:butt;stroke-linejoin:miter;stroke-miterlimit:4;stroke-opacity:1;stroke-dasharray:none"
       id="path18"
       d="m 87.6992,106.793 c 0,-11.5977 -10.4687,-20.9805 -23.4375,-20.9805 -12.9726,0 -23.4414,9.3828 -23.4414,20.9805 0,11.562 10.4688,20.98 23.4414,20.98 12.9688,0 23.4375,-9.418 23.4375,-20.98 z" /></g></svg>