<?xml version="1.0" encoding="UTF-8" standalone="no"?>
<!-- Created with Inkscape (http://www.inkscape.org/) -->

<svg
   xmlns:dc="http://purl.org/dc/elements/1.1/"
   xmlns:cc="http://creativecommons.org/ns#"
   xmlns:rdf="http://www.w3.org/1999/02/22-rdf-syntax-ns#"
   xmlns:svg="http://www.w3.org/2000/svg"
   xmlns="http://www.w3.org/2000/svg"
   xmlns:sodipodi="http://sodipodi.sourceforge.net/DTD/sodipodi-0.dtd"
   xmlns:inkscape="http://www.inkscape.org/namespaces/inkscape"
   width="16"
   height="16"
   id="svg1"
   sodipodi:version="0.32"
   inkscape:version="0.48.4 r9939"
   sodipodi:docname="fermata.svg"
   version="1.1">
  <defs
     id="defs3" />
  <sodipodi:namedview
     id="base"
     pagecolor="#ffffff"
     bordercolor="#666666"
     borderopacity="1.0"
     inkscape:pageopacity="0.0"
     inkscape:pageshadow="2"
     inkscape:zoom="19.647764"
     inkscape:cx="6.8361966"
     inkscape:cy="1.2044735"
     inkscape:current-layer="svg1"
     showborder="true"
     showgrid="true"
     gridtolerance="2.0000000pt"
     showguides="true"
     inkscape:guide-bbox="false"
     inkscape:window-width="2560"
     inkscape:window-height="1391"
     inkscape:window-x="0"
     inkscape:window-y="0"
     fit-margin-top="0"
     fit-margin-left="0"
     fit-margin-right="0"
     fit-margin-bottom="0"
     inkscape:window-maximized="1">
    <inkscape:grid
       id="GridFromPre046Settings"
       type="xygrid"
       originx="-2.2990328pt"
       originy="-16.260146pt"
       spacingx="2.0000000pt"
       spacingy="2.0000000pt"
       color="#3f3fff"
       empcolor="#3f3fff"
       opacity="0.15"
       empopacity="0.38"
       empspacing="5"
       units="pt"
       visible="true"
       enabled="true"
       snapvisiblegridlinesonly="true" />
  </sodipodi:namedview>
  <metadata
     id="metadata4">
    <rdf:RDF>
      <cc:Work
         rdf:about="">
        <dc:format>image/svg+xml</dc:format>
        <dc:type
           rdf:resource="http://purl.org/dc/dcmitype/StillImage" />
        <dc:title />
      </cc:Work>
    </rdf:RDF>
  </metadata>
  <g
     inkscape:label="Layer 1"
     inkscape:groupmode="layer"
     id="layer1"
     transform="translate(-2.8737909,-3.6748174)" />
  <path
     d="M 0.21512866,12.383806 C 0.07210118,12.240778 0.0692622,12.19567 0.1708874,11.680856 0.85956303,8.1921534 2.7209132,5.3430191 5.1015379,4.133601 5.9794846,3.6875816 6.6264535,3.5298863 7.7797849,3.4807914 c 1.2160311,-0.051764 1.8205963,0.063797 2.8587711,0.5464505 1.48102,0.6885323 2.695847,1.8648056 3.685627,3.5686615 0.657717,1.132228 1.227196,2.6780116 1.504928,4.0849526 0.101626,0.514814 0.09879,0.559922 -0.04424,0.70295 -0.197349,0.197349 -0.51966,0.195387 -0.690553,-0.0042 -0.07395,-0.08639 -0.23836,-0.529245 -0.365343,-0.984146 C 14.19115,9.4687794 13.1642,8.0433434 11.551592,6.9851754 10.353087,6.1987338 9.2115484,5.9022351 7.6463442,5.9708389 6.1875881,6.0347815 5.0399078,6.4804349 3.8195863,7.4568144 2.6387734,8.4015804 1.6671881,9.9214164 1.2243517,11.516499 c -0.1079712,0.388909 -0.26005231,0.777539 -0.33795797,0.863624 -0.17996592,0.198861 -0.47447189,0.200476 -0.67126507,0.0037 z m 7.14217284,0.06299 C 7.1025962,12.34576 6.654927,11.919381 6.5069066,11.63684 6.4408627,11.510775 6.3932551,11.187642 6.3932551,10.865433 c 0,-0.652146 0.1583788,-0.9501386 0.711368,-1.3384486 0.3030193,-0.212782 0.4159243,-0.243928 0.8825209,-0.243455 0.6332907,6.41e-4 1.017059,0.195997 1.38627,0.705678 0.1986304,0.2742016 0.2333299,0.3971876 0.2333299,0.8270106 0,0.277699 -0.038369,0.60668 -0.085263,0.731065 -0.1156451,0.306737 -0.5410685,0.74325 -0.8561179,0.878434 -0.2961782,0.127086 -1.0117342,0.138616 -1.3080603,0.02107 z"
     id="path1763"
     inkscape:connector-curvature="0" />
</svg>
