#define feta26_scripts_prallprall_width 32
#define feta26_scripts_prallprall_height 10
static char feta26_scripts_prallprall_bits[] = {
  0x20, 0x40, 0x80, 0x00, 0x70, 0xe0, 0xc0, 0x01, 0xf8, 0xf0, 0xe1, 0x03, 
  0xfc, 0xf9, 0xf3, 0xc7, 0xfc, 0xfb, 0xf7, 0x6f, 0xf6, 0xef, 0xdf, 0x3f, 
  0xe3, 0xcf, 0x9f, 0x3f, 0xc0, 0x87, 0x0f, 0x1f, 0x80, 0x03, 0x07, 0x0e, 
  0x00, 0x01, 0x02, 0x04, };
