#define feta26_scripts_dpedalheel_width 10
#define feta26_scripts_dpedalheel_height 12
static char feta26_scripts_dpedalheel_bits[] = {
  0xfc, 0x00, 0x86, 0x01, 0x03, 0x03, 0x01, 0x02, 0x01, 0x02, 0x01, 0x02, 
  0x01, 0x02, 0x01, 0x02, 0x01, 0x02, 0x01, 0x02, 0x01, 0x02, 0x01, 0x02, 
  };
