#define feta26_scripts_arpeggio_width 8
#define feta26_scripts_arpeggio_height 14
static char feta26_scripts_arpeggio_bits[] = {
  0x02, 0x0c, 0x18, 0x38, 0xf8, 0xf8, 0x7c, 0x3e, 0x1f, 0x0f, 0x0e, 0x08, 
  0x10, 0x20, };
