#define feta26_flags_u3_width 11
#define feta26_flags_u3_height 29
static unsigned char feta26_flags_u3_bits[] = {
  0x00, 0x00, 0x01, 0x00, 0x01, 0x00, 0x01, 0x00, 0x01, 0x00, 0x01, 0x00, 
  0x03, 0x00, 0x03, 0x00, 0x07, 0x00, 0x0f, 0x00, 0x1f, 0x00, 0x3f, 0x00, 
  0x79, 0x00, 0x71, 0x00, 0xc1, 0x00, 0x81, 0x01, 0x01, 0x01, 0x01, 0x02, 
  0x01, 0x02, 0x01, 0x04, 0x01, 0x04, 0x00, 0x04, 0x00, 0x04, 0x00, 0x04, 
  0x00, 0x04, 0x00, 0x02, 0x00, 0x02, 0x00, 0x02, 0x00, 0x01, };
