#define feta26_scripts_upedaltoe_width 10
#define feta26_scripts_upedaltoe_height 15
static char feta26_scripts_upedaltoe_bits[] = {
  0x30, 0x00, 0x30, 0x00, 0x30, 0x00, 0x78, 0x00, 0x48, 0x00, 0x48, 0x00, 
  0xcc, 0x00, 0x84, 0x00, 0x84, 0x00, 0x86, 0x01, 0x02, 0x01, 0x02, 0x01, 
  0x03, 0x03, 0x01, 0x02, 0x01, 0x02, };
