#define feta26_scripts_repeatsign_width 20
#define feta26_scripts_repeatsign_height 20
static unsigned char feta26_scripts_repeatsign_bits[] = {
  0xf0, 0x01, 0x00, 0xf0, 0x00, 0x00, 0x78, 0x00, 0x00, 0x7c, 0x00, 0x00, 
  0x3e, 0x00, 0x00, 0x1f, 0x00, 0x00, 0x0f, 0x00, 0x00, 0x07, 0x00, 0x00, 
  0x07, 0x00, 0x00, 0x03, 0x00, 0x00, 0x01, 0x00, 0x00, 0x00, 0x00, 0x00, 
  0x78, 0x00, 0x00, 0x78, 0x00, 0x00, 0x78, 0x00, 0x00, 0x30, 0x00, 0x00, 
  0x00, 0x00, 0x00, 0x00, 0x00, 0x00, 0x00, 0x00, 0x00, 0x00, 0x00, 0x00, 
  };
