#define feta26_scripts_ustaccatissimo_width 4
#define feta26_scripts_ustaccatissimo_height 9
static char feta26_scripts_ustaccatissimo_bits[] = {
  0x06, 0x0f, 0x0f, 0x0f, 0x06, 0x06, 0x06, 0x06, 0x06, };
