#define feta26_timesig_old2_4_width 14
#define feta26_timesig_old2_4_height 20
static unsigned char feta26_timesig_old2_4_bits[] = {
  0x00, 0x00, 0x07, 0x00, 0x1f, 0x00, 0x38, 0x00, 0x70, 0x00, 0x60, 0x00, 
  0xe0, 0x00, 0xc0, 0x00, 0xc0, 0x00, 0xc0, 0x00, 0xc0, 0x00, 0xe0, 0x00, 
  0x60, 0x00, 0x70, 0x00, 0x38, 0x00, 0x1f, 0x00, 0x07, 0x00, 0x00, 0x00, 
  0x00, 0x00, 0x00, 0x00, };
