#define feta26_rests_2_width 11
#define feta26_rests_2_height 27
static unsigned char feta26_rests_2_bits[] = {
  0x10, 0x00, 0x30, 0x00, 0x60, 0x00, 0xe0, 0x00, 0xe0, 0x01, 0xe0, 0x03, 
  0xf0, 0x07, 0xf8, 0x07, 0xfc, 0x03, 0xfe, 0x01, 0xfe, 0x00, 0x7e, 0x00, 
  0x3c, 0x00, 0x38, 0x00, 0x30, 0x00, 0x20, 0x00, 0x60, 0x00, 0xde, 0x00, 
  0xff, 0x01, 0xff, 0x01, 0x0f, 0x03, 0x06, 0x00, 0x06, 0x00, 0x04, 0x00, 
  0x04, 0x00, 0x08, 0x00, 0x00, 0x00, };
