#define feta26_timesig_old9_4_width 16
#define feta26_timesig_old9_4_height 16
static unsigned char feta26_timesig_old9_4_bits[] = {
  0x1f, 0x00, 0x38, 0x00, 0x70, 0x00, 0x60, 0x00, 0xe0, 0x00, 0xc1, 0x00, 
  0xc3, 0x00, 0xc3, 0x00, 0xc1, 0x00, 0xe0, 0x00, 0x60, 0x00, 0x70, 0x00, 
  0x38, 0x00, 0x1f, 0x00, 0x07, 0x00, 0x00, 0x00, };
