#define feta26_timesig_old2_2_width 14
#define feta26_timesig_old2_2_height 20
static unsigned char feta26_timesig_old2_2_bits[] = {
  0x00, 0x00, 0x07, 0x00, 0x1f, 0x00, 0x38, 0x00, 0x20, 0x00, 0x00, 0x00, 
  0x00, 0x00, 0x00, 0x00, 0x00, 0x00, 0x00, 0x00, 0x00, 0x00, 0x00, 0x00, 
  0x00, 0x00, 0x20, 0x00, 0x38, 0x00, 0x1f, 0x00, 0x07, 0x00, 0x00, 0x00, 
  0x00, 0x00, 0x00, 0x00, };
