#define feta26_accidentals_)_width 5
#define feta26_accidentals_)_height 22
static unsigned char feta26_accidentals_)_bits[] = {
  0x00, 0x00, 0x00, 0x00, 0x00, 0x00, 0x00, 0x00, 0x00, 0x00, 0x00, 0x02, 
  0x04, 0x0c, 0x08, 0x18, 0x18, 0x10, 0x10, 0x10, 0x10, 0x10, };
