#define feta26_timesig_old9_8_width 16
#define feta26_timesig_old9_8_height 20
static unsigned char feta26_timesig_old9_8_bits[] = {
  0x01, 0x00, 0x07, 0x00, 0x1f, 0x00, 0x39, 0x00, 0x71, 0x00, 0x61, 0x00, 
  0xe1, 0x00, 0xc1, 0x00, 0xc3, 0x00, 0xc3, 0x00, 0xc1, 0x00, 0xe1, 0x00, 
  0x61, 0x00, 0x71, 0x00, 0x39, 0x00, 0x1f, 0x00, 0x07, 0x00, 0x01, 0x00, 
  0x01, 0x00, 0x00, 0x00, };
