#define feta26_scripts_prallmordent_width 32
#define feta26_scripts_prallmordent_height 12
static char feta26_scripts_prallmordent_bits[] = {
  0x00, 0x00, 0x30, 0x00, 0x20, 0x40, 0xb0, 0x00, 0x70, 0xe0, 0xf0, 0x01, 
  0xf8, 0xf0, 0xf1, 0x03, 0xfc, 0xf9, 0xf3, 0xc7, 0xfc, 0xfb, 0xf7, 0x6f, 
  0xf6, 0xef, 0xff, 0x3f, 0xe3, 0xcf, 0xbf, 0x3f, 0xc0, 0x87, 0x3f, 0x1f, 
  0x80, 0x03, 0x37, 0x0e, 0x00, 0x01, 0x32, 0x04, 0x00, 0x00, 0x30, 0x00, 
  };
