#define feta26_scripts_downprall_width 34
#define feta26_scripts_downprall_height 13
static char feta26_scripts_downprall_bits[] = {
  0x04, 0x00, 0x00, 0x00, 0x00, 0x06, 0x00, 0x00, 0x00, 0x00, 0x02, 0x00, 
  0x00, 0x00, 0x00, 0x83, 0x00, 0x01, 0x02, 0x00, 0xc3, 0x81, 0x03, 0x07, 
  0x00, 0xe3, 0xc3, 0x87, 0x0f, 0x00, 0xf3, 0xe7, 0xcf, 0x1f, 0x03, 0xf2, 
  0xef, 0xdf, 0xbf, 0x01, 0xde, 0xbf, 0x7f, 0xff, 0x00, 0x8c, 0x3f, 0x7f, 
  0xfe, 0x00, 0x00, 0x1f, 0x3e, 0x7c, 0x00, 0x00, 0x0e, 0x1c, 0x38, 0x00, 
  0x00, 0x04, 0x08, 0x10, 0x00, };
