#define feta26_scripts_staccato_width 3
#define feta26_scripts_staccato_height 3
static char feta26_scripts_staccato_bits[] = {
  0x02, 0x07, 0x07, };
