#define feta26_scripts_upedalheel_width 10
#define feta26_scripts_upedalheel_height 12
static char feta26_scripts_upedalheel_bits[] = {
  0x01, 0x02, 0x01, 0x02, 0x01, 0x02, 0x01, 0x02, 0x01, 0x02, 0x01, 0x02, 
  0x01, 0x02, 0x01, 0x02, 0x01, 0x02, 0x03, 0x03, 0x86, 0x01, 0xfc, 0x00, 
  };
