#define feta26_noteheads_2harmonic_width 9
#define feta26_noteheads_2harmonic_height 10
static unsigned char feta26_noteheads_2harmonic_bits[] = {
  0x00, 0x00, 0x00, 0x00, 0x00, 0x00, 0x00, 0x00, 0x00, 0x00, 0x30, 0x00, 
  0x78, 0x00, 0xfc, 0x00, 0xe6, 0x01, 0xc7, 0x01, };
