#define feta26_rests_0o_width 27
#define feta26_rests_0o_height 7
static unsigned char feta26_rests_0o_bits[] = {
  0xff, 0xff, 0x1f, 0x00, 0xff, 0x7f, 0x00, 0x00, 0xff, 0x7f, 0x00, 0x00, 
  0xff, 0x7f, 0x00, 0x00, 0xff, 0x7f, 0x00, 0x00, 0xff, 0x7f, 0x00, 0x00, 
  0x00, 0x00, 0x00, 0x00, };
