#define feta26_clefs_g_8_width 26
#define feta26_clefs_g_8_height 76
static unsigned char feta26_clefs_g_8_bits[] = {
  0x00, 0xc0, 0x03, 0x00, 0x00, 0xe0, 0x03, 0x00, 0x00, 0xf0, 0x07, 0x00, 
  0x00, 0xf0, 0x07, 0x00, 0x00, 0xf8, 0x0c, 0x00, 0x00, 0x78, 0x0c, 0x00, 
  0x00, 0x7c, 0x0c, 0x00, 0x00, 0x3c, 0x1c, 0x00, 0x00, 0x3c, 0x1c, 0x00, 
  0x00, 0x1c, 0x1c, 0x00, 0x00, 0x1c, 0x1c, 0x00, 0x00, 0x1c, 0x1c, 0x00, 
  0x00, 0x1c, 0x1e, 0x00, 0x00, 0x18, 0x1e, 0x00, 0x00, 0x18, 0x0f, 0x00, 
  0x00, 0x18, 0x0f, 0x00, 0x00, 0x98, 0x07, 0x00, 0x00, 0xf8, 0x07, 0x00, 
  0x00, 0xf8, 0x03, 0x00, 0x00, 0xf0, 0x01, 0x00, 0x00, 0xf8, 0x00, 0x00, 
  0x00, 0x7c, 0x00, 0x00, 0x00, 0x3c, 0x00, 0x00, 0x00, 0x7e, 0x00, 0x00, 
  0x00, 0x7f, 0x00, 0x00, 0x80, 0x6f, 0x00, 0x00, 0xc0, 0x67, 0x00, 0x00, 
  0xe0, 0x63, 0x00, 0x00, 0xe0, 0x61, 0x00, 0x00, 0xf0, 0xe0, 0x00, 0x00, 
  0xf0, 0xe0, 0x07, 0x00, 0x78, 0xf8, 0x1f, 0x00, 0x78, 0xfc, 0x3f, 0x00, 
  0x38, 0xfc, 0x7c, 0x00, 0x38, 0xde, 0x70, 0x00, 0x38, 0xce, 0xe1, 0x00, 
  0x38, 0x8e, 0xe1, 0x00, 0x38, 0x8e, 0xc1, 0x00, 0x30, 0x8e, 0xc1, 0x00, 
  0x70, 0x9c, 0xc1, 0x00, 0x70, 0xb8, 0xc1, 0x00, 0xe0, 0xf0, 0x63, 0x00, 
  0xc0, 0x01, 0x63, 0x00, 0x80, 0x0f, 0x3b, 0x00, 0x00, 0xfe, 0x1f, 0x00, 
  0x00, 0xf8, 0x07, 0x00, 0x00, 0x00, 0x03, 0x00, 0x00, 0x00, 0x06, 0x00, 
  0x00, 0x00, 0x06, 0x00, 0x00, 0x00, 0x06, 0x00, 0x00, 0x00, 0x06, 0x00, 
  0x80, 0x07, 0x04, 0x00, 0xc0, 0x0f, 0x04, 0x00, 0xc0, 0x0f, 0x04, 0x00, 
  0xc0, 0x0f, 0x06, 0x00, 0xc0, 0x0f, 0x02, 0x00, 0xc0, 0x07, 0x03, 0x00, 
  0x80, 0x87, 0x01, 0x00, 0x00, 0xff, 0x00, 0x00, 0x00, 0x3c, 0x00, 0x00, 
  0x00, 0x3c, 0x00, 0x00, 0x00, 0x42, 0x00, 0x00, 0x00, 0x81, 0x00, 0x00, 
  0x00, 0x81, 0x00, 0x00, 0x00, 0x81, 0x00, 0x00, 0x00, 0x42, 0x00, 0x00, 
  0x00, 0x3c, 0x00, 0x00, 0x00, 0x42, 0x00, 0x00, 0x00, 0x81, 0x00, 0x00, 
  0x00, 0x81, 0x00, 0x00, 0x00, 0x81, 0x00, 0x00, 0x00, 0x42, 0x00, 0x00, 
  0x00, 0x3c, 0x00, 0x00, 0x00, 0x00, 0x00, 0x00, 0x00, 0x00, 0x00, 0x00, 
  0x00, 0x00, 0x00, 0x00, };
