#define feta26_accidentals_2_width 10
#define feta26_accidentals_2_height 10
static unsigned char feta26_accidentals_2_bits[] = {
  0xcf, 0x03, 0xcf, 0x03, 0xff, 0x03, 0xff, 0x03, 0xfc, 0x00, 0xfc, 0x00, 
  0xff, 0x03, 0xff, 0x03, 0xcf, 0x03, 0xcf, 0x03, };
