#define feta26_scripts_trilelement_width 14
#define feta26_scripts_trilelement_height 10
static char feta26_scripts_trilelement_bits[] = {
  0x20, 0x00, 0x70, 0x00, 0xf8, 0x00, 0xfc, 0x31, 0xfc, 0x1b, 0xf6, 0x0f, 
  0xe3, 0x0f, 0xc0, 0x07, 0x80, 0x03, 0x00, 0x01, };
