#define feta26_rests_3_width 13
#define feta26_rests_3_height 18
static unsigned char feta26_rests_3_bits[] = {
  0x3f, 0x10, 0x3f, 0x18, 0x3f, 0x0c, 0xfe, 0x0f, 0xfc, 0x0d, 0x00, 0x04, 
  0x00, 0x04, 0x00, 0x06, 0x00, 0x02, 0x00, 0x03, 0x00, 0x03, 0x00, 0x03, 
  0x80, 0x01, 0x80, 0x01, 0x80, 0x01, 0xc0, 0x00, 0xc0, 0x00, 0x00, 0x00, 
  };
