#define feta26_timesig_C2_2_width 15
#define feta26_timesig_C2_2_height 28
static unsigned char feta26_timesig_C2_2_bits[] = {
  0x00, 0x00, 0x00, 0x00, 0x00, 0x00, 0x03, 0x00, 0x08, 0x00, 0x1e, 0x00, 
  0x1f, 0x00, 0x3f, 0x00, 0x3f, 0x00, 0x3f, 0x00, 0x1f, 0x00, 0x0e, 0x00, 
  0x00, 0x00, 0x00, 0x00, 0x00, 0x00, 0x00, 0x00, 0x20, 0x00, 0x20, 0x00, 
  0x30, 0x00, 0x10, 0x00, 0x18, 0x00, 0x0c, 0x00, 0x07, 0x00, 0x00, 0x00, 
  0x00, 0x00, 0x00, 0x00, 0x00, 0x00, 0x00, 0x00, };
