#define feta26_dots_repeatcolon_width 4
#define feta26_dots_repeatcolon_height 14
static unsigned char feta26_dots_repeatcolon_bits[] = {
  0x0f, 0x0f, 0x0e, 0x00, 0x00, 0x00, 0x00, 0x00, 0x00, 0x0e, 0x0f, 0x0f, 
  0x0e, 0x00, };
