#define feta26_scripts_stopped_width 10
#define feta26_scripts_stopped_height 10
static char feta26_scripts_stopped_bits[] = {
  0x30, 0x00, 0x30, 0x00, 0x30, 0x00, 0x30, 0x00, 0xff, 0x03, 0xff, 0x03, 
  0x30, 0x00, 0x30, 0x00, 0x30, 0x00, 0x30, 0x00, };
