#define feta26_scripts_upbow_width 12
#define feta26_scripts_upbow_height 21
static char feta26_scripts_upbow_bits[] = {
  0x01, 0x08, 0x01, 0x08, 0x03, 0x0c, 0x02, 0x04, 0x02, 0x04, 0x06, 0x06, 
  0x04, 0x02, 0x04, 0x02, 0x04, 0x02, 0x0c, 0x03, 0x08, 0x01, 0x08, 0x01, 
  0x08, 0x01, 0x98, 0x01, 0x90, 0x00, 0x90, 0x00, 0xf0, 0x00, 0x60, 0x00, 
  0x60, 0x00, 0x60, 0x00, 0x60, 0x00, };
