#define feta26_scripts_ufermata_width 26
#define feta26_scripts_ufermata_height 15
static char feta26_scripts_ufermata_bits[] = {
  0x00, 0xfc, 0x00, 0x00, 0x00, 0xff, 0x03, 0x00, 0xc0, 0xff, 0x0f, 0x00, 
  0xe0, 0xff, 0x1f, 0x00, 0xf0, 0x03, 0x3f, 0x00, 0xf8, 0x00, 0x7c, 0x00, 
  0x38, 0x00, 0x70, 0x00, 0x1c, 0x00, 0xe0, 0x00, 0x0c, 0x00, 0xc0, 0x00, 
  0x06, 0x00, 0x80, 0x01, 0x06, 0x78, 0x80, 0x01, 0x02, 0xf8, 0x00, 0x01, 
  0x03, 0xf8, 0x00, 0x03, 0x03, 0x78, 0x00, 0x03, 0x01, 0x30, 0x00, 0x02, 
  };
