#define feta26_accidentals__2_width 15
#define feta26_accidentals__2_height 26
static unsigned char feta26_accidentals__2_bits[] = {
  0x61, 0x00, 0x61, 0x00, 0x61, 0x00, 0x41, 0x00, 0x41, 0x00, 0x41, 0x00, 
  0x41, 0x00, 0x41, 0x00, 0x41, 0x00, 0x41, 0x00, 0x41, 0x00, 0x41, 0x00, 
  0x41, 0x00, 0x79, 0x1f, 0xff, 0x3f, 0xf1, 0x3c, 0x71, 0x38, 0x71, 0x38, 
  0x71, 0x38, 0x79, 0x1c, 0x59, 0x0c, 0x45, 0x06, 0x43, 0x01, 0xc1, 0x00, 
  0x41, 0x00, 0x00, 0x00, };
