#define feta26_accidentals_1_width 11
#define feta26_accidentals_1_height 32
static unsigned char feta26_accidentals_1_bits[] = {
  0x80, 0x00, 0x88, 0x00, 0x88, 0x00, 0x88, 0x00, 0x88, 0x00, 0x88, 0x00, 
  0x88, 0x06, 0xc8, 0x07, 0xf8, 0x07, 0xfe, 0x07, 0xff, 0x01, 0xbf, 0x00, 
  0x8f, 0x00, 0x89, 0x00, 0x88, 0x00, 0x88, 0x00, 0x88, 0x04, 0x88, 0x07, 
  0xe8, 0x07, 0xfc, 0x07, 0xff, 0x03, 0xff, 0x00, 0x9f, 0x00, 0x8b, 0x00, 
  0x88, 0x00, 0x88, 0x00, 0x88, 0x00, 0x88, 0x00, 0x88, 0x00, 0x08, 0x00, 
  0x08, 0x00, 0x00, 0x00, };
