#define feta26_scripts_sforzato_width 18
#define feta26_scripts_sforzato_height 10
static char feta26_scripts_sforzato_bits[] = {
  0x07, 0x00, 0x00, 0x7c, 0x00, 0x00, 0xc0, 0x07, 0x00, 0x00, 0x7e, 0x00, 
  0x00, 0xc0, 0x03, 0x00, 0xc0, 0x03, 0x00, 0x7e, 0x00, 0xc0, 0x07, 0x00, 
  0x7c, 0x00, 0x00, 0x07, 0x00, 0x00, };
