#define feta26_scripts_trill_element_width 14
#define feta26_scripts_trill_element_height 8
static char feta26_scripts_trill_element_bits[] = {
  0x30, 0x00, 0x70, 0x00, 0xf8, 0x20, 0xfc, 0x11, 0xfe, 0x0f, 0xc2, 0x07, 
  0x81, 0x07, 0x00, 0x03, };
