#define feta26_accidentals__1_width 9
#define feta26_accidentals__1_height 26
static unsigned char feta26_accidentals__1_bits[] = {
  0x01, 0x00, 0x01, 0x00, 0x01, 0x00, 0x01, 0x00, 0x01, 0x00, 0x01, 0x00, 
  0x01, 0x00, 0x01, 0x00, 0x01, 0x00, 0x01, 0x00, 0x01, 0x00, 0x01, 0x00, 
  0x01, 0x00, 0x79, 0x00, 0xff, 0x00, 0xf3, 0x00, 0xe1, 0x00, 0xe1, 0x00, 
  0xe1, 0x00, 0x61, 0x00, 0x31, 0x00, 0x09, 0x00, 0x05, 0x00, 0x01, 0x00, 
  0x01, 0x00, 0x00, 0x00, };
