#define feta26_noteheads__1_width 20
#define feta26_noteheads__1_height 16
static unsigned char feta26_noteheads__1_bits[] = {
  0x01, 0x00, 0x08, 0xff, 0xff, 0x0f, 0xff, 0xff, 0x0f, 0xff, 0xff, 0x0f, 
  0xff, 0xff, 0x0f, 0xff, 0xff, 0x0f, 0x01, 0x00, 0x08, 0x01, 0x00, 0x08, 
  0xff, 0xff, 0x0f, 0xff, 0xff, 0x0f, 0xff, 0xff, 0x0f, 0xff, 0xff, 0x0f, 
  0xff, 0xff, 0x0f, 0x01, 0x00, 0x08, 0x01, 0x00, 0x08, 0x00, 0x00, 0x00, 
  };
