#define feta26_scripts_downbow_width 14
#define feta26_scripts_downbow_height 13
static char feta26_scripts_downbow_bits[] = {
  0xff, 0x3f, 0xff, 0x3f, 0xff, 0x3f, 0xff, 0x3f, 0xff, 0x3f, 0x01, 0x20, 
  0x01, 0x20, 0x01, 0x20, 0x01, 0x20, 0x01, 0x20, 0x01, 0x20, 0x01, 0x20, 
  0x01, 0x20, };
