#define feta26_accidentals_0_width 7
#define feta26_accidentals_0_height 30
static unsigned char feta26_accidentals_0_bits[] = {
  0x01, 0x01, 0x01, 0x01, 0x01, 0x01, 0x7f, 0x7f, 0x7f, 0x7f, 0x4f, 0x41, 
  0x41, 0x41, 0x41, 0x41, 0x41, 0x79, 0x7f, 0x7f, 0x7f, 0x7f, 0x40, 0x40, 
  0x40, 0x40, 0x40, 0x40, 0x40, 0x00, };
