/* Created with The GIMP */
#define feta26_scripts_accent_width 15
#define feta26_scripts_accent_height 10
static char feta26_scripts_accent_bits[] = {
   0x0f, 0x00, 0x78, 0x00, 0xc0, 0x03, 0x00, 0x1e, 0x00, 0x70, 0x00, 0x70,
   0x00, 0x1e, 0xc0, 0x03, 0x78, 0x00, 0x0f, 0x00 };
