#define feta26_scripts_flageolet_width 10
#define feta26_scripts_flageolet_height 10
static char feta26_scripts_flageolet_bits[] = {
  0x78, 0x00, 0x84, 0x00, 0x02, 0x01, 0x01, 0x02, 0x01, 0x02, 0x01, 0x02, 
  0x01, 0x02, 0x02, 0x01, 0x84, 0x00, 0x78, 0x00, };
