#define feta26_scripts_mordent_width 23
#define feta26_scripts_mordent_height 12
static char feta26_scripts_mordent_bits[] = {
  0x00, 0x0c, 0x00, 0x20, 0x4c, 0x00, 0x70, 0xec, 0x00, 0xf8, 0xfc, 0x01, 
  0xfc, 0xfd, 0x63, 0xfc, 0xff, 0x37, 0xf6, 0xef, 0x1f, 0xe3, 0xcf, 0x1f, 
  0xc0, 0x8f, 0x0f, 0x80, 0x0f, 0x07, 0x00, 0x0d, 0x02, 0x00, 0x0c, 0x00, 
  };
