#define feta26_noteheads_0diamond_width 20
#define feta26_noteheads_0diamond_height 10
static unsigned char feta26_noteheads_0diamond_bits[] = {
  0x80, 0x1f, 0x00, 0x60, 0x78, 0x00, 0x7e, 0xe0, 0x07, 0x7f, 0xe0, 0x0f, 
  0x7f, 0xe0, 0x0f, 0x7e, 0xe0, 0x07, 0xe0, 0x61, 0x00, 0x80, 0x1f, 0x00, 
  0x00, 0x0f, 0x00, 0x00, 0x00, 0x00, };
