#define feta26_timesig_old6_4_width 14
#define feta26_timesig_old6_4_height 16
static unsigned char feta26_timesig_old6_4_bits[] = {
  0x1f, 0x00, 0x38, 0x00, 0x20, 0x00, 0x00, 0x00, 0x00, 0x00, 0x01, 0x00, 
  0x03, 0x00, 0x03, 0x00, 0x01, 0x00, 0x00, 0x00, 0x00, 0x00, 0x20, 0x00, 
  0x38, 0x00, 0x1f, 0x00, 0x07, 0x00, 0x00, 0x00, };
