#define feta26_rests_4_width 15
#define feta26_rests_4_height 28
static unsigned char feta26_rests_4_bits[] = {
  0xf8, 0x43, 0xf8, 0x63, 0xf8, 0x63, 0xf0, 0x3f, 0xe0, 0x37, 0x00, 0x30, 
  0x00, 0x10, 0x00, 0x10, 0x00, 0x18, 0x3e, 0x18, 0x7f, 0x08, 0x7f, 0x0c, 
  0x7f, 0x0c, 0xfe, 0x0f, 0xfc, 0x07, 0x00, 0x06, 0x00, 0x06, 0x00, 0x02, 
  0x00, 0x03, 0x00, 0x03, 0x00, 0x03, 0x80, 0x01, 0x80, 0x01, 0x80, 0x01, 
  0xc0, 0x00, 0xc0, 0x00, 0xc0, 0x00, 0x00, 0x00, };
