#define feta26_scripts_dmarcato_width 10
#define feta26_scripts_dmarcato_height 11
static char feta26_scripts_dmarcato_bits[] = {
  0x0f, 0x02, 0x0f, 0x02, 0x1e, 0x01, 0x1e, 0x01, 0x9c, 0x00, 0xbc, 0x00, 
  0x78, 0x00, 0x78, 0x00, 0x30, 0x00, 0x30, 0x00, 0x10, 0x00, };
