#define feta26_rests__1_width 6
#define feta26_rests__1_height 10
static unsigned char feta26_rests__1_bits[] = {
  0x3f, 0x3f, 0x3f, 0x3f, 0x3f, 0x3f, 0x3f, 0x3f, 0x3f, 0x00, };
