#define feta26_timesig_old6_8_width 14
#define feta26_timesig_old6_8_height 20
static unsigned char feta26_timesig_old6_8_bits[] = {
  0x01, 0x00, 0x07, 0x00, 0x1f, 0x00, 0x39, 0x00, 0x21, 0x00, 0x01, 0x00, 
  0x01, 0x00, 0x01, 0x00, 0x03, 0x00, 0x03, 0x00, 0x01, 0x00, 0x01, 0x00, 
  0x01, 0x00, 0x21, 0x00, 0x39, 0x00, 0x1f, 0x00, 0x07, 0x00, 0x01, 0x00, 
  0x01, 0x00, 0x00, 0x00, };
