#define feta26_scripts_thumb_width 8
#define feta26_scripts_thumb_height 14
static char feta26_scripts_thumb_bits[] = {
  0x3c, 0x66, 0xe7, 0xc3, 0xc3, 0xc3, 0xc3, 0xe7, 0x66, 0x3c, 0x18, 0x18, 
  0x18, 0x18, };
