#define feta26_flags_ugrace_width 20
#define feta26_flags_ugrace_height 12
static unsigned char feta26_flags_ugrace_bits[] = {
  0x00, 0x1c, 0x00, 0x00, 0x07, 0x00, 0xc0, 0x01, 0x00, 0x60, 0x00, 0x00, 
  0x38, 0x00, 0x00, 0x0e, 0x00, 0x00, 0x03, 0x00, 0x00, 0x00, 0x00, 0x00, 
  0x00, 0x00, 0x00, 0x00, 0x00, 0x00, 0x00, 0x00, 0x00, 0x00, 0x00, 0x00, 
  };
