#define feta26_flags_u4_width 11
#define feta26_flags_u4_height 30
static unsigned char feta26_flags_u4_bits[] = {
  0x00, 0x00, 0x01, 0x00, 0x01, 0x00, 0x01, 0x00, 0x01, 0x00, 0x01, 0x00, 
  0x03, 0x00, 0x07, 0x00, 0x0f, 0x00, 0x1f, 0x00, 0x3d, 0x00, 0x71, 0x00, 
  0xe1, 0x00, 0xc1, 0x01, 0x81, 0x03, 0x03, 0x03, 0x07, 0x07, 0x0f, 0x06, 
  0x1d, 0x06, 0x31, 0x06, 0x61, 0x06, 0x80, 0x06, 0x00, 0x03, 0x00, 0x03, 
  0x00, 0x02, 0x00, 0x04, 0x00, 0x04, 0x00, 0x04, 0x00, 0x04, 0x00, 0x04, 
  };
