#define feta26_noteheads_1diamond_width 14
#define feta26_noteheads_1diamond_height 10
static unsigned char feta26_noteheads_1diamond_bits[] = {
  0xf8, 0x3f, 0xfc, 0x38, 0x7c, 0x18, 0x1c, 0x1c, 0x0e, 0x0e, 0x86, 0x0f, 
  0xc7, 0x0f, 0xff, 0x07, 0x0f, 0x00, 0x00, 0x00, };
