#define feta26_noteheads_2cross_width 13
#define feta26_noteheads_2cross_height 10
static unsigned char feta26_noteheads_2cross_bits[] = {
  0x06, 0x0c, 0x0c, 0x06, 0xb8, 0x03, 0xe0, 0x00, 0xe0, 0x00, 0xb8, 0x03, 
  0x0c, 0x06, 0x06, 0x0c, 0x03, 0x18, 0x00, 0x00, };
