#define feta26_scripts_prall_width 23
#define feta26_scripts_prall_height 10
static char feta26_scripts_prall_bits[] = {
  0x20, 0x40, 0x00, 0x70, 0xe0, 0x00, 0xf8, 0xf0, 0x01, 0xfc, 0xf9, 0x63, 
  0xfc, 0xfb, 0x37, 0xf6, 0xef, 0x1f, 0xe3, 0xcf, 0x1f, 0xc0, 0x87, 0x0f, 
  0x80, 0x03, 0x07, 0x00, 0x01, 0x02, };
