#define feta26_flags_dgrace_width 23
#define feta26_flags_dgrace_height 11
static unsigned char feta26_flags_dgrace_bits[] = {
  0x00, 0x00, 0x00, 0x00, 0x00, 0x00, 0x01, 0x00, 0x00, 0x0f, 0x00, 0x00, 
  0x38, 0x00, 0x00, 0xe0, 0x00, 0x00, 0x80, 0x03, 0x00, 0x00, 0x0e, 0x00, 
  0x00, 0x78, 0x00, 0x00, 0x40, 0x00, 0x00, 0x00, 0x00, };
