#define feta26_rests__2_width 6
#define feta26_rests__2_height 20
static unsigned char feta26_rests__2_bits[] = {
  0x3f, 0x3f, 0x3f, 0x3f, 0x3f, 0x3f, 0x3f, 0x3f, 0x3f, 0x3f, 0x3f, 0x3f, 
  0x3f, 0x3f, 0x3f, 0x3f, 0x3f, 0x3f, 0x3f, 0x00, };
