#define feta26_scripts_umarcato_width 10
#define feta26_scripts_umarcato_height 11
static char feta26_scripts_umarcato_bits[] = {
  0x20, 0x00, 0x30, 0x00, 0x30, 0x00, 0x78, 0x00, 0x78, 0x00, 0xf4, 0x00, 
  0xe4, 0x00, 0xe2, 0x01, 0xe2, 0x01, 0xc1, 0x03, 0xc1, 0x03, };
