<?xml version="1.0" encoding="UTF-8" standalone="no"?>
<!DOCTYPE svg PUBLIC "-//W3C//DTD SVG 20010904//EN"
"http://www.w3.org/TR/2001/REC-SVG-20010904/DTD/svg10.dtd">
<!-- Created with Inkscape (http://www.inkscape.org/) -->
<svg
   width="32.000000pt"
   height="32.000000pt"
   id="svg1"
   sodipodi:version="0.32"
   inkscape:version="0.40"
   sodipodi:docbase="/home/jens/java/workspace/denemo/pixmaps"
   sodipodi:docname="icon-rest-5.svg"
   xmlns="http://www.w3.org/2000/svg"
   xmlns:cc="http://web.resource.org/cc/"
   xmlns:inkscape="http://www.inkscape.org/namespaces/inkscape"
   xmlns:sodipodi="http://sodipodi.sourceforge.net/DTD/sodipodi-0.dtd"
   xmlns:rdf="http://www.w3.org/1999/02/22-rdf-syntax-ns#"
   xmlns:dc="http://purl.org/dc/elements/1.1/"
   xmlns:xlink="http://www.w3.org/1999/xlink">
  <defs
     id="defs3" />
  <sodipodi:namedview
     id="base"
     pagecolor="#ffffff"
     bordercolor="#666666"
     borderopacity="1.0"
     inkscape:pageopacity="0.0"
     inkscape:pageshadow="2"
     inkscape:zoom="19.647764"
     inkscape:cx="16.250172"
     inkscape:cy="15.839441"
     inkscape:current-layer="svg1"
     showborder="true"
     showgrid="true"
     gridspacingy="1.0000000pt"
     gridspacingx="1.0000000pt"
     gridoriginy="0.0000000pt"
     gridoriginx="0.0000000pt"
     gridtolerance="1.0000000pt"
     showguides="true"
     inkscape:guide-bbox="false"
     inkscape:window-width="1150"
     inkscape:window-height="816"
     inkscape:window-x="0"
     inkscape:window-y="0"
     inkscape:grid-points="false"
     inkscape:grid-bbox="true"
     gridempspacing="4" />
  <metadata
     id="metadata4">
    <rdf:RDF
       id="RDF5">
      <cc:Work
         rdf:about=""
         id="Work6">
        <dc:format
           id="format7">image/svg+xml</dc:format>
        <dc:type
           id="type9"
           rdf:resource="http://purl.org/dc/dcmitype/StillImage" />
      </cc:Work>
    </rdf:RDF>
  </metadata>
  <g
     inkscape:label="Layer 1"
     inkscape:groupmode="layer"
     id="layer1" />
  <path
     d="M 17.417578,35.459710 L 18.401559,31.767183 C 18.942749,29.736292 19.364877,28.036003 19.339623,27.988762 L 19.686110,26.929414 L 19.936122,25.984591 C 20.073628,25.464937 20.145287,25.039767 20.095365,25.039767 C 20.045441,25.039767 19.538589,25.173440 18.969026,25.336818 C 18.096713,25.587038 17.757386,25.627363 16.816587,25.592613 C 15.576840,25.546817 15.087628,25.374162 14.485113,24.769775 C 14.009398,24.292583 13.810070,23.797419 13.810070,23.092859 C 13.810070,22.080247 14.253405,21.336717 15.122999,20.890913 C 15.994215,20.444276 17.390326,20.707598 17.847090,21.404708 C 17.945094,21.554280 18.138483,22.059725 18.276841,22.527913 C 18.569034,23.516658 18.763468,23.780004 19.201290,23.780004 C 19.441816,23.780004 19.656883,23.624127 20.095783,23.131690 C 20.413591,22.775119 20.772399,22.272644 20.893132,22.015081 C 21.134657,21.499833 21.597705,19.926567 21.597705,19.621201 L 21.932449,18.511897 L 22.059473,18.025169 C 22.129335,17.757470 22.242651,17.344851 22.311283,17.108239 C 22.379917,16.871628 22.413207,16.655171 22.385262,16.627226 C 22.357318,16.599280 21.846586,16.701926 21.250304,16.855328 C 20.556861,17.033727 19.802956,17.140324 19.158334,17.151120 C 18.253997,17.166267 18.083939,17.133953 17.502171,16.836427 C 16.598111,16.374072 16.183289,15.763871 16.122340,14.806703 C 16.086153,14.238368 16.126792,13.984897 16.312458,13.620963 C 16.952054,12.367250 18.483187,11.842623 19.597202,12.495480 C 20.116713,12.799932 20.318699,13.135429 20.627874,14.207410 C 20.804123,14.818510 21.212128,15.420435 21.449345,15.419319 C 21.729241,15.418004 22.308564,14.897759 22.725650,14.273170 C 23.140808,13.651464 23.548690,12.591314 23.837702,11.382775 L 23.913018,11.067833 L 24.194851,10.037117 L 24.444580,9.1040644 C 24.581931,8.5908846 24.678213,8.1549146 24.658538,8.1352403 C 24.638865,8.1155660 24.212693,8.2307966 23.711489,8.3913049 C 23.118289,8.5812735 22.420451,8.7040061 21.712230,8.7429218 C 20.646203,8.8014966 20.609231,8.7948742 19.879845,8.4147046 C 19.268351,8.0959824 19.067570,7.9147989 18.755327,7.3999441 C 18.413874,6.8369236 18.379399,6.7017443 18.416333,6.0707549 C 18.469408,5.1640255 18.854885,4.5581292 19.679576,4.0851729 C 20.993079,3.3318855 22.411271,3.8928018 22.807252,5.3222165 C 23.067994,6.2634442 23.195989,6.5613214 23.431110,6.7741051 C 23.772764,7.0832953 24.124147,6.9358185 24.661225,6.2578228 C 25.680242,4.9714327 25.913410,4.7481883 26.196156,4.7882154 C 26.366523,4.8123346 26.477605,4.9147261 26.499456,5.0677888 C 26.518419,5.2006228 26.299392,6.3485071 26.012728,7.6186428 C 25.726066,8.8887784 25.491523,9.9525357 25.491523,9.9825476 L 25.212595,11.125094 L 24.383153,14.675341 C 23.926960,16.627975 23.551664,18.290006 23.549163,18.368742 L 23.272493,19.485351 L 22.399350,23.207382 L 21.526205,26.929414 C 21.526205,26.929414 21.355958,27.945288 21.315799,28.010268 C 21.257085,28.105269 19.536273,35.253452 19.536273,35.402345 L 19.309223,36.250000 L 17.417578,35.459710 z "
     id="path1113"
     sodipodi:nodetypes="cccccccccccccccccccccccccccccccccccccccccccccccccccccccccc" />
</svg>
