<?xml version="1.0" encoding="UTF-8" standalone="no"?>
<!-- Created with Inkscape (http://www.inkscape.org/) -->

<svg
   xmlns:dc="http://purl.org/dc/elements/1.1/"
   xmlns:cc="http://creativecommons.org/ns#"
   xmlns:rdf="http://www.w3.org/1999/02/22-rdf-syntax-ns#"
   xmlns:svg="http://www.w3.org/2000/svg"
   xmlns="http://www.w3.org/2000/svg"
   xmlns:sodipodi="http://sodipodi.sourceforge.net/DTD/sodipodi-0.dtd"
   xmlns:inkscape="http://www.inkscape.org/namespaces/inkscape"
   width="16"
   height="16"
   id="svg1"
   sodipodi:version="0.32"
   inkscape:version="0.48.4 r9939"
   sodipodi:docname="mordent.svg"
   version="1.1">
  <defs
     id="defs3" />
  <sodipodi:namedview
     id="base"
     pagecolor="#ffffff"
     bordercolor="#666666"
     borderopacity="1.0"
     inkscape:pageopacity="0.0"
     inkscape:pageshadow="2"
     inkscape:zoom="75.6875"
     inkscape:cx="8"
     inkscape:cy="8"
     inkscape:current-layer="svg1"
     showborder="true"
     showgrid="true"
     gridtolerance="2.0000000pt"
     showguides="true"
     inkscape:guide-bbox="false"
     inkscape:window-width="2560"
     inkscape:window-height="1391"
     inkscape:window-x="0"
     inkscape:window-y="0"
     inkscape:window-maximized="1">
    <inkscape:grid
       id="GridFromPre046Settings"
       type="xygrid"
       originx="0.0000000pt"
       originy="0.0000000pt"
       spacingx="2.0000000pt"
       spacingy="2.0000000pt"
       color="#3f3fff"
       empcolor="#3f3fff"
       opacity="0.15"
       empopacity="0.38"
       empspacing="5"
       units="pt"
       visible="true"
       enabled="true"
       snapvisiblegridlinesonly="true" />
  </sodipodi:namedview>
  <metadata
     id="metadata4">
    <rdf:RDF>
      <cc:Work
         rdf:about="">
        <dc:format>image/svg+xml</dc:format>
        <dc:type
           rdf:resource="http://purl.org/dc/dcmitype/StillImage" />
      </cc:Work>
    </rdf:RDF>
  </metadata>
  <g
     inkscape:label="Layer 1"
     inkscape:groupmode="layer"
     id="layer1"
     transform="translate(0,-24)" />
  <path
     d="M 7.6241175,12.417115 C 7.4566869,12.249684 7.4361771,12.103881 7.4361771,11.081048 l 0,-1.1481254 L 6.9172298,10.65252 C 6.3956945,11.375706 6.1867491,11.53296 5.895753,11.421294 5.8092124,11.388085 5.1207444,10.624419 4.3658237,9.7242569 3.6109034,8.8240955 2.958523,8.0997201 2.9160892,8.114534 2.8736558,8.12935 2.6361723,8.4374748 2.3883478,8.7992603 2.0334357,9.3173776 1.8812448,9.4635358 1.6716094,9.4875881 1.3487351,9.5246341 1.0461998,9.2778176 1.0461998,8.9773653 c 0,-0.2013036 2.3985831,-3.9258324 2.7627331,-4.2899824 0.2442134,-0.244213 0.5034745,-0.1995224 0.8216564,0.1416342 0.2108781,0.2261054 2.3322728,2.7414658 2.5932159,3.0748042 0.1424881,0.1820205 0.2096985,-0.5066027 0.210933,-2.161178 0.00118,-1.5921238 0.026986,-1.9654438 0.1477226,-2.1378228 0.1826372,-0.2607512 0.5440515,-0.2702757 0.7934185,-0.020909 0.16615,0.1661502 0.187941,0.3132343 0.187941,1.2685981 0,0.594362 0.03172,1.0793188 0.07048,1.0776819 0.03876,-0.00163 0.255925,-0.278078 0.482581,-0.6143129 0.446027,-0.6616619 0.667802,-0.8349932 0.9526757,-0.744578 0.100679,0.031953 0.802736,0.7970045 1.560127,1.7001121 0.757391,0.9031075 1.411793,1.6298934 1.454226,1.6150794 0.04243,-0.014816 0.279917,-0.3229408 0.527742,-0.6847259 0.354912,-0.5181177 0.507103,-0.6642759 0.716738,-0.6883282 0.322735,-0.03703 0.62541,0.2097343 0.62541,0.5098806 0,0.2008756 -2.22947,3.6803264 -2.658288,4.1486904 -0.263068,0.287329 -0.706428,0.280262 -0.956038,-0.01524 C 11.02033,10.778949 8.8133442,8.1446622 8.7761952,8.097206 8.6327562,7.9139718 8.5664962,8.6125097 8.5652612,10.32095 c -0.0014,1.950685 -0.0057,1.99454 -0.210288,2.137823 -0.2810943,0.196884 -0.5050816,0.184117 -0.7308557,-0.04166 z"
     id="path1939"
     inkscape:connector-curvature="0" />
</svg>
