<?xml version="1.0" encoding="UTF-8" standalone="no"?>
<!DOCTYPE svg PUBLIC "-//W3C//DTD SVG 20010904//EN"
"http://www.w3.org/TR/2001/REC-SVG-20010904/DTD/svg10.dtd">
<!-- Created with Inkscape (http://www.inkscape.org/) -->
<svg
   width="32.000000pt"
   height="32.000000pt"
   id="svg1"
   sodipodi:version="0.32"
   inkscape:version="0.40"
   sodipodi:docbase="/home/jens/music-icons"
   sodipodi:docname="mordent.svg"
   xmlns="http://www.w3.org/2000/svg"
   xmlns:cc="http://web.resource.org/cc/"
   xmlns:inkscape="http://www.inkscape.org/namespaces/inkscape"
   xmlns:sodipodi="http://sodipodi.sourceforge.net/DTD/sodipodi-0.dtd"
   xmlns:rdf="http://www.w3.org/1999/02/22-rdf-syntax-ns#"
   xmlns:dc="http://purl.org/dc/elements/1.1/"
   xmlns:xlink="http://www.w3.org/1999/xlink">
  <defs
     id="defs3" />
  <sodipodi:namedview
     id="base"
     pagecolor="#ffffff"
     bordercolor="#666666"
     borderopacity="1.0"
     inkscape:pageopacity="0.0"
     inkscape:pageshadow="2"
     inkscape:zoom="19.647764"
     inkscape:cx="16.250172"
     inkscape:cy="15.831973"
     inkscape:current-layer="svg1"
     showborder="true"
     showgrid="true"
     gridspacingy="2.0000000pt"
     gridspacingx="2.0000000pt"
     gridoriginy="0.0000000pt"
     gridoriginx="0.0000000pt"
     gridtolerance="2.0000000pt"
     showguides="true"
     inkscape:guide-bbox="false"
     inkscape:window-width="1150"
     inkscape:window-height="816"
     inkscape:window-x="0"
     inkscape:window-y="0" />
  <metadata
     id="metadata4">
    <rdf:RDF
       id="RDF5">
      <cc:Work
         rdf:about=""
         id="Work6">
        <dc:format
           id="format7">image/svg+xml</dc:format>
        <dc:type
           id="type9"
           rdf:resource="http://purl.org/dc/dcmitype/StillImage" />
      </cc:Work>
    </rdf:RDF>
  </metadata>
  <g
     inkscape:label="Layer 1"
     inkscape:groupmode="layer"
     id="layer1" />
  <path
     d="M 19.104960,30.639813 C 18.693050,30.227903 18.642592,29.869200 18.642592,27.352844 L 18.642592,24.528243 L 17.365886,26.298585 C 16.082813,28.077755 15.568769,28.464630 14.852865,28.189911 C 14.639959,28.108211 12.946201,26.229451 11.088957,24.014887 C 9.2317139,21.800324 7.6267379,20.018227 7.5223429,20.054672 C 7.4179489,20.091117 6.8336959,20.849166 6.2240019,21.739225 C 5.3508528,23.013889 4.9764351,23.373465 4.4606934,23.432638 C 3.6663632,23.523774 2.9220705,22.916564 2.9220705,22.177396 C 2.9220705,21.682152 8.8230269,12.519125 9.7189029,11.623249 C 10.319713,11.022440 10.957543,11.132387 11.740329,11.971695 C 12.259128,12.527956 17.478150,18.716206 18.120118,19.536280 C 18.470665,19.984084 18.636015,18.289944 18.639052,14.219384 C 18.641974,10.302466 18.705437,9.3840299 19.002477,8.9599460 C 19.451798,8.3184500 20.340945,8.2950184 20.954433,8.9085061 C 21.363193,9.3172665 21.416801,9.6791198 21.416801,12.029491 C 21.416801,13.491731 21.494826,14.684814 21.590189,14.680787 C 21.685553,14.676760 22.219810,13.996664 22.777427,13.169464 C 23.874735,11.541654 24.420343,11.115227 25.121185,11.337665 C 25.368873,11.416278 27.096064,13.298443 28.959385,15.520254 C 30.822706,17.742065 32.432656,19.530092 32.537049,19.493647 C 32.641443,19.457202 33.225696,18.699153 33.835391,17.809095 C 34.708541,16.534430 35.082958,16.174854 35.598699,16.115681 C 36.392687,16.024584 37.137322,16.631666 37.137322,17.370081 C 37.137322,17.864272 31.652416,26.424362 30.597444,27.576624 C 29.950249,28.283506 28.859502,28.266119 28.245416,27.539130 C 27.460262,26.609621 22.030670,20.128790 21.939276,20.012039 C 21.586389,19.561249 21.423378,21.279781 21.420341,25.482858 C 21.416874,30.281903 21.406261,30.389795 20.902993,30.742297 C 20.211456,31.226667 19.660406,31.195259 19.104960,30.639813 z "
     id="path1939" />
</svg>
