#define notehead_0_width 20
#define notehead_0_height 10
static unsigned char notehead_0_bits[] = {
  0xe0, 0x7f, 0x00, 0x7c, 0xf0, 0x03, 0x3e, 0xe0, 0x07, 0x3f, 0xc0, 0x0f, 
  0x3f, 0xc0, 0x0f, 0x3f, 0xc0, 0x0f, 0x3f, 0xc0, 0x0f, 0x7e, 0xc0, 0x07, 
  0xfc, 0xe0, 0x03, 0xe0, 0x7f, 0x00, };
