<?xml version="1.0" encoding="UTF-8" standalone="no"?>
<!DOCTYPE svg PUBLIC "-//W3C//DTD SVG 20010904//EN"
"http://www.w3.org/TR/2001/REC-SVG-20010904/DTD/svg10.dtd">
<!-- Created with Inkscape (http://www.inkscape.org/) -->
<svg
   width="32.000000pt"
   height="32.000000pt"
   id="svg1"
   sodipodi:version="0.32"
   inkscape:version="0.40"
   sodipodi:docbase="/home/jens/music-icons"
   sodipodi:docname="reverse turn.svg"
   xmlns="http://www.w3.org/2000/svg"
   xmlns:cc="http://web.resource.org/cc/"
   xmlns:inkscape="http://www.inkscape.org/namespaces/inkscape"
   xmlns:sodipodi="http://sodipodi.sourceforge.net/DTD/sodipodi-0.dtd"
   xmlns:rdf="http://www.w3.org/1999/02/22-rdf-syntax-ns#"
   xmlns:dc="http://purl.org/dc/elements/1.1/"
   xmlns:xlink="http://www.w3.org/1999/xlink">
  <defs
     id="defs3" />
  <sodipodi:namedview
     id="base"
     pagecolor="#ffffff"
     bordercolor="#666666"
     borderopacity="1.0"
     inkscape:pageopacity="0.0"
     inkscape:pageshadow="2"
     inkscape:zoom="19.647764"
     inkscape:cx="16.250172"
     inkscape:cy="15.831973"
     inkscape:current-layer="svg1"
     showborder="true"
     showgrid="true"
     gridspacingy="2.0000000pt"
     gridspacingx="2.0000000pt"
     gridoriginy="0.0000000pt"
     gridoriginx="0.0000000pt"
     gridtolerance="2.0000000pt"
     showguides="true"
     inkscape:guide-bbox="false"
     inkscape:window-width="1150"
     inkscape:window-height="816"
     inkscape:window-x="0"
     inkscape:window-y="0" />
  <metadata
     id="metadata4">
    <rdf:RDF
       id="RDF5">
      <cc:Work
         rdf:about=""
         id="Work6">
        <dc:format
           id="format7">image/svg+xml</dc:format>
        <dc:type
           id="type9"
           rdf:resource="http://purl.org/dc/dcmitype/StillImage" />
      </cc:Work>
    </rdf:RDF>
  </metadata>
  <g
     inkscape:label="Layer 1"
     inkscape:groupmode="layer"
     id="layer1" />
  <path
     d="M 31.181797,28.438124 C 33.740726,27.806013 35.681677,25.915928 36.664305,23.099296 C 37.307844,21.254636 37.180046,18.435468 36.377003,16.761570 C 35.499621,14.932714 34.468853,13.875630 32.725818,13.017167 C 30.680145,12.009652 28.861349,11.693713 27.039477,12.029406 C 24.522879,12.493108 22.430648,13.826947 17.772073,17.937560 C 14.688583,20.658358 13.058317,21.902730 11.548908,22.687661 C 10.536683,23.214044 10.119292,23.302243 8.6151000,23.307608 C 7.1657810,23.312777 6.7561380,23.235958 6.2548620,22.865000 C 5.2159490,22.096175 4.6827610,21.109895 4.6827610,19.956960 C 4.6827610,19.068601 4.7929000,18.794563 5.4360630,18.082659 C 5.8503790,17.624062 6.4752990,17.130407 6.8247780,16.985648 C 7.4181720,16.739856 7.4977500,16.767087 8.0281390,17.397417 C 8.8066780,18.322657 9.6236450,18.700670 10.844744,18.700670 C 12.760753,18.700670 14.123713,17.244722 14.123713,15.197992 C 14.123713,13.305995 12.297565,11.966020 9.7250880,11.970409 C 7.0519850,11.974969 4.8619200,13.507108 3.5400620,16.297367 C 2.9033620,17.641353 2.8589410,17.889047 2.8589410,20.095356 C 2.8589410,22.267112 2.9088270,22.557336 3.4836420,23.729643 C 5.1281080,27.083457 8.8769360,28.987832 12.598778,28.360062 C 15.330953,27.899221 17.286123,26.681819 22.061977,22.467720 C 25.145466,19.746922 26.775734,18.502550 28.285142,17.717620 C 29.297365,17.191237 29.714758,17.103038 31.218950,17.097673 C 32.668269,17.092504 33.077912,17.169323 33.579188,17.540281 C 34.618101,18.309105 35.151288,19.295385 35.151288,20.448320 C 35.151288,21.336679 35.041149,21.610717 34.397987,22.322621 C 33.983671,22.781219 33.358749,23.274874 33.009271,23.419633 C 32.415877,23.665425 32.336299,23.638194 31.805910,23.007864 C 31.027372,22.082623 30.210405,21.704610 28.989307,21.704610 C 27.073297,21.704610 25.710336,23.160559 25.710336,25.207288 C 25.710336,26.353036 26.369663,27.278243 27.652550,27.932724 C 28.481480,28.355612 30.402291,28.630678 31.181797,28.438124 z "
     id="path1833" />
</svg>
