<?xml version="1.0" encoding="UTF-8" standalone="no"?>
<!-- Created with Inkscape (http://www.inkscape.org/) -->

<svg
   xmlns:dc="http://purl.org/dc/elements/1.1/"
   xmlns:cc="http://creativecommons.org/ns#"
   xmlns:rdf="http://www.w3.org/1999/02/22-rdf-syntax-ns#"
   xmlns:svg="http://www.w3.org/2000/svg"
   xmlns="http://www.w3.org/2000/svg"
   xmlns:sodipodi="http://sodipodi.sourceforge.net/DTD/sodipodi-0.dtd"
   xmlns:inkscape="http://www.inkscape.org/namespaces/inkscape"
   width="16"
   height="16"
   id="svg1"
   sodipodi:version="0.32"
   inkscape:version="0.48.4 r9939"
   sodipodi:docname="reverse-turn.svg"
   version="1.1">
  <defs
     id="defs3" />
  <sodipodi:namedview
     id="base"
     pagecolor="#ffffff"
     bordercolor="#666666"
     borderopacity="1.0"
     inkscape:pageopacity="0.0"
     inkscape:pageshadow="2"
     inkscape:zoom="75.6875"
     inkscape:cx="8"
     inkscape:cy="8"
     inkscape:current-layer="svg1"
     showborder="true"
     showgrid="true"
     gridtolerance="2.0000000pt"
     showguides="true"
     inkscape:guide-bbox="false"
     inkscape:window-width="2560"
     inkscape:window-height="1391"
     inkscape:window-x="0"
     inkscape:window-y="0"
     inkscape:window-maximized="1">
    <inkscape:grid
       id="GridFromPre046Settings"
       type="xygrid"
       originx="0.0000000pt"
       originy="0.0000000pt"
       spacingx="2.0000000pt"
       spacingy="2.0000000pt"
       color="#3f3fff"
       empcolor="#3f3fff"
       opacity="0.15"
       empopacity="0.38"
       empspacing="5"
       units="pt"
       visible="true"
       enabled="true"
       snapvisiblegridlinesonly="true" />
  </sodipodi:namedview>
  <metadata
     id="metadata4">
    <rdf:RDF>
      <cc:Work
         rdf:about="">
        <dc:format>image/svg+xml</dc:format>
        <dc:type
           rdf:resource="http://purl.org/dc/dcmitype/StillImage" />
      </cc:Work>
    </rdf:RDF>
  </metadata>
  <g
     inkscape:label="Layer 1"
     inkscape:groupmode="layer"
     id="layer1"
     transform="translate(0,-24)" />
  <path
     d="M 12.425473,11.250513 C 13.435217,11.001084 14.201109,10.255264 14.58885,9.1438326 14.842787,8.415937 14.792359,7.3035044 14.475481,6.6429908 14.129269,5.9213315 13.722534,5.5042102 13.034738,5.1654642 12.227524,4.7679028 11.509834,4.6432345 10.79093,4.7756975 9.7978907,4.9586725 8.9723047,5.4850002 7.1340494,7.1070318 5.9173164,8.180648 5.2740199,8.6716724 4.678413,8.9814031 4.278993,9.1891117 4.1142921,9.2239147 3.520744,9.2260318 2.9488483,9.2280714 2.7872048,9.1977589 2.5894032,9.0513803 2.1794523,8.748005 1.9690584,8.3588228 1.9690584,7.9038792 c 0,-0.350543 0.04346,-0.4586772 0.29725,-0.7395918 0.1634874,-0.1809605 0.4100785,-0.3757549 0.5479815,-0.4328762 0.2341509,-0.096988 0.2655521,-0.086244 0.4748416,0.1624824 0.3072084,0.3650961 0.6295803,0.5142586 1.1114212,0.5142586 0.7560496,0 1.2938682,-0.5745114 1.2938682,-1.3821431 0,-0.7465746 -0.7205908,-1.2753234 -1.7356801,-1.2735916 C 2.9039449,4.7542316 2.0397539,5.358793 1.5181539,6.4598182 1.2669145,6.9901498 1.2493862,7.0878889 1.2493862,7.9584897 c 0,0.8569664 0.019685,0.9714876 0.2465045,1.4340754 C 2.1447906,10.715966 3.6240634,11.467425 5.0926876,11.21971 6.1707932,11.037863 6.9422955,10.557481 8.8268287,8.8946152 10.043561,7.820999 10.686858,7.3299748 11.282464,7.0202444 c 0.39942,-0.2077086 0.564122,-0.2425116 1.15767,-0.2446286 0.571895,-0.00205 0.73354,0.028272 0.931341,0.1746513 0.40995,0.303375 0.620344,0.6925572 0.620344,1.1475008 0,0.3505429 -0.04346,0.4586773 -0.29725,0.7395917 -0.163487,0.1809611 -0.410078,0.3757553 -0.547982,0.4328767 -0.234151,0.096988 -0.265552,0.086244 -0.474841,-0.1624824 -0.307208,-0.3650965 -0.62958,-0.514259 -1.11142,-0.514259 -0.75605,0 -1.293869,0.5745118 -1.293869,1.3821433 0,0.4521068 0.260167,0.8171908 0.76639,1.0754448 0.327093,0.16687 1.085036,0.275411 1.392626,0.19943 z"
     id="path1833"
     inkscape:connector-curvature="0" />
</svg>
