#define toomany_width 3
#define toomany_height 13
static unsigned char toomany_bits[] = {
   0x02, 0x07, 0x07, 0x07, 0x07, 0x07, 0x07, 0x02, 0x02, 0x00, 0x07, 0x07,
   0x07};
