<?xml version="1.0" encoding="UTF-8" standalone="no"?>
<!-- Created with Inkscape (http://www.inkscape.org/) -->

<svg
   xmlns:dc="http://purl.org/dc/elements/1.1/"
   xmlns:cc="http://creativecommons.org/ns#"
   xmlns:rdf="http://www.w3.org/1999/02/22-rdf-syntax-ns#"
   xmlns:svg="http://www.w3.org/2000/svg"
   xmlns="http://www.w3.org/2000/svg"
   xmlns:sodipodi="http://sodipodi.sourceforge.net/DTD/sodipodi-0.dtd"
   xmlns:inkscape="http://www.inkscape.org/namespaces/inkscape"
   width="16"
   height="16"
   id="svg1"
   sodipodi:version="0.32"
   inkscape:version="0.48.4 r9939"
   sodipodi:docname="trill.svg"
   version="1.1">
  <defs
     id="defs3" />
  <sodipodi:namedview
     id="base"
     pagecolor="#ffffff"
     bordercolor="#666666"
     borderopacity="1.0"
     inkscape:pageopacity="0.0"
     inkscape:pageshadow="2"
     inkscape:zoom="39.75"
     inkscape:cx="8.4805031"
     inkscape:cy="8"
     inkscape:current-layer="svg1"
     showborder="true"
     showgrid="true"
     gridtolerance="2.0000000pt"
     showguides="true"
     inkscape:guide-bbox="false"
     inkscape:window-width="1150"
     inkscape:window-height="816"
     inkscape:window-x="0"
     inkscape:window-y="0"
     inkscape:window-maximized="0">
    <inkscape:grid
       id="GridFromPre046Settings"
       type="xygrid"
       originx="0.0000000pt"
       originy="0.0000000pt"
       spacingx="2.0000000pt"
       spacingy="2.0000000pt"
       color="#3f3fff"
       empcolor="#3f3fff"
       opacity="0.15"
       empopacity="0.38"
       empspacing="5"
       units="pt"
       visible="true"
       enabled="true"
       snapvisiblegridlinesonly="true" />
  </sodipodi:namedview>
  <metadata
     id="metadata4">
    <rdf:RDF>
      <cc:Work
         rdf:about="">
        <dc:format>image/svg+xml</dc:format>
        <dc:type
           rdf:resource="http://purl.org/dc/dcmitype/StillImage" />
      </cc:Work>
    </rdf:RDF>
  </metadata>
  <g
     inkscape:label="Layer 1"
     inkscape:groupmode="layer"
     id="layer1"
     transform="translate(0,-24)" />
  <path
     d="M 5.1172888,14.600117 C 4.8401529,14.476761 4.5100857,14.071664 4.3751882,13.689324 4.145299,13.037748 4.131219,12.321401 4.3278693,11.281841 4.4268832,10.758422 4.528329,10.194655 4.5533047,10.029028 L 4.5987156,9.7278857 3.7470909,9.9669631 C 2.6703336,10.26924 1.9564774,10.285576 1.4364227,10.019842 0.92239394,9.7571863 0.74884684,9.4866584 0.75000587,8.9498466 0.75172059,8.1542225 1.1177096,7.6161025 1.9041812,7.2528275 2.6980195,6.8861492 3.6207367,6.9204368 4.5625436,7.3516098 c 0.2506992,0.114774 0.4702625,0.1942344 0.4879185,0.176579 0.027707,-0.027707 1.1012525,-5.3601818 1.1012525,-5.4701039 0,-0.022308 0.110401,-0.018484 0.2453357,0.0085 0.3920793,0.078421 0.7740482,-0.033317 1.3198817,-0.3861084 0.2800702,-0.1810184 0.520399,-0.3291242 0.5340625,-0.3291242 0.013669,0 -0.2474938,1.3685456 -0.58035,3.0412125 C 7.3377867,6.0652298 7.0646758,7.4762156 7.0637299,7.5280875 7.0627981,7.5799587 7.5209241,7.3854422 8.0818187,7.0958275 9.7474974,6.2357647 10.694325,6.1261289 11.540213,6.6953702 l 0.408878,0.2751545 0.29715,-0.2016512 c 0.793601,-0.5385518 2.07899,-0.4890814 2.612185,0.1005345 0.395269,0.4370967 0.504303,1.2876114 0.267355,2.0855013 -0.150224,0.505862 -0.765227,1.2033267 -1.144471,1.2979257 -0.390682,0.09745 -0.808117,-0.05367 -1.020289,-0.3693639 -0.272281,-0.4051361 -0.264649,-1.1474777 0.01673,-1.6276241 0.202388,-0.3453502 0.738756,-0.6979407 1.061722,-0.6979407 0.200038,0 0.17172,-0.1405022 -0.05875,-0.2915137 -0.473718,-0.3103924 -1.164616,-0.2259348 -1.564278,0.1912223 -0.195659,0.2042255 -0.288616,0.5698985 -0.930224,3.6593381 -0.392063,1.887842 -0.728478,3.448076 -0.747588,3.467188 -0.01912,0.01912 -0.129756,-0.0085 -0.245878,-0.06145 -0.26125,-0.119034 -1.1079669,-0.125718 -1.4093648,-0.01113 -0.1230624,0.0468 -0.2428165,0.066 -0.2661202,0.04269 -0.023299,-0.0233 0.2475383,-1.48599 0.6018725,-3.250413 C 9.773471,9.5394182 10.064585,7.9938716 10.066057,7.8692937 10.070126,7.5224348 9.8269547,7.3096352 9.4264498,7.3096352 c -0.2626376,0 -0.5490874,0.1157149 -1.2491736,0.5046204 -1.4208609,0.7893035 -1.3408025,0.7267927 -1.3992956,1.0925873 -0.047568,0.2974769 -0.014385,0.3875694 0.3340549,0.9069072 0.8228609,1.2264539 0.993238,2.4229199 0.4805768,3.3748379 -0.2928898,0.54384 -0.739048,1.00649 -1.1948715,1.239033 -0.3838338,0.195818 -1.0319101,0.283117 -1.2804619,0.172485 z M 6.701792,13.394935 C 7.0029894,13.183968 7.152762,12.739342 7.1619883,12.028759 7.1695683,11.445468 7.1403033,11.309382 6.9042,10.82979 6.7577177,10.532242 6.6029624,10.288793 6.5602997,10.288793 c -0.042663,0 -0.077568,0.01927 -0.077568,0.04282 0,0.02355 -0.080403,0.405254 -0.178673,0.848228 -0.2104967,0.948861 -0.248631,1.995175 -0.080145,2.198978 0.139854,0.169168 0.2538739,0.173013 0.4778788,0.01611 z M 3.8607475,9.213666 C 4.6682506,8.955 4.7719615,8.8877058 4.8491475,8.5723316 5.0120697,7.9066471 2.8212783,7.4471873 1.9757967,7.9697237 1.4066914,8.3214503 1.2449073,9.0501701 1.6623057,9.3817742 1.8648058,9.5426505 1.9553413,9.5571598 2.4840263,9.5134592 2.8108072,9.486447 3.4303315,9.3515407 3.8607475,9.213666 z"
     id="path1886"
     inkscape:connector-curvature="0" />
</svg>
