<?xml version="1.0" encoding="UTF-8" standalone="no"?>
<!DOCTYPE svg PUBLIC "-//W3C//DTD SVG 20010904//EN"
"http://www.w3.org/TR/2001/REC-SVG-20010904/DTD/svg10.dtd">
<!-- Created with Inkscape (http://www.inkscape.org/) -->
<svg
   width="32.000000pt"
   height="32.000000pt"
   id="svg1"
   sodipodi:version="0.32"
   inkscape:version="0.40"
   sodipodi:docbase="/home/jens/music-icons"
   sodipodi:docname="trill.svg"
   xmlns="http://www.w3.org/2000/svg"
   xmlns:cc="http://web.resource.org/cc/"
   xmlns:inkscape="http://www.inkscape.org/namespaces/inkscape"
   xmlns:sodipodi="http://sodipodi.sourceforge.net/DTD/sodipodi-0.dtd"
   xmlns:rdf="http://www.w3.org/1999/02/22-rdf-syntax-ns#"
   xmlns:dc="http://purl.org/dc/elements/1.1/"
   xmlns:xlink="http://www.w3.org/1999/xlink">
  <defs
     id="defs3" />
  <sodipodi:namedview
     id="base"
     pagecolor="#ffffff"
     bordercolor="#666666"
     borderopacity="1.0"
     inkscape:pageopacity="0.0"
     inkscape:pageshadow="2"
     inkscape:zoom="19.647764"
     inkscape:cx="16.250172"
     inkscape:cy="16.642239"
     inkscape:current-layer="svg1"
     showborder="true"
     showgrid="true"
     gridspacingy="2.0000000pt"
     gridspacingx="2.0000000pt"
     gridoriginy="0.0000000pt"
     gridoriginx="0.0000000pt"
     gridtolerance="2.0000000pt"
     showguides="true"
     inkscape:guide-bbox="false"
     inkscape:window-width="1150"
     inkscape:window-height="816"
     inkscape:window-x="0"
     inkscape:window-y="0" />
  <metadata
     id="metadata4">
    <rdf:RDF
       id="RDF5">
      <cc:Work
         rdf:about=""
         id="Work6">
        <dc:format
           id="format7">image/svg+xml</dc:format>
        <dc:type
           id="type9"
           rdf:resource="http://purl.org/dc/dcmitype/StillImage" />
      </cc:Work>
    </rdf:RDF>
  </metadata>
  <g
     inkscape:label="Layer 1"
     inkscape:groupmode="layer"
     id="layer1" />
  <path
     d="M 13.046894,35.427401 C 12.392430,35.136093 11.612967,34.179445 11.294403,33.276538 C 10.751513,31.737823 10.718263,30.046151 11.182658,27.591203 C 11.416482,26.355133 11.656049,25.023784 11.715030,24.632648 L 11.822269,23.921493 L 9.8111338,24.486079 C 7.2683418,25.199917 5.5825508,25.238496 4.3544273,24.610956 C 3.1405340,23.990687 2.7306978,23.351828 2.7334349,22.084132 C 2.7374920,20.205244 3.6017775,18.934459 5.4590518,18.076575 C 7.3337228,17.210654 9.5127448,17.291625 11.736848,18.309852 C 12.328881,18.580894 12.847386,18.768542 12.889081,18.726848 C 12.954514,18.661415 15.489719,6.0686306 15.489719,5.8090469 C 15.489719,5.7563626 15.750434,5.7654003 16.069086,5.8291305 C 16.994992,6.0143119 17.897022,5.7504357 19.186023,4.9173134 C 19.847417,4.4898338 20.414960,4.1400777 20.447227,4.1400777 C 20.479496,4.1400777 19.862764,7.3719358 19.076714,11.321985 C 18.290661,15.272034 17.645702,18.604116 17.643468,18.726613 C 17.641234,18.849108 18.723145,18.389752 20.047713,17.705819 C 23.981259,15.674757 26.217218,15.415849 28.214806,16.760128 L 29.180383,17.409913 L 29.882111,16.933708 C 31.756221,15.661903 34.791704,15.778729 36.050857,17.171123 C 36.984298,18.203339 37.241784,20.211853 36.682224,22.096092 C 36.327465,23.290699 34.875117,24.937781 33.979523,25.161178 C 33.056918,25.391314 32.071133,25.034442 31.570084,24.288917 C 30.927083,23.332176 30.945107,21.579116 31.609607,20.445237 C 32.087553,19.629683 33.354201,18.797031 34.116894,18.797031 C 34.589289,18.797031 34.522418,18.465231 33.978151,18.108613 C 32.859452,17.375613 31.227877,17.575062 30.284063,18.560190 C 29.822008,19.042474 29.602488,19.906021 28.087314,27.201819 C 27.161448,31.660009 26.366994,35.344544 26.321863,35.389677 C 26.276731,35.434809 26.015441,35.369508 25.741217,35.244564 C 25.124267,34.963463 23.124724,34.947677 22.412963,35.218287 C 22.122349,35.328779 21.839546,35.374153 21.784514,35.319121 C 21.729480,35.264089 22.369082,31.809914 23.205851,27.643181 C 24.042620,23.476447 24.730094,19.826596 24.733569,19.532402 C 24.743242,18.713285 24.168922,18.210753 23.223119,18.210753 C 22.602893,18.210753 21.926436,18.484017 20.273161,19.402428 C 16.917760,21.266390 17.106820,21.118769 16.968687,21.982603 C 16.856353,22.685103 16.934720,22.897859 17.757567,24.124290 C 19.700776,27.020596 20.103126,29.846084 18.892462,32.094062 C 18.200795,33.378358 17.147180,34.470917 16.070740,35.020074 C 15.164306,35.482503 13.633856,35.688662 13.046894,35.427401 z M 16.788742,32.581331 C 17.500028,32.083125 17.853720,31.033131 17.875508,29.355070 C 17.893395,27.977611 17.824297,27.656241 17.266734,26.523671 C 16.920812,25.821001 16.555353,25.246091 16.454604,25.246091 C 16.353855,25.246091 16.271424,25.291596 16.271424,25.347214 C 16.271424,25.402830 16.081550,26.304233 15.849483,27.350331 C 15.352389,29.591092 15.262334,32.061992 15.660218,32.543276 C 15.990487,32.942771 16.259748,32.951851 16.788742,32.581331 z M 10.079537,22.707149 C 11.986478,22.096302 12.231394,21.937385 12.413671,21.192620 C 12.798416,19.620588 7.6248018,18.535561 5.6281738,19.769545 C 4.2842160,20.600157 3.9021583,22.321049 4.8878560,23.104141 C 5.3660658,23.484055 5.5798678,23.518319 6.8283718,23.415119 C 7.6000738,23.351330 9.0630978,23.032744 10.079537,22.707149 z "
     id="path1886" />
</svg>
