<?xml version="1.0" encoding="UTF-8" standalone="no"?>
<!-- Created with Inkscape (http://www.inkscape.org/) -->

<svg
   xmlns:dc="http://purl.org/dc/elements/1.1/"
   xmlns:cc="http://creativecommons.org/ns#"
   xmlns:rdf="http://www.w3.org/1999/02/22-rdf-syntax-ns#"
   xmlns:svg="http://www.w3.org/2000/svg"
   xmlns="http://www.w3.org/2000/svg"
   xmlns:sodipodi="http://sodipodi.sourceforge.net/DTD/sodipodi-0.dtd"
   xmlns:inkscape="http://www.inkscape.org/namespaces/inkscape"
   width="16"
   height="16"
   id="svg1"
   sodipodi:version="0.32"
   inkscape:version="0.48.4 r9939"
   sodipodi:docname="turn.svg"
   version="1.1">
  <defs
     id="defs3" />
  <sodipodi:namedview
     id="base"
     pagecolor="#ffffff"
     bordercolor="#666666"
     borderopacity="1.0"
     inkscape:pageopacity="0.0"
     inkscape:pageshadow="2"
     inkscape:zoom="39.75"
     inkscape:cx="8"
     inkscape:cy="8"
     inkscape:current-layer="svg1"
     showborder="true"
     showgrid="true"
     gridtolerance="2.0000000pt"
     showguides="true"
     inkscape:guide-bbox="false"
     inkscape:window-width="1150"
     inkscape:window-height="816"
     inkscape:window-x="0"
     inkscape:window-y="0"
     inkscape:window-maximized="0">
    <inkscape:grid
       id="GridFromPre046Settings"
       type="xygrid"
       originx="0.0000000pt"
       originy="0.0000000pt"
       spacingx="2.0000000pt"
       spacingy="2.0000000pt"
       color="#3f3fff"
       empcolor="#3f3fff"
       opacity="0.15"
       empopacity="0.38"
       empspacing="5"
       units="pt"
       visible="true"
       enabled="true"
       snapvisiblegridlinesonly="true" />
  </sodipodi:namedview>
  <metadata
     id="metadata4">
    <rdf:RDF>
      <cc:Work
         rdf:about="">
        <dc:format>image/svg+xml</dc:format>
        <dc:type
           rdf:resource="http://purl.org/dc/dcmitype/StillImage" />
      </cc:Work>
    </rdf:RDF>
  </metadata>
  <g
     inkscape:label="Layer 1"
     inkscape:groupmode="layer"
     id="layer1"
     transform="translate(0,-24)" />
  <path
     d="M 3.5749288,11.250217 C 2.5652776,11.000811 1.7994555,10.25506 1.4117496,9.1437284 1.1578347,8.4158991 1.2082589,7.3035679 1.5251075,6.6431145 1.8712874,5.9215208 2.2779874,5.5044375 2.9657196,5.1657222 3.7728606,4.768197 4.4904851,4.6435401 5.2093229,4.7759912 c 0.9929493,0.1829582 1.8184602,0.709238 3.6565477,2.3311219 1.2166234,1.0735185 1.8598614,1.564498 2.4554154,1.8742005 0.399383,0.2076897 0.564068,0.2424895 1.157562,0.2446065 0.571844,0.00205 0.733473,-0.028269 0.931257,-0.1746356 0.409914,-0.3033478 0.620289,-0.6924945 0.620289,-1.1473967 0,-0.3505111 -0.04346,-0.4586354 -0.297223,-0.7395245 -0.163474,-0.1809439 -0.410042,-0.3757206 -0.547931,-0.4328366 -0.23413,-0.096981 -0.265529,-0.086234 -0.4748,0.1624675 -0.30718,0.3650631 -0.629522,0.5142117 -1.11132,0.5142117 -0.755981,0 -1.293752,-0.5744589 -1.293752,-1.3820169 0,-0.7465066 0.720527,-1.2752075 1.735523,-1.2734758 1.0547,0.00181 1.918813,0.6063203 2.440366,1.7072453 0.251216,0.5302834 0.268743,0.6280134 0.268743,1.498535 0,0.8568882 -0.01968,0.9713993 -0.246484,1.4339445 -0.64884,1.32328 -2.127977,2.07467 -3.596468,1.826979 C 9.8290399,11.037587 9.0576077,10.557248 7.1732462,8.8945335 5.9566242,7.8210152 5.3133855,7.3300357 4.7178331,7.0203335 4.3184504,6.8126439 4.1537638,6.7778441 3.5602698,6.7757273 2.9884263,6.7736756 2.8267975,6.8039975 2.6290139,6.9503627 2.2191004,7.25371 2.0087258,7.6428567 2.0087258,8.0977589 c 0,0.3505111 0.043456,0.4586357 0.2972226,0.7395245 0.1634726,0.1809445 0.410042,0.3757212 0.5479319,0.4328372 0.2341298,0.096981 0.2655281,0.086235 0.474798,-0.1624675 0.3071804,-0.3650632 0.6295229,-0.5142122 1.1113195,-0.5142122 0.7559812,0 1.2937512,0.5744594 1.2937512,1.3820171 0,0.452065 -0.2601442,0.817116 -0.7663202,1.075348 -0.3270627,0.166856 -1.0849382,0.275385 -1.3925,0.199411 z"
     id="path1833"
     inkscape:connector-curvature="0" />
</svg>
