<?xml version="1.0" encoding="UTF-8"?> <!DOCTYPE svg PUBLIC "-//W3C//DTD SVG 1.1//EN" "http://www.w3.org/Graphics/SVG/1.1/DTD/svg11.dtd"> <svg xmlns="http://www.w3.org/2000/svg" xmlns:xlink="http://www.w3.org/1999/xlink" xmlns:ev="http://www.w3.org/2001/xml-events" version="1.1" baseProfile="full" height="1000.0" width="1000.0"> <path glyph-name="accidentals.sharp.slashslashslash.stemstem" d="M215 -320c0 -9 -8 -17 -17 -17s-17 8 -17 17v145l-87 -28v-155c0 -9 -8 -17 -17 -17s-17 8 -17 17v144l-23 -7c-10 -3 -21 4 -21 15v45c0 7 5 13 12 15l32 11v66l-39 -12c-10 -3 -21 4 -21 15v55c0 7 4 13 11 15l49 16v66l-23 -7c-10 -3 -21 4 -21 15v45c0 7 5 13 12 15 l32 11v155c0 9 8 17 17 17s17 -8 17 -17v-145l87 28v155c0 9 8 17 17 17s17 -8 17 -17v-144l23 7c10 3 20 -4 20 -15v-45c0 -7 -4 -13 -11 -15l-32 -11v-66l39 12c10 3 21 -4 21 -15v-55c0 -7 -4 -13 -11 -15l-49 -16v-66l23 7c10 3 20 -4 20 -15v-45c0 -7 -4 -13 -11 -15 l-32 -11v-155zM181 -31l-87 -27v-67l87 28v66zM181 58v67l-87 -28v-66z" /> </svg>
