<?xml version="1.0" encoding="UTF-8"?> <!DOCTYPE svg PUBLIC "-//W3C//DTD SVG 1.1//EN" "http://www.w3.org/Graphics/SVG/1.1/DTD/svg11.dtd"> <svg xmlns="http://www.w3.org/2000/svg" xmlns:xlink="http://www.w3.org/1999/xlink" xmlns:ev="http://www.w3.org/2001/xml-events" version="1.1" baseProfile="full" height="1000.0" width="1000.0"> <path glyph-name="accidentals.flat.slashslash" d="M25 44l-1 -69c0 -4 -1 -7 -1 -11c0 -22 2 -44 4 -66c46 38 96 80 96 139c0 34 -14 69 -44 69c-31 0 -53 -29 -54 -62zM-22 324l-3 139c8 4 16 7 25 7s17 -3 25 -7l-2 -117l70 35c19 9 33 -20 14 -29l-85 -42l-1 -84l72 36c19 9 33 -20 14 -29l-87 -43l-1 -76 c26 19 56 30 88 30c53 0 93 -46 93 -100c0 -82 -90 -118 -153 -169c-14 -11 -22 -32 -40 -32c-12 0 -21 9 -21 21l-6 306l-73 -37c-10 -5 -23 2 -23 15c0 6 3 11 9 14l87 44l-2 82l-71 -36c-10 -5 -23 2 -23 15c0 6 3 11 9 14z" /> </svg>
