<?xml version="1.0" encoding="UTF-8"?> <!DOCTYPE svg PUBLIC "-//W3C//DTD SVG 1.1//EN" "http://www.w3.org/Graphics/SVG/1.1/DTD/svg11.dtd"> <svg xmlns="http://www.w3.org/2000/svg" xmlns:xlink="http://www.w3.org/1999/xlink" xmlns:ev="http://www.w3.org/2001/xml-events" version="1.1" baseProfile="full" height="1000.0" width="1000.0"> <path glyph-name="accidentals.sharp.slashslash.stem" d="M105 -320c0 -9 -8 -17 -17 -17s-18 8 -18 17v129l-46 -26c-2 -1 -5 -2 -8 -2c-8 0 -16 7 -16 16v65c0 6 3 11 8 14l62 34v161l-46 -26c-2 -1 -5 -2 -8 -2c-8 0 -16 7 -16 16v65c0 6 3 11 8 14l62 34v148c0 9 9 17 18 17s17 -8 17 -17v-129l46 26c2 1 5 2 8 2 c8 0 16 -7 16 -16v-65c0 -6 -3 -11 -8 -14l-62 -34v-161l46 26c2 1 5 2 8 2c8 0 16 -7 16 -16v-65c0 -6 -3 -11 -8 -14l-62 -34v-148z" /> </svg>
