<?xml version="1.0" encoding="UTF-8"?> <!DOCTYPE svg PUBLIC "-//W3C//DTD SVG 1.1//EN" "http://www.w3.org/Graphics/SVG/1.1/DTD/svg11.dtd"> <svg xmlns="http://www.w3.org/2000/svg" xmlns:xlink="http://www.w3.org/1999/xlink" xmlns:ev="http://www.w3.org/2001/xml-events" version="1.1" baseProfile="full" height="1000.0" width="1000.0"> <path glyph-name="accidentals.flat.arrowdown" d="M25 44l-1 -69c0 -4 -1 -7 -1 -11c0 -22 2 -44 4 -66c46 38 96 80 96 139c0 34 -14 69 -44 69c-31 0 -53 -29 -54 -62zM17 -168v-126c0 -13 5 -18 14 -18c18 0 49 20 77 36c7 4 15 -4 10 -11c-50 -71 -79 -153 -111 -233c-1 -3 -3 -4 -6 -4s-5 1 -6 4 c-32 80 -61 162 -111 233c-1 1 -1 3 -1 5c0 6 6 9 12 6c28 -16 59 -36 77 -36c9 0 14 5 14 18v158l-11 599c8 4 16 7 25 7s17 -3 25 -7l-6 -349c26 19 56 30 88 30c53 0 93 -46 93 -100c0 -82 -90 -118 -153 -169c-14 -12 -30 -24 -30 -43z" /> </svg>
