<?xml version="1.0" encoding="UTF-8"?> <!DOCTYPE svg PUBLIC "-//W3C//DTD SVG 1.1//EN" "http://www.w3.org/Graphics/SVG/1.1/DTD/svg11.dtd"> <svg xmlns="http://www.w3.org/2000/svg" xmlns:xlink="http://www.w3.org/1999/xlink" xmlns:ev="http://www.w3.org/2001/xml-events" version="1.1" baseProfile="full" height="1000.0" width="1000.0"> <path glyph-name="accidentals.leftparen" d="M-102 0c0 -86 12 -174 61 -244c2 -2 2 -4 2 -6c0 -6 -5 -11 -11 -11c-3 0 -7 2 -9 5c-53 76 -89 163 -89 256s36 180 89 256c2 3 6 5 9 5c6 0 11 -5 11 -11c0 -2 0 -4 -2 -6c-49 -70 -61 -158 -61 -244z" /> </svg>
