<?xml version="1.0" encoding="UTF-8"?> <!DOCTYPE svg PUBLIC "-//W3C//DTD SVG 1.1//EN" "http://www.w3.org/Graphics/SVG/1.1/DTD/svg11.dtd"> <svg xmlns="http://www.w3.org/2000/svg" xmlns:xlink="http://www.w3.org/1999/xlink" xmlns:ev="http://www.w3.org/2001/xml-events" version="1.1" baseProfile="full" height="1000.0" width="1000.0"> <path glyph-name="accidentals.vaticana0" d="M0 190c7 0 9 -19 9 -28v-110l83 46c1 6 3 17 8 17c7 0 9 -18 9 -27v-250c0 -9 -2 -28 -9 -28s-9 19 -9 28v110l-83 -46c-1 -6 -3 -17 -8 -17c-7 0 -9 18 -9 27v250c0 9 2 28 9 28zM91 43l-82 -46v-40l82 46v40z" /> </svg>
