<?xml version="1.0" encoding="UTF-8"?> <!DOCTYPE svg PUBLIC "-//W3C//DTD SVG 1.1//EN" "http://www.w3.org/Graphics/SVG/1.1/DTD/svg11.dtd"> <svg xmlns="http://www.w3.org/2000/svg" xmlns:xlink="http://www.w3.org/1999/xlink" xmlns:ev="http://www.w3.org/2001/xml-events" version="1.1" baseProfile="full" height="1000.0" width="1000.0"> <path glyph-name="accidentals.sharp.slashslashslash.stem" d="M136 -306c0 -9 -8 -17 -17 -17s-17 8 -17 17v110l-56 -23c-10 -4 -22 4 -22 15v45c0 6 4 12 10 14l68 28v61l-80 -32c-10 -4 -22 4 -22 15v64c0 6 4 12 10 14l92 37v62l-56 -23c-10 -4 -22 4 -22 15v45c0 6 4 12 10 14l68 28v123c0 9 8 17 17 17s17 -8 17 -17v-110l56 23 c10 4 22 -4 22 -15v-45c0 -6 -4 -12 -10 -14l-68 -28v-61l80 32c10 4 22 -4 22 -15v-64c0 -6 -4 -12 -10 -14l-92 -37v-62l56 23c10 4 22 -4 22 -15v-45c0 -6 -4 -12 -10 -14l-68 -28v-123z" /> </svg>
