<?xml version="1.0" encoding="UTF-8"?> <!DOCTYPE svg PUBLIC "-//W3C//DTD SVG 1.1//EN" "http://www.w3.org/Graphics/SVG/1.1/DTD/svg11.dtd"> <svg xmlns="http://www.w3.org/2000/svg" xmlns:xlink="http://www.w3.org/1999/xlink" xmlns:ev="http://www.w3.org/2001/xml-events" version="1.1" baseProfile="full" height="1000.0" width="1000.0"> <path glyph-name="accidentals.flat.arrowup" d="M25 44l-1 -69c0 -4 -1 -7 -1 -11c0 -22 2 -44 4 -66c46 38 96 80 96 139c0 34 -14 69 -44 69c-31 0 -53 -29 -54 -62zM-14 -136l-7 557c0 13 -5 18 -13 18c-17 0 -49 -22 -77 -38c-8 -4 -16 2 -16 9c0 2 1 4 2 6c49 70 85 149 117 229c1 4 5 5 8 5s7 -1 8 -5 c32 -80 68 -159 117 -229c7 -9 -4 -21 -14 -15c-28 16 -60 38 -77 38c-8 0 -13 -5 -13 -18l-4 -307c26 19 58 30 90 30c53 0 93 -46 93 -100c0 -82 -90 -118 -153 -169c-14 -11 -22 -32 -40 -32c-12 0 -21 9 -21 21z" /> </svg>
