<?xml version="1.0" encoding="UTF-8"?> <!DOCTYPE svg PUBLIC "-//W3C//DTD SVG 1.1//EN" "http://www.w3.org/Graphics/SVG/1.1/DTD/svg11.dtd"> <svg xmlns="http://www.w3.org/2000/svg" xmlns:xlink="http://www.w3.org/1999/xlink" xmlns:ev="http://www.w3.org/2001/xml-events" version="1.1" baseProfile="full" height="1000.0" width="1000.0"> <path glyph-name="accidentals.natural.arrowdown" d="M-7 375c7 4 16 6 24 6s16 -2 23 -6l-2 -175l109 17c1 0 2 1 3 1c9 0 17 -8 17 -17l3 -622c0 -13 5 -18 13 -18c17 0 49 22 77 38c8 4 15 -2 15 -9c0 -2 0 -4 -1 -6c-49 -70 -84 -149 -116 -229c-1 -4 -5 -5 -8 -5s-7 1 -8 5c-32 80 -66 159 -115 229c-6 9 3 21 13 15 c28 -16 60 -38 77 -38c8 0 13 5 13 18l1 222l-112 -18c-1 0 -1 -1 -2 -1c-9 0 -17 8 -17 17zM132 -98l1 212l-96 -15l-3 -213z" /> </svg>
