<?xml version="1.0" encoding="UTF-8"?> <!DOCTYPE svg PUBLIC "-//W3C//DTD SVG 1.1//EN" "http://www.w3.org/Graphics/SVG/1.1/DTD/svg11.dtd"> <svg xmlns="http://www.w3.org/2000/svg" xmlns:xlink="http://www.w3.org/1999/xlink" xmlns:ev="http://www.w3.org/2001/xml-events" version="1.1" baseProfile="full" height="1000.0" width="1000.0"> <path glyph-name="accidentals.mensural1" d="M-89 100c0 5 4 9 9 9c3 0 5 -2 7 -4l73 -91l14 17l-51 64c-1 2 -2 3 -2 5c0 5 4 9 9 9c3 0 5 -2 7 -4l48 -60l48 60c2 2 4 4 7 4c5 0 9 -4 9 -9c0 -2 -1 -3 -2 -5l-51 -64l14 -17l73 91c2 2 4 4 7 4c5 0 9 -4 9 -9c0 -2 -1 -3 -2 -5l-76 -95l76 -95c1 -2 2 -3 2 -5 c0 -5 -4 -9 -9 -9c-3 0 -5 2 -7 4l-73 91l-14 -17l51 -64c1 -2 2 -3 2 -5c0 -5 -4 -9 -9 -9c-3 0 -5 2 -7 4l-48 60l-48 -60c-2 -2 -4 -4 -7 -4c-5 0 -9 4 -9 9c0 2 1 3 2 5l51 64l-14 17l-73 -91c-2 -2 -4 -4 -7 -4c-5 0 -9 4 -9 9c0 2 1 3 2 5l76 95l-76 95 c-1 2 -2 3 -2 5zM25 -17l14 17l-14 17l-14 -17z" /> </svg>
