<?xml version="1.0" encoding="UTF-8"?> <!DOCTYPE svg PUBLIC "-//W3C//DTD SVG 1.1//EN" "http://www.w3.org/Graphics/SVG/1.1/DTD/svg11.dtd"> <svg xmlns="http://www.w3.org/2000/svg" xmlns:xlink="http://www.w3.org/1999/xlink" xmlns:ev="http://www.w3.org/2001/xml-events" version="1.1" baseProfile="full" height="1000.0" width="1000.0"> <path glyph-name="accidentals.sharp.slashslash.stemstemstem" d="M330 -304c0 -9 -8 -17 -17 -17s-18 8 -18 17v147l-78 -19v-155c0 -9 -8 -17 -17 -17s-17 8 -17 17v147l-78 -19v-155c0 -9 -8 -17 -17 -17s-18 8 -18 17v147l-50 -13c-10 -2 -20 6 -20 16v65c0 7 5 13 12 15l58 14v165l-50 -12c-10 -2 -20 5 -20 15v65c0 7 5 14 12 16 l58 14v155c0 9 9 17 18 17s17 -8 17 -17v-147l78 19v155c0 9 8 17 17 17s17 -8 17 -17v-147l78 19v155c0 9 9 17 18 17s17 -8 17 -17v-147l50 13c10 2 20 -6 20 -16v-65c0 -7 -5 -13 -12 -15l-58 -14v-165l50 12c10 2 20 -5 20 -15v-65c0 -7 -5 -14 -12 -16l-58 -14v-155z M295 106l-78 -19v-165l78 19v165zM183 78l-78 -19v-165l78 19v165z" /> </svg>
