<?xml version="1.0" encoding="UTF-8"?> <!DOCTYPE svg PUBLIC "-//W3C//DTD SVG 1.1//EN" "http://www.w3.org/Graphics/SVG/1.1/DTD/svg11.dtd"> <svg xmlns="http://www.w3.org/2000/svg" xmlns:xlink="http://www.w3.org/1999/xlink" xmlns:ev="http://www.w3.org/2001/xml-events" version="1.1" baseProfile="full" height="1000.0" width="1000.0"> <path glyph-name="accidentals.sharp.arrowboth" d="M215 -316c0 -9 -8 -17 -17 -17s-17 8 -17 17v151l-87 -31v-224c0 -13 5 -18 14 -18c17 0 49 21 77 37c8 5 17 -5 12 -13c-49 -71 -81 -151 -113 -231c-1 -3 -4 -5 -7 -5s-5 2 -6 5c-32 80 -64 160 -113 231c-1 2 -2 4 -2 6c0 6 8 11 14 7c28 -16 59 -37 76 -37 c9 0 14 5 14 18v212l-39 -13c-10 -4 -21 4 -21 15v64c0 7 5 13 11 15l49 18v164l-39 -14c-10 -4 -21 4 -21 15v65c0 7 5 13 11 15l49 17v163c0 9 8 17 17 17s17 -8 17 -17v-151l87 31v224c0 13 -5 18 -14 18c-17 0 -49 -21 -77 -37c-8 -5 -17 5 -12 13c49 71 81 151 113 231 c1 3 4 5 7 5s5 -2 6 -5c32 -80 64 -160 113 -231c1 -2 2 -4 2 -6c0 -6 -8 -11 -14 -7c-28 16 -59 37 -76 37c-9 0 -14 -5 -14 -18v-212l39 13c10 4 21 -4 21 -15v-64c0 -7 -5 -13 -11 -15l-49 -18v-164l39 14c10 4 21 -4 21 -15v-65c0 -7 -5 -13 -11 -15l-49 -17v-163z M181 97l-87 -30v-164l87 30v164z" /> </svg>
