<?xml version="1.0" encoding="UTF-8"?> <!DOCTYPE svg PUBLIC "-//W3C//DTD SVG 1.1//EN" "http://www.w3.org/Graphics/SVG/1.1/DTD/svg11.dtd"> <svg xmlns="http://www.w3.org/2000/svg" xmlns:xlink="http://www.w3.org/1999/xlink" xmlns:ev="http://www.w3.org/2001/xml-events" version="1.1" baseProfile="full" height="1000.0" width="1000.0"> <path glyph-name="accidentals.doublesharp" d="M150 0c23 -23 58 -28 91 -28c4 0 8 -4 8 -8l9 -89c0 -4 -3 -8 -7 -8h-1l-89 9c-4 0 -8 4 -8 8c0 33 -5 68 -28 91c-23 -23 -28 -58 -28 -91c0 -4 -4 -8 -8 -8l-89 -9h-1c-4 0 -7 4 -7 8l9 89c0 4 4 8 8 8c33 0 68 5 91 28c-23 23 -58 28 -91 28c-4 0 -8 4 -8 8l-9 89 c0 4 3 8 7 8h1l89 -9c4 0 8 -4 8 -8c0 -33 5 -68 28 -91c23 23 28 58 28 91c0 4 4 8 8 8l89 9h1c4 0 7 -4 7 -8l-9 -89c0 -4 -4 -8 -8 -8c-33 0 -68 -5 -91 -28z" /> </svg>
