<?xml version="1.0" encoding="UTF-8"?> <!DOCTYPE svg PUBLIC "-//W3C//DTD SVG 1.1//EN" "http://www.w3.org/Graphics/SVG/1.1/DTD/svg11.dtd"> <svg xmlns="http://www.w3.org/2000/svg" xmlns:xlink="http://www.w3.org/1999/xlink" xmlns:ev="http://www.w3.org/2001/xml-events" version="1.1" baseProfile="full" height="1000.0" width="1000.0"> <path glyph-name="accidentals.natural.arrowup" d="M147 217c1 0 2 1 3 1c9 0 17 -8 17 -17l6 -576c-7 -4 -15 -6 -23 -6s-16 2 -23 6l2 175l-110 -17c-1 0 -1 -1 -2 -1c-9 0 -17 8 -17 17l-3 622c0 13 -6 18 -14 18c-17 0 -48 -22 -76 -38c-8 -4 -16 2 -16 9c0 2 1 4 2 6c49 70 84 149 116 229c1 4 5 5 8 5s7 -1 8 -5 c32 -80 66 -159 115 -229c6 -9 -3 -21 -13 -15c-28 16 -60 38 -77 38c-8 0 -13 -5 -13 -18l-1 -222zM130 -99l2 213l-97 -16l-1 -212z" /> </svg>
