<?xml version="1.0" encoding="UTF-8"?> <!DOCTYPE svg PUBLIC "-//W3C//DTD SVG 1.1//EN" "http://www.w3.org/Graphics/SVG/1.1/DTD/svg11.dtd"> <svg xmlns="http://www.w3.org/2000/svg" xmlns:xlink="http://www.w3.org/1999/xlink" xmlns:ev="http://www.w3.org/2001/xml-events" version="1.1" baseProfile="full" height="1000.0" width="1000.0"> <path glyph-name="accidentals.vaticanaM1" d="M0 228c5 0 5 -21 5 -28v-193c0 -10 78 -52 101 -52c8 0 14 3 14 12v13c0 34 -61 39 -83 58c-4 4 -5 18 -5 27c0 7 0 27 5 27h1c34 -30 92 -22 92 -85v-67c0 -23 -4 -38 -25 -38c-31 0 -105 40 -109 59c-1 5 -1 12 -1 19v220c0 7 0 28 5 28z" /> </svg>
