<?xml version="1.0" encoding="UTF-8"?> <!DOCTYPE svg PUBLIC "-//W3C//DTD SVG 1.1//EN" "http://www.w3.org/Graphics/SVG/1.1/DTD/svg11.dtd"> <svg xmlns="http://www.w3.org/2000/svg" xmlns:xlink="http://www.w3.org/1999/xlink" xmlns:ev="http://www.w3.org/2001/xml-events" version="1.1" baseProfile="full" height="1000.0" width="1000.0"> <path glyph-name="accidentals.mirroredflat" d="M149 44c-1 33 -23 62 -54 62c-30 0 -44 -35 -44 -69c0 -59 50 -101 96 -139c2 22 4 44 4 66c0 4 -1 7 -1 11zM188 -136c0 -12 -9 -21 -21 -21c-18 0 -26 21 -40 32c-63 51 -153 87 -153 169c0 54 40 100 93 100c32 0 62 -11 88 -30l-6 349c8 4 16 7 25 7s17 -3 25 -7z " /> </svg>
