<?xml version="1.0" encoding="UTF-8"?> <!DOCTYPE svg PUBLIC "-//W3C//DTD SVG 1.1//EN" "http://www.w3.org/Graphics/SVG/1.1/DTD/svg11.dtd"> <svg xmlns="http://www.w3.org/2000/svg" xmlns:xlink="http://www.w3.org/1999/xlink" xmlns:ev="http://www.w3.org/2001/xml-events" version="1.1" baseProfile="full" height="1000.0" width="1000.0"> <path glyph-name="accidentals.mirroredflat.flat" d="M207 -157h-14c-18 0 -26 21 -40 32c-63 51 -153 87 -153 169c0 54 40 100 93 100c32 0 62 -11 88 -30l-6 349c8 4 16 7 25 7s17 -3 25 -7l-6 -349c26 19 56 30 88 30c53 0 93 -46 93 -100c0 -82 -90 -118 -153 -169c-14 -11 -22 -32 -40 -32zM175 44c-1 33 -23 62 -54 62 c-30 0 -44 -35 -44 -69c0 -59 50 -101 96 -139c2 22 4 44 4 66c0 4 -1 7 -1 11zM225 44l-1 -69c0 -4 -1 -7 -1 -11c0 -22 2 -44 4 -66c46 38 96 80 96 139c0 34 -14 69 -44 69c-31 0 -53 -29 -54 -62z" /> </svg>
