<?xml version="1.0" encoding="UTF-8"?> <!DOCTYPE svg PUBLIC "-//W3C//DTD SVG 1.1//EN" "http://www.w3.org/Graphics/SVG/1.1/DTD/svg11.dtd"> <svg xmlns="http://www.w3.org/2000/svg" xmlns:xlink="http://www.w3.org/1999/xlink" xmlns:ev="http://www.w3.org/2001/xml-events" version="1.1" baseProfile="full" height="1000.0" width="1000.0"> <path glyph-name="accidentals.mensuralM1" d="M8 462c2 0 4 -2 4 -4v-378c60 25 118 -11 118 -72c0 -52 -42 -97 -94 -97c-13 0 -48 6 -48 18v513c0 8 12 20 20 20zM35 66c-8 0 -17 -3 -23 -6v-112c10 -7 24 -14 40 -14c34 0 55 24 55 58c0 42 -30 74 -72 74z" /> </svg>
