<?xml version="1.0" encoding="UTF-8"?> <!DOCTYPE svg PUBLIC "-//W3C//DTD SVG 1.1//EN" "http://www.w3.org/Graphics/SVG/1.1/DTD/svg11.dtd"> <svg xmlns="http://www.w3.org/2000/svg" xmlns:xlink="http://www.w3.org/1999/xlink" xmlns:ev="http://www.w3.org/2001/xml-events" version="1.1" baseProfile="full" height="1000.0" width="1000.0"> <path glyph-name="accidentals.medicaeaM1" d="M82 128c36 0 68 -33 68 -64c0 -53 -68 -115 -100 -178c-5 -10 -32 -23 -46 -24c-1 -5 -2 -12 -4 -12c-5 0 -5 20 -5 27v345c0 7 0 28 5 28s5 -21 5 -28v-129c22 21 51 35 77 35zM46 99c-15 0 -28 -11 -41 -12v-210v-6c32 60 95 117 95 168c0 24 -22 60 -54 60z" /> </svg>
