<?xml version="1.0" encoding="UTF-8"?> <!DOCTYPE svg PUBLIC "-//W3C//DTD SVG 1.1//EN" "http://www.w3.org/Graphics/SVG/1.1/DTD/svg11.dtd"> <svg xmlns="http://www.w3.org/2000/svg" xmlns:xlink="http://www.w3.org/1999/xlink" xmlns:ev="http://www.w3.org/2001/xml-events" version="1.1" baseProfile="full" height="1000.0" width="1000.0"> <path glyph-name="accidentals.natural" d="M-7 375c7 4 16 6 24 6s16 -2 23 -6l-2 -175l109 17c1 0 2 1 3 1c9 0 17 -8 17 -17l6 -576c-7 -4 -15 -6 -23 -6s-16 2 -23 6l2 175l-110 -17c-1 0 -1 -1 -2 -1c-9 0 -17 8 -17 17zM130 -99l2 213l-95 -15l-3 -213z" /> </svg>
