<?xml version="1.0" encoding="UTF-8"?> <!DOCTYPE svg PUBLIC "-//W3C//DTD SVG 1.1//EN" "http://www.w3.org/Graphics/SVG/1.1/DTD/svg11.dtd"> <svg xmlns="http://www.w3.org/2000/svg" xmlns:xlink="http://www.w3.org/1999/xlink" xmlns:ev="http://www.w3.org/2001/xml-events" version="1.1" baseProfile="full" height="1000.0" width="1000.0"> <path glyph-name="accidentals.flatflat" d="M187 44l-1 -69v-11c0 -22 2 -44 4 -66c45 37 89 81 89 139c0 34 -12 69 -41 69c-30 0 -50 -30 -51 -62zM149 -136l-2 106c-28 -35 -71 -63 -105 -95c-12 -11 -18 -32 -35 -32c-12 0 -21 9 -21 21l-11 599c8 4 16 7 25 7s17 -3 25 -7l-6 -349c18 19 42 30 68 30 c22 0 42 -9 57 -23l-7 342c8 4 16 7 25 7s18 -3 26 -7l-7 -349c24 19 55 30 86 30c54 0 95 -45 95 -99c0 -82 -90 -118 -153 -170c-14 -11 -21 -32 -39 -32c-12 0 -21 9 -21 21zM17 44l-1 -69v-11c0 -23 1 -45 4 -68c40 38 72 86 72 141c0 33 -6 69 -34 69 c-27 0 -40 -31 -41 -62z" /> </svg>
