<?xml version="1.0" encoding="UTF-8"?> <!DOCTYPE svg PUBLIC "-//W3C//DTD SVG 1.1//EN" "http://www.w3.org/Graphics/SVG/1.1/DTD/svg11.dtd"> <svg xmlns="http://www.w3.org/2000/svg" xmlns:xlink="http://www.w3.org/1999/xlink" xmlns:ev="http://www.w3.org/2001/xml-events" version="1.1" baseProfile="full" height="1000.0" width="1000.0"> <path glyph-name="accidentals.hufnagelM1" d="M58 56l-40 -20v-55l63 -38c6 1 12 4 17 7c24 44 -7 93 -40 106zM18 469c1 0 1 0 1 -1l-1 -411l72 36c25 12 54 -48 54 -73c0 -42 -28 -68 -51 -88c-10 -9 -31 -27 -49 -25l-62 37l-1 1v487c0 9 28 37 37 37z" /> </svg>
