<?xml version="1.0" encoding="UTF-8"?> <!DOCTYPE svg PUBLIC "-//W3C//DTD SVG 1.1//EN" "http://www.w3.org/Graphics/SVG/1.1/DTD/svg11.dtd"> <svg xmlns="http://www.w3.org/2000/svg" xmlns:xlink="http://www.w3.org/1999/xlink" xmlns:ev="http://www.w3.org/2001/xml-events" version="1.1" baseProfile="full" height="1000.0" width="1000.0"> <path glyph-name="accidentals.flat.arrowboth" d="M25 44l-1 -69c0 -4 -1 -7 -1 -11c0 -22 2 -44 4 -66c46 38 96 80 96 139c0 34 -14 69 -44 69c-31 0 -53 -29 -54 -62zM17 -168v-126c0 -13 5 -18 14 -18c18 0 49 20 77 36c7 4 15 -4 10 -11c-50 -71 -79 -153 -111 -233c-1 -3 -3 -4 -6 -4s-5 1 -6 4 c-32 80 -61 162 -111 233c-5 7 4 15 11 11c28 -16 59 -36 77 -36c9 0 14 5 14 18v158l-7 557c0 13 -5 18 -13 18c-17 0 -49 -22 -77 -38c-8 -4 -16 2 -16 9c0 2 1 4 2 6c49 70 85 149 117 229c1 4 5 5 8 5s7 -1 8 -5c32 -80 68 -159 117 -229c7 -9 -4 -21 -14 -15 c-28 16 -60 38 -77 38c-8 0 -13 -5 -13 -18l-4 -307c26 19 58 30 90 30c53 0 93 -46 93 -100c0 -82 -90 -118 -153 -169c-14 -12 -30 -24 -30 -43z" /> </svg>
