<?xml version="1.0" encoding="UTF-8"?>
<!DOCTYPE svg PUBLIC "-//W3C//DTD SVG 1.1//EN" "http://www.w3.org/Graphics/SVG/1.1/DTD/svg11.dtd">
 
<svg xmlns="http://www.w3.org/2000/svg"
     xmlns:xlink="http://www.w3.org/1999/xlink" xmlns:ev="http://www.w3.org/2001/xml-events"
     version="1.1" baseProfile="full"
height="1000.0"
width="1000.0"
> 
     
<path glyph-name="rests.2"
d="M63 394c4 2 8 2 12 1c3 -2 158 -186 162 -194c7 -13 5 -26 -5 -42c-8 -11 -24 -27 -54 -52c-15 -12 -29 -25 -32 -28c-31 -33 -38 -83 -20 -121c6 -13 9 -16 44 -56c64 -75 61 -72 61 -78s-6 -12 -12 -13c-5 0 -9 2 -16 9c-25 25 -82 43 -113 36c-15 -3 -23 -9 -30 -23
c-4 -10 -7 -22 -8 -38c-1 -22 3 -45 10 -67c5 -14 8 -22 15 -32c6 -8 6 -11 1 -14c-4 -2 -6 -1 -15 10c-36 46 -69 112 -80 161c-9 35 -5 59 9 69c7 4 14 5 29 5c29 -2 70 -13 110 -30l13 -6l-55 65c-84 99 -87 103 -90 109c-3 8 -4 16 -1 25c5 16 19 32 61 67
c15 12 28 24 31 26c23 25 34 60 30 93c-2 11 -7 28 -13 37c-3 5 -15 20 -27 35c-12 14 -23 27 -24 29c-3 6 0 14 7 17z"

 />
</svg>
 
