<?xml version="1.0" encoding="UTF-8"?> <!DOCTYPE svg PUBLIC "-//W3C//DTD SVG 1.1//EN" "http://www.w3.org/Graphics/SVG/1.1/DTD/svg11.dtd"> <svg xmlns="http://www.w3.org/2000/svg" xmlns:xlink="http://www.w3.org/1999/xlink" xmlns:ev="http://www.w3.org/2001/xml-events" version="1.1" baseProfile="full" height="1000.0" width="1000.0"> <path glyph-name="accordion.oldEE" d="M236 260c0 132 -105 240 -236 240s-236 -108 -236 -240s105 -240 236 -240s236 108 236 240zM264 260c0 -144 -119 -260 -264 -260s-264 116 -264 260s119 260 264 260s264 -116 264 -260zM59 366c0 26 21 47 47 47s47 -21 47 -47s-21 -47 -47 -47c-7 0 -14 1 -20 4 l-52 -44c1 -3 3 -5 4 -8l68 5c7 18 24 31 44 31c26 0 47 -21 47 -47s-21 -47 -47 -47c-20 0 -37 13 -44 31l-68 5c-1 -3 -3 -5 -4 -8l52 -44c6 3 13 4 20 4c26 0 47 -21 47 -47s-21 -47 -47 -47s-47 21 -47 47c0 7 1 14 4 20l-44 52c-3 -1 -5 -3 -8 -4l5 -68 c18 -7 31 -24 31 -44c0 -26 -21 -47 -47 -47s-47 21 -47 47c0 20 13 37 31 44l5 68c-3 1 -5 3 -8 4l-44 -52c3 -6 4 -13 4 -20c0 -26 -21 -47 -47 -47s-47 21 -47 47s21 47 47 47c7 0 14 -1 20 -4l52 44c-1 3 -3 5 -4 8l-68 -5c-7 -18 -24 -31 -44 -31c-26 0 -47 21 -47 47 s21 47 47 47c20 0 37 -13 44 -31l68 -5c1 3 3 5 4 8l-52 44c-6 -3 -13 -4 -20 -4c-26 0 -47 21 -47 47s21 47 47 47s47 -21 47 -47c0 -7 -1 -14 -4 -20l44 -52c3 1 5 3 8 4l-5 68c-18 7 -31 24 -31 44c0 26 21 47 47 47s47 -21 47 -47c0 -20 -13 -37 -31 -44l-5 -68 c3 -1 5 -3 8 -4l44 52c-3 6 -4 13 -4 20z" /> </svg>
