<?xml version="1.0" encoding="UTF-8"?> <!DOCTYPE svg PUBLIC "-//W3C//DTD SVG 1.1//EN" "http://www.w3.org/Graphics/SVG/1.1/DTD/svg11.dtd"> <svg xmlns="http://www.w3.org/2000/svg" xmlns:xlink="http://www.w3.org/1999/xlink" xmlns:ev="http://www.w3.org/2001/xml-events" version="1.1" baseProfile="full" height="1000.0" width="1000.0"> <path glyph-name="accordion.discant" d="M389 385c0 -213 -175 -385 -389 -385s-389 172 -389 385s175 385 389 385s389 -172 389 -385zM336 250h-672c53 -135 183 -230 336 -230s283 95 336 230zM343 270c12 36 18 75 18 115s-6 79 -18 115h-686c-12 -36 -18 -75 -18 -115s6 -79 18 -115h686zM-336 520h672 c-53 135 -183 230 -336 230s-283 -95 -336 -230z" /> </svg>
