<?xml version="1.0" encoding="UTF-8"?> <!DOCTYPE svg PUBLIC "-//W3C//DTD SVG 1.1//EN" "http://www.w3.org/Graphics/SVG/1.1/DTD/svg11.dtd"> <svg xmlns="http://www.w3.org/2000/svg" xmlns:xlink="http://www.w3.org/1999/xlink" xmlns:ev="http://www.w3.org/2001/xml-events" version="1.1" baseProfile="full" height="1000.0" width="1000.0"> <path glyph-name="accordion.stdbass" d="M514 510c0 -282 -231 -510 -514 -510s-514 228 -514 510s231 510 514 510s514 -228 514 -510zM412 250h-824c86 -138 238 -230 412 -230s326 92 412 230zM424 270c38 68 60 147 62 230h-972c2 -83 24 -162 62 -230h848zM-424 750c-38 -68 -60 -147 -62 -230h972 c-2 83 -24 162 -62 230h-848zM-412 770h824c-86 138 -238 230 -412 230s-326 -92 -412 -230z" /> </svg>
