<?xml version="1.0" encoding="UTF-8"?> <!DOCTYPE svg PUBLIC "-//W3C//DTD SVG 1.1//EN" "http://www.w3.org/Graphics/SVG/1.1/DTD/svg11.dtd"> <svg xmlns="http://www.w3.org/2000/svg" xmlns:xlink="http://www.w3.org/1999/xlink" xmlns:ev="http://www.w3.org/2001/xml-events" version="1.1" baseProfile="full" height="1000.0" width="1000.0"> <path glyph-name="arrowheads.close.01" d="M-242 -125c-4 0 -8 4 -8 8v1c7 38 11 77 11 116s-11 78 -11 117c0 4 4 8 8 8c2 0 4 -1 6 -3c38 -48 175 -114 236 -114c5 0 8 -4 8 -8s-3 -8 -8 -8c-61 0 -198 -66 -236 -114c-2 -2 -4 -3 -6 -3z" /> </svg>
