<?xml version="1.0" encoding="UTF-8"?> <!DOCTYPE svg PUBLIC "-//W3C//DTD SVG 1.1//EN" "http://www.w3.org/Graphics/SVG/1.1/DTD/svg11.dtd"> <svg xmlns="http://www.w3.org/2000/svg" xmlns:xlink="http://www.w3.org/1999/xlink" xmlns:ev="http://www.w3.org/2001/xml-events" version="1.1" baseProfile="full" height="1000.0" width="1000.0"> <path glyph-name="arrowheads.open.0M1" d="M250 108c0 -4 -1 -8 -4 -11c-38 -45 -88 -78 -142 -97c54 -19 104 -52 142 -97c3 -3 4 -7 4 -11c0 -9 -7 -17 -17 -17c-5 0 -10 2 -13 6c-55 64 -135 102 -220 102c-12 0 -17 8 -17 17s5 17 17 17c85 0 165 38 220 102c3 4 8 6 13 6c10 0 17 -8 17 -17z" /> </svg>
