<?xml version="1.0" encoding="UTF-8"?> <!DOCTYPE svg PUBLIC "-//W3C//DTD SVG 1.1//EN" "http://www.w3.org/Graphics/SVG/1.1/DTD/svg11.dtd"> <svg xmlns="http://www.w3.org/2000/svg" xmlns:xlink="http://www.w3.org/1999/xlink" xmlns:ev="http://www.w3.org/2001/xml-events" version="1.1" baseProfile="full" height="1000.0" width="1000.0"> <path glyph-name="arrowheads.open.1M1" d="M-108 250c4 0 8 -1 11 -4c45 -38 78 -88 97 -142c19 54 52 104 97 142c3 3 7 4 11 4c9 0 17 -7 17 -17c0 -5 -2 -10 -6 -13c-64 -55 -102 -135 -102 -220c0 -12 -8 -17 -17 -17s-17 5 -17 17c0 85 -38 165 -102 220c-4 3 -6 8 -6 13c0 10 8 17 17 17z" /> </svg>
