<?xml version="1.0" encoding="UTF-8"?> <!DOCTYPE svg PUBLIC "-//W3C//DTD SVG 1.1//EN" "http://www.w3.org/Graphics/SVG/1.1/DTD/svg11.dtd"> <svg xmlns="http://www.w3.org/2000/svg" xmlns:xlink="http://www.w3.org/1999/xlink" xmlns:ev="http://www.w3.org/2001/xml-events" version="1.1" baseProfile="full" height="1000.0" width="1000.0"> <path glyph-name="arrowheads.close.1M1" d="M-125 242c0 4 4 8 8 8h1c38 -7 77 -11 116 -11s78 4 116 11h1c4 0 8 -4 8 -8c0 -2 -1 -4 -3 -6c-48 -38 -114 -175 -114 -236c0 -5 -4 -8 -8 -8s-8 3 -8 8c0 61 -66 198 -114 236c-2 2 -3 4 -3 6z" /> </svg>
