<?xml version="1.0" encoding="UTF-8"?> <!DOCTYPE svg PUBLIC "-//W3C//DTD SVG 1.1//EN" "http://www.w3.org/Graphics/SVG/1.1/DTD/svg11.dtd"> <svg xmlns="http://www.w3.org/2000/svg" xmlns:xlink="http://www.w3.org/1999/xlink" xmlns:ev="http://www.w3.org/2001/xml-events" version="1.1" baseProfile="full" height="1000.0" width="1000.0"> <path glyph-name="clefs.mensural.f" d="M273 -80l25 -25c2 -2 2 -4 2 -7c0 -13 -29 -52 -45 -36l-25 25c-15 15 28 58 43 43zM273 148l25 -25c2 -2 2 -4 2 -7c0 -13 -29 -52 -45 -36l-25 25c-15 15 28 58 43 43zM0 -164c0 17 21 38 38 38c64 0 112 47 112 111c0 77 -64 141 -141 141c-6 0 -9 4 -9 10 c0 17 21 38 38 38c88 0 159 -72 159 -160c0 -98 -90 -188 -188 -188c-6 0 -9 4 -9 10z" /> </svg>
