<?xml version="1.0" encoding="UTF-8"?> <!DOCTYPE svg PUBLIC "-//W3C//DTD SVG 1.1//EN" "http://www.w3.org/Graphics/SVG/1.1/DTD/svg11.dtd"> <svg xmlns="http://www.w3.org/2000/svg" xmlns:xlink="http://www.w3.org/1999/xlink" xmlns:ev="http://www.w3.org/2001/xml-events" version="1.1" baseProfile="full" height="1000.0" width="1000.0"> <path glyph-name="clefs.C_change" d="M258 0c0 -26 5 -58 35 -58c24 0 45 26 70 26c98 0 183 -73 183 -168c0 -135 -73 -200 -210 -200c-66 0 -122 49 -122 113c0 34 27 61 61 61s61 -27 61 -61c0 -31 -38 -30 -38 -61c0 -18 18 -29 38 -29c92 0 110 72 110 177c0 85 -9 145 -83 145c-57 0 -94 -58 -94 -119 c0 -8 -5 -11 -11 -11s-12 3 -12 11c0 60 -24 117 -66 159v-377c0 -4 -4 -8 -8 -8h-18c-4 0 -8 4 -8 8v784c0 4 4 8 8 8h18c4 0 8 -4 8 -8v-377c42 42 66 99 66 159c0 8 6 11 12 11s11 -3 11 -11c0 -61 37 -119 94 -119c74 0 83 60 83 145c0 105 -18 177 -110 177 c-20 0 -38 -11 -38 -29c0 -31 38 -30 38 -61c0 -34 -27 -61 -61 -61s-61 27 -61 61c0 64 56 113 122 113c137 0 210 -65 210 -200c0 -95 -85 -168 -183 -168c-25 0 -46 26 -70 26c-30 0 -35 -32 -35 -58zM103 -400h-95c-4 0 -8 4 -8 8v784c0 4 4 8 8 8h95c4 0 8 -4 8 -8 v-784c0 -4 -4 -8 -8 -8z" /> </svg>
