<?xml version="1.0" encoding="UTF-8"?> <!DOCTYPE svg PUBLIC "-//W3C//DTD SVG 1.1//EN" "http://www.w3.org/Graphics/SVG/1.1/DTD/svg11.dtd"> <svg xmlns="http://www.w3.org/2000/svg" xmlns:xlink="http://www.w3.org/1999/xlink" xmlns:ev="http://www.w3.org/2001/xml-events" version="1.1" baseProfile="full" height="1000.0" width="1000.0"> <path glyph-name="clefs.mensural.f_change" d="M218 -64l20 -20c1 -1 2 -4 2 -6c0 -11 -23 -41 -36 -28l-20 20c-12 12 22 46 34 34zM218 118l20 -20c1 -1 2 -3 2 -5c0 -11 -23 -42 -36 -29l-20 20c-12 12 22 46 34 34zM0 -131c0 13 17 30 30 30c51 0 90 37 90 89c0 61 -52 113 -113 113c-5 0 -7 3 -7 8 c0 13 17 30 30 30c70 0 128 -58 128 -128c0 -79 -72 -150 -151 -150c-5 0 -7 3 -7 8z" /> </svg>
