<?xml version="1.0" encoding="UTF-8"?> <!DOCTYPE svg PUBLIC "-//W3C//DTD SVG 1.1//EN" "http://www.w3.org/Graphics/SVG/1.1/DTD/svg11.dtd"> <svg xmlns="http://www.w3.org/2000/svg" xmlns:xlink="http://www.w3.org/1999/xlink" xmlns:ev="http://www.w3.org/2001/xml-events" version="1.1" baseProfile="full" height="1000.0" width="1000.0"> <path glyph-name="clefs.mensural.g" d="M283 328c0 -62 -28 -115 -46 -163c30 2 55 -6 74 -19c10 -7 -39 -73 -48 -67c-13 9 -26 14 -43 17c0 -4 -1 -9 -1 -14c0 -21 4 -41 13 -59c4 4 12 11 15 11h75c2 0 2 -1 2 -3c0 -19 3 -39 3 -58c0 -46 -19 -72 -41 -100c-18 -23 -39 -45 -78 -45c-57 0 -94 41 -113 80 c-9 20 -14 41 -14 63c0 27 8 53 19 77c23 49 61 99 118 114c14 36 32 78 32 124c0 60 -25 104 -47 144l-36 62c-14 -17 -29 -34 -45 -49l-39 -36c-32 -31 -70 -72 -70 -133c0 -50 29 -88 69 -101c6 -2 -23 -49 -31 -46c-41 13 -71 54 -71 105c0 59 32 106 60 143 c18 24 38 47 60 68l38 36c8 8 16 16 23 24l-19 34c-33 62 -69 134 -69 224c0 55 18 92 42 128c20 30 46 62 93 62c60 0 83 -50 83 -110c0 -52 -13 -96 -25 -139c-16 -61 -37 -117 -67 -165l36 -62c23 -41 48 -86 48 -147zM178 906c-60 0 -72 -49 -72 -108 c0 -87 36 -157 68 -217l18 -32c28 53 45 117 58 182c5 23 9 44 9 69c0 57 -24 106 -81 106zM186 41c0 21 4 38 9 56c-25 -2 -44 -10 -59 -23c-4 -11 -6 -24 -6 -36c0 -74 50 -142 124 -142c8 0 16 1 24 4v8c0 19 -2 39 -3 58h-73c-3 0 -3 5 0 11c-9 -3 -16 57 -16 64z" /> </svg>
