<?xml version="1.0" encoding="UTF-8"?> <!DOCTYPE svg PUBLIC "-//W3C//DTD SVG 1.1//EN" "http://www.w3.org/Graphics/SVG/1.1/DTD/svg11.dtd"> <svg xmlns="http://www.w3.org/2000/svg" xmlns:xlink="http://www.w3.org/1999/xlink" xmlns:ev="http://www.w3.org/2001/xml-events" version="1.1" baseProfile="full" height="1000.0" width="1000.0"> <path glyph-name="clefs.vaticana.do_change" d="M76 50c-34 0 -63 -21 -63 -50s29 -50 63 -50c15 0 30 5 42 14h1c6 0 6 -60 6 -75c0 -20 3 -69 -6 -75c-12 -9 -27 -14 -42 -14c-68 0 -77 62 -77 131v138c0 69 8 131 77 131c15 0 30 -5 42 -14c9 -6 6 -55 6 -75c0 -15 0 -75 -6 -75h-1c-12 9 -27 14 -42 14z" /> </svg>
