<?xml version="1.0" encoding="UTF-8"?> <!DOCTYPE svg PUBLIC "-//W3C//DTD SVG 1.1//EN" "http://www.w3.org/Graphics/SVG/1.1/DTD/svg11.dtd"> <svg xmlns="http://www.w3.org/2000/svg" xmlns:xlink="http://www.w3.org/1999/xlink" xmlns:ev="http://www.w3.org/2001/xml-events" version="1.1" baseProfile="full" height="1000.0" width="1000.0"> <path glyph-name="clefs.medicaea.fa" d="M425 -188c0 -16 -2 -62 -11 -62h-1l-216 119v-233c0 -6 -5 -11 -11 -11s-11 5 -11 11v728c0 6 5 11 11 11s11 -5 11 -11v-120l218 -119c10 -5 10 -44 10 -63c0 -16 -2 -62 -11 -62h-1l-216 119v-125l218 -119c10 -5 10 -44 10 -63zM100 125c10 0 11 -100 11 -125v-364 c0 -6 -5 -11 -11 -11s-11 5 -11 11v239h-78c-10 0 -11 100 -11 125c0 26 1 125 11 125h89z" /> </svg>
