<?xml version="1.0" encoding="UTF-8"?> <!DOCTYPE svg PUBLIC "-//W3C//DTD SVG 1.1//EN" "http://www.w3.org/Graphics/SVG/1.1/DTD/svg11.dtd"> <svg xmlns="http://www.w3.org/2000/svg" xmlns:xlink="http://www.w3.org/1999/xlink" xmlns:ev="http://www.w3.org/2001/xml-events" version="1.1" baseProfile="full" height="1000.0" width="1000.0"> <path glyph-name="clefs.C" d="M312 0c0 -33 7 -74 46 -74c29 0 57 29 88 29c123 0 231 -87 231 -205c0 -170 -95 -250 -269 -250c-83 0 -154 62 -154 143c0 42 35 77 77 77s77 -35 77 -77c0 -40 -51 -37 -51 -77c0 -24 25 -40 51 -40c117 0 141 91 141 224c0 105 -12 180 -103 180 c-74 0 -122 -74 -122 -153c0 -9 -6 -13 -12 -13s-13 4 -13 13c0 77 -31 150 -84 205v-474c0 -4 -4 -8 -8 -8h-22c-4 0 -8 4 -8 8v984c0 4 4 8 8 8h22c4 0 8 -4 8 -8v-474c53 55 84 128 84 205c0 9 7 13 13 13s12 -4 12 -13c0 -79 48 -153 122 -153c91 0 103 75 103 180 c0 133 -24 224 -141 224c-26 0 -51 -16 -51 -40c0 -40 51 -37 51 -77c0 -42 -35 -77 -77 -77s-77 35 -77 77c0 81 71 143 154 143c174 0 269 -80 269 -250c0 -118 -108 -205 -231 -205c-31 0 -59 29 -88 29c-39 0 -46 -41 -46 -74zM130 -500h-122c-4 0 -8 4 -8 8v984 c0 4 4 8 8 8h122c4 0 8 -4 8 -8v-984c0 -4 -4 -8 -8 -8z" /> </svg>
