<?xml version="1.0" encoding="UTF-8"?> <!DOCTYPE svg PUBLIC "-//W3C//DTD SVG 1.1//EN" "http://www.w3.org/Graphics/SVG/1.1/DTD/svg11.dtd"> <svg xmlns="http://www.w3.org/2000/svg" xmlns:xlink="http://www.w3.org/1999/xlink" xmlns:ev="http://www.w3.org/2001/xml-events" version="1.1" baseProfile="full" height="1000.0" width="1000.0"> <path glyph-name="clefs.hufnagel.fa" d="M-5 -324c-2 0 -3 1 -3 3v450c0 3 4 10 12 19c20 23 61 58 89 72l75 38c5 3 9 4 12 4c1 0 1 0 2 -1c23 -25 55 -42 97 -37c3 0 4 -1 4 -3c0 -3 -4 -10 -12 -19c-18 -21 -56 -53 -81 -68c-24 -14 -57 -9 -82 2v-96l60 30c8 4 12 5 14 3c23 -25 55 -41 97 -36c3 0 4 -1 4 -3 c0 -3 -4 -10 -12 -19c-18 -21 -56 -53 -81 -68c-24 -14 -57 -10 -82 1v-177c0 -3 -4 -10 -12 -19c-18 -21 -56 -53 -81 -68c-9 -5 -16 -8 -20 -8z" /> </svg>
