<?xml version="1.0" encoding="UTF-8"?> <!DOCTYPE svg PUBLIC "-//W3C//DTD SVG 1.1//EN" "http://www.w3.org/Graphics/SVG/1.1/DTD/svg11.dtd"> <svg xmlns="http://www.w3.org/2000/svg" xmlns:xlink="http://www.w3.org/1999/xlink" xmlns:ev="http://www.w3.org/2001/xml-events" version="1.1" baseProfile="full" height="1000.0" width="1000.0"> <path glyph-name="clefs.petrucci.g_change" d="M226 262c0 -50 -22 -91 -36 -130c24 2 44 -5 59 -15c8 -6 -31 -59 -38 -54c-10 7 -21 12 -35 14c0 -4 -1 -7 -1 -11c0 -16 4 -33 11 -48c3 3 9 9 12 9h60c1 0 1 -1 1 -2c0 -16 3 -31 3 -46c0 -36 -15 -59 -33 -81c-15 -18 -31 -36 -62 -36c-60 0 -103 57 -103 115 c0 70 52 138 110 153c11 29 26 62 26 99c0 48 -20 83 -38 115l-28 49c-11 -14 -23 -26 -36 -38l-32 -30c-26 -25 -56 -57 -56 -106c0 -40 23 -71 55 -81c4 -1 -18 -38 -24 -36c-33 11 -57 43 -57 84c0 47 26 84 48 114c14 19 31 38 48 55l30 29c6 6 13 12 19 18l-15 28 c-26 50 -56 107 -56 179c0 44 15 73 34 102c16 24 37 50 74 50c48 0 67 -40 67 -88c0 -61 -19 -117 -36 -165c-10 -28 -23 -55 -38 -79l29 -49c18 -33 38 -69 38 -118zM142 725c-48 0 -57 -39 -57 -86c0 -70 29 -126 54 -174l15 -26c22 42 35 94 46 146c4 18 7 35 7 55 c0 46 -19 85 -65 85zM149 32c0 17 3 31 7 46c-20 -1 -35 -9 -47 -19c-4 -9 -5 -19 -5 -29c0 -59 40 -113 99 -113c7 0 13 1 19 3v7c0 15 -1 31 -2 46h-58c-3 0 -2 4 0 9c-8 -3 -13 45 -13 50z" /> </svg>
