<?xml version="1.0" encoding="UTF-8"?> <!DOCTYPE svg PUBLIC "-//W3C//DTD SVG 1.1//EN" "http://www.w3.org/Graphics/SVG/1.1/DTD/svg11.dtd"> <svg xmlns="http://www.w3.org/2000/svg" xmlns:xlink="http://www.w3.org/1999/xlink" xmlns:ev="http://www.w3.org/2001/xml-events" version="1.1" baseProfile="full" height="1000.0" width="1000.0"> <path glyph-name="clefs.medicaea.fa_change" d="M340 -175c0 -13 -1 -50 -9 -50l-174 95v-161c0 -5 -3 -9 -8 -9s-9 4 -9 9v582c0 5 4 9 9 9s8 -4 8 -9v-71l175 -95c8 -4 8 -35 8 -50c0 -13 -1 -50 -9 -50l-174 95v-150l175 -95c8 -4 8 -35 8 -50zM80 100c8 0 9 -80 9 -100v-291c0 -5 -4 -9 -9 -9s-9 4 -9 9v191h-62 c-8 0 -9 80 -9 100c0 21 1 100 9 100h71z" /> </svg>
