<?xml version="1.0" encoding="UTF-8"?> <!DOCTYPE svg PUBLIC "-//W3C//DTD SVG 1.1//EN" "http://www.w3.org/Graphics/SVG/1.1/DTD/svg11.dtd"> <svg xmlns="http://www.w3.org/2000/svg" xmlns:xlink="http://www.w3.org/1999/xlink" xmlns:ev="http://www.w3.org/2001/xml-events" version="1.1" baseProfile="full" height="1000.0" width="1000.0"> <path glyph-name="clefs.vaticana.fa_change" d="M213 50c-34 0 -63 -21 -63 -50s29 -50 63 -50c15 0 31 5 43 14c6 0 7 -60 7 -75c0 -20 2 -69 -7 -75c-12 -9 -27 -14 -42 -14c-68 0 -76 62 -76 131v138c0 69 7 131 76 131c15 0 30 -5 42 -14c9 -6 7 -55 7 -75c0 -15 -1 -75 -7 -75c-12 9 -28 14 -43 14zM6 -62 c-6 0 -6 49 -6 62c0 16 -2 58 6 62c15 9 31 13 48 13c27 0 48 -9 65 -25c8 -7 6 -44 6 -62v-357c0 -4 -2 -6 -6 -6s-7 2 -7 6v299c-16 13 -35 20 -58 20c-17 0 -33 -4 -47 -12h-1z" /> </svg>
