<?xml version="1.0" encoding="UTF-8"?>
<!DOCTYPE svg PUBLIC "-//W3C//DTD SVG 1.1//EN" "http://www.w3.org/Graphics/SVG/1.1/DTD/svg11.dtd">
 
<svg xmlns="http://www.w3.org/2000/svg"
     xmlns:xlink="http://www.w3.org/1999/xlink" xmlns:ev="http://www.w3.org/2001/xml-events"
     version="1.1" baseProfile="full"
height="1900"  
> 

<path glyph-name="clefs.G"  
d="M241 562c-35 113 -63 224 -63 365c0 122 52 238 143 319c2 2 5 3 8 3s6 -1 8 -3c81 -82 152 -255 152 -371c0 -152 -87 -274 -181 -393c23 -73 46 -147 67 -221c159 0 262 -130 262 -264c0 -72 -29 -144 -95 -199c-23 -19 -50 -33 -78 -42c1 -21 2 -42 2 -63
c0 -38 -2 -77 -5 -115c-11 -122 -88 -232 -203 -232s-212 87 -212 199c0 58 53 104 112 104c54 0 95 -48 95 -104c0 -52 -43 -95 -95 -95c-12 0 -22 3 -33 8c29 -43 77 -72 133 -72c95 0 154 95 163 197c3 37 5 74 5 111c0 17 0 35 -1 52c-24 -5 -50 -7 -75 -7
c-194 0 -350 159 -350 354c0 185 127 325 241 469zM462 -204c66 25 113 95 113 165c0 91 -67 180 -172 194c27 -111 51 -236 59 -359zM423 -215c-8 127 -34 258 -62 372c-86 -6 -135 -63 -135 -124c0 -47 28 -95 90 -126c5 -4 6 -10 6 -15c0 -11 -9 -21 -20 -21
c-3 0 -5 1 -8 2c-89 39 -130 113 -130 187c0 91 62 180 170 198l-56 186c-105 -131 -209 -262 -209 -429c0 -130 143 -236 281 -236c24 0 49 2 73 6zM380 1109c-96 -63 -154 -171 -154 -286c0 -83 24 -154 45 -223c81 106 149 217 149 352c0 68 -7 97 -40 157z" />  
</svg>
 
