<?xml version="1.0" encoding="UTF-8"?> <!DOCTYPE svg PUBLIC "-//W3C//DTD SVG 1.1//EN" "http://www.w3.org/Graphics/SVG/1.1/DTD/svg11.dtd"> <svg xmlns="http://www.w3.org/2000/svg" xmlns:xlink="http://www.w3.org/1999/xlink" xmlns:ev="http://www.w3.org/2001/xml-events" version="1.1" baseProfile="full" height="1000.0" width="1000.0"> <path glyph-name="clefs.F_change" d="M445 -100c0 23 19 42 42 42s41 -19 41 -42s-18 -42 -41 -42s-42 19 -42 42zM445 100c0 23 19 42 42 42s41 -19 41 -42s-18 -42 -41 -42s-42 19 -42 42zM180 211c139 0 240 -68 240 -199c0 -211 -210 -333 -412 -420c-2 -2 -5 -3 -8 -3c-6 0 -11 5 -11 11c0 3 1 6 3 8 c152 98 310 217 310 394c0 93 -40 187 -122 187c-55 0 -95 -41 -114 -95c8 3 16 5 24 5c44 0 80 -36 80 -80c0 -46 -35 -85 -80 -85c-48 0 -90 38 -90 85c0 104 78 192 180 192z" /> </svg>
