<?xml version="1.0" encoding="UTF-8"?> <!DOCTYPE svg PUBLIC "-//W3C//DTD SVG 1.1//EN" "http://www.w3.org/Graphics/SVG/1.1/DTD/svg11.dtd"> <svg xmlns="http://www.w3.org/2000/svg" xmlns:xlink="http://www.w3.org/1999/xlink" xmlns:ev="http://www.w3.org/2001/xml-events" version="1.1" baseProfile="full" height="1000.0" width="1000.0"> <path glyph-name="clefs.F" d="M556 -125c0 29 23 52 52 52s52 -23 52 -52s-23 -52 -52 -52s-52 23 -52 52zM556 125c0 29 23 52 52 52s52 -23 52 -52s-23 -52 -52 -52s-52 23 -52 52zM233 261c171 0 292 -86 292 -248c0 -263 -264 -415 -517 -521c-2 -2 -5 -3 -8 -3c-6 0 -11 5 -11 11c0 3 1 6 3 8 c203 118 415 265 415 494c0 121 -64 237 -174 237c-79 0 -138 -57 -164 -133c14 8 28 13 43 13c55 0 100 -45 100 -100c0 -58 -44 -107 -100 -107c-60 0 -112 48 -112 107c0 132 103 242 233 242z" /> </svg>
