<?xml version="1.0" encoding="UTF-8"?> <!DOCTYPE svg PUBLIC "-//W3C//DTD SVG 1.1//EN" "http://www.w3.org/Graphics/SVG/1.1/DTD/svg11.dtd"> <svg xmlns="http://www.w3.org/2000/svg" xmlns:xlink="http://www.w3.org/1999/xlink" xmlns:ev="http://www.w3.org/2001/xml-events" version="1.1" baseProfile="full" height="1000.0" width="1000.0"> <path glyph-name="clefs.petrucci.f_change" d="M310 -52l-32 -55l52 -91l32 55zM320 -892c0 -5 -7 -8 -12 -8c-6 0 -12 3 -12 8v625l-69 120c-2 3 0 11 3 15l66 114l-69 121c-2 3 0 11 3 15l69 120c5 8 13 17 21 23v231c0 5 7 8 12 8s12 -3 12 -8v-225l69 -120c1 -1 1 -2 1 -3c0 -3 -2 -9 -4 -12l-66 -114l69 -121 c1 -1 1 -2 1 -3c0 -3 -2 -9 -4 -12l-69 -120c-5 -8 -13 -17 -21 -23v-631zM310 198l-32 -55l52 -91l32 55zM24 -17c0 -10 7 -18 17 -18h118c10 0 17 8 17 18v34c0 10 -7 18 -17 18h-118c-10 0 -17 -8 -17 -18v-34zM200 -800c0 -5 -7 -8 -12 -8s-12 3 -12 8v665 c0 13 -5 26 -17 26h-118c-12 0 -17 -13 -17 -26c0 -8 -6 -12 -12 -12s-12 4 -12 12v270c0 8 6 12 12 12s12 -4 12 -12c0 -13 5 -26 17 -26h118c12 0 17 13 17 26c0 8 6 12 12 12s12 -4 12 -12v-935z" /> </svg>
