<?xml version="1.0" encoding="UTF-8"?> <!DOCTYPE svg PUBLIC "-//W3C//DTD SVG 1.1//EN" "http://www.w3.org/Graphics/SVG/1.1/DTD/svg11.dtd"> <svg xmlns="http://www.w3.org/2000/svg" xmlns:xlink="http://www.w3.org/1999/xlink" xmlns:ev="http://www.w3.org/2001/xml-events" version="1.1" baseProfile="full" height="1000.0" width="1000.0"> <path glyph-name="clefs.tab_change" d="M213 -340c0 -19 -17 -21 -33 -21c-36 0 -68 24 -68 59c0 66 94 104 187 104c83 0 173 -18 173 -82c0 -41 -26 -69 -56 -88c46 -9 82 -29 82 -73c0 -72 -76 -126 -144 -126c-33 0 -64 12 -86 42c-1 2 -2 4 -2 6c0 10 12 20 22 20c3 0 6 -1 8 -4c9 -12 22 -16 36 -16 c34 0 76 32 76 74c0 37 -40 51 -81 51c-5 0 -7 5 -7 12c0 9 5 20 15 20c29 0 55 31 55 62c0 36 -29 54 -64 60l-32 -176c-16 -82 -67 -161 -127 -161c-35 0 -54 27 -77 42c-2 2 -4 4 -4 7c0 9 10 21 19 21c2 0 4 -1 6 -2c16 -11 29 -28 53 -28c52 0 71 79 71 156v7 c0 28 7 87 14 130c-32 -11 -56 -32 -56 -56c0 -12 6 -22 15 -27c4 -2 5 -7 5 -13zM56 -95c17 0 27 -16 46 -16c27 0 52 22 73 43c80 81 139 175 170 269c7 22 27 29 46 29c23 0 45 -11 45 -24c0 -95 -14 -194 -14 -292c0 -13 3 -25 17 -25c13 0 29 16 44 16c4 0 7 -6 7 -13 c0 -6 -2 -13 -9 -15c-23 -7 -44 -28 -70 -28s-36 24 -42 47c-13 49 -21 100 -25 153c-21 -28 -44 -55 -69 -81c11 -20 30 -26 60 -26c4 0 6 -6 6 -12c0 -20 -27 -23 -45 -23c-25 0 -44 10 -55 27l-31 -28c-33 -29 -73 -56 -108 -56c-27 0 -41 16 -62 25c-3 1 -4 4 -4 7 c0 9 9 23 20 23zM230 432c0 -18 -18 -19 -33 -19c-39 0 -73 29 -73 67c0 76 101 96 186 96c39 0 95 -33 136 -33c30 0 62 12 88 33c2 2 4 2 7 2c9 0 19 -9 19 -15c0 -1 0 -2 -1 -3c-32 -36 -77 -57 -119 -57c-12 0 -25 2 -35 5c-7 -47 -20 -122 -28 -155 c-17 -77 -70 -148 -130 -148c-41 0 -64 34 -92 52c-2 2 -4 4 -4 7c0 9 9 21 18 21c2 0 4 -1 6 -2c18 -12 34 -37 60 -37c45 0 66 62 68 121c1 36 11 120 18 166c-10 2 -19 4 -26 4c-41 0 -90 -16 -90 -56c0 -14 8 -28 19 -34c4 -2 6 -9 6 -15z" /> </svg>
