<?xml version="1.0" encoding="UTF-8"?> <!DOCTYPE svg PUBLIC "-//W3C//DTD SVG 1.1//EN" "http://www.w3.org/Graphics/SVG/1.1/DTD/svg11.dtd"> <svg xmlns="http://www.w3.org/2000/svg" xmlns:xlink="http://www.w3.org/1999/xlink" xmlns:ev="http://www.w3.org/2001/xml-events" version="1.1" baseProfile="full" height="1000.0" width="1000.0"> <path glyph-name="clefs.neomensural.c" d="M95 -492c0 -5 -9 -8 -15 -8s-15 3 -15 8v984c0 5 9 8 15 8s15 -3 15 -8v-324c0 -16 8 -32 22 -32h396c14 0 22 16 22 32v324c0 5 9 8 15 8s15 -3 15 -8v-984c0 -5 -9 -8 -15 -8s-15 3 -15 8v324c0 16 -8 32 -22 32h-396c-14 0 -22 -16 -22 -32v-324zM630 -492 c0 -5 -9 -8 -15 -8s-16 3 -16 8v984c0 5 10 8 16 8s15 -3 15 -8v-984zM30 -492c0 -5 -9 -8 -15 -8s-15 3 -15 8v984c0 5 9 8 15 8s15 -3 15 -8v-984zM95 -22c0 -12 10 -21 22 -21h396c12 0 22 9 22 21v44c0 12 -10 21 -22 21h-396c-12 0 -22 -9 -22 -21v-44z" /> </svg>
