<?xml version="1.0" encoding="UTF-8"?> <!DOCTYPE svg PUBLIC "-//W3C//DTD SVG 1.1//EN" "http://www.w3.org/Graphics/SVG/1.1/DTD/svg11.dtd"> <svg xmlns="http://www.w3.org/2000/svg" xmlns:xlink="http://www.w3.org/1999/xlink" xmlns:ev="http://www.w3.org/2001/xml-events" version="1.1" baseProfile="full" height="1000.0" width="1000.0"> <path glyph-name="clefs.hufnagel.do" d="M233 103c-26 -22 -46 -45 -88 -40c-13 1 -25 5 -37 10v-137l49 -25c10 -5 -40 -50 -49 -58c-15 -13 -31 -24 -43 -31c-9 -5 -16 -9 -20 -9c-1 0 -1 1 -2 1l-50 25c-1 0 -1 1 -1 2v225c0 3 4 10 12 19c20 23 61 59 89 73l75 37c5 3 9 4 12 4c1 0 1 0 2 -1 c23 -25 55 -41 97 -36c3 0 4 -1 4 -3c0 -3 -4 -10 -12 -19c-9 -11 -23 -24 -38 -37z" /> </svg>
