<?xml version="1.0" encoding="UTF-8"?> <!DOCTYPE svg PUBLIC "-//W3C//DTD SVG 1.1//EN" "http://www.w3.org/Graphics/SVG/1.1/DTD/svg11.dtd"> <svg xmlns="http://www.w3.org/2000/svg" xmlns:xlink="http://www.w3.org/1999/xlink" xmlns:ev="http://www.w3.org/2001/xml-events" version="1.1" baseProfile="full" height="1000.0" width="1000.0"> <path glyph-name="clefs.neomensural.c_change" d="M76 -392c0 -5 -7 -8 -12 -8c-6 0 -12 3 -12 8v784c0 5 7 8 12 8c6 0 12 -3 12 -8v-257c0 -13 5 -26 17 -26h317c12 0 18 13 18 26v257c0 5 7 8 12 8c6 0 12 -3 12 -8v-784c0 -5 -7 -8 -12 -8c-6 0 -12 3 -12 8v257c0 13 -6 26 -18 26h-317c-12 0 -17 -13 -17 -26v-257z M504 -392c0 -5 -7 -8 -12 -8c-6 0 -12 3 -12 8v784c0 5 7 8 12 8c6 0 12 -3 12 -8v-784zM24 -392c0 -5 -7 -8 -12 -8c-6 0 -12 3 -12 8v784c0 5 7 8 12 8c6 0 12 -3 12 -8v-784zM76 -17c0 -10 7 -18 17 -18h317c10 0 18 8 18 18v34c0 10 -8 18 -18 18h-317 c-10 0 -17 -8 -17 -18v-34z" /> </svg>
