<?xml version="1.0" encoding="UTF-8"?> <!DOCTYPE svg PUBLIC "-//W3C//DTD SVG 1.1//EN" "http://www.w3.org/Graphics/SVG/1.1/DTD/svg11.dtd"> <svg xmlns="http://www.w3.org/2000/svg" xmlns:xlink="http://www.w3.org/1999/xlink" xmlns:ev="http://www.w3.org/2001/xml-events" version="1.1" baseProfile="full" height="1000.0" width="1000.0"> <path glyph-name="clefs.G_change" d="M516 1c0 -84 -59 -172 -148 -198v-10c0 -44 -1 -89 -4 -133c-6 -99 -79 -184 -178 -184c-90 0 -163 74 -163 166c0 46 42 83 90 83c43 0 76 -38 76 -83c0 -42 -34 -76 -76 -76c-6 0 -11 2 -16 3c20 -32 53 -54 92 -54c77 0 130 72 135 151c3 43 4 85 4 128 c-20 -3 -39 -4 -60 -4c-151 0 -266 138 -266 300c0 143 102 249 196 358c-21 58 -41 115 -49 176c-6 44 -7 88 -7 132c0 97 48 187 129 241c2 2 5 3 8 3s6 -1 8 -3c64 -70 121 -209 121 -307c0 -118 -70 -211 -147 -301c20 -59 38 -118 54 -178c123 -2 201 -105 201 -210z M367 -157c54 19 90 75 90 129c0 67 -46 133 -121 148c17 -84 29 -183 31 -277zM271 -170c19 0 38 0 57 3c-2 99 -15 202 -33 290c-69 -3 -108 -48 -108 -96c0 -35 21 -72 66 -97c4 -4 6 -9 6 -14c0 -11 -9 -21 -20 -21c-3 0 -5 1 -8 2c-65 35 -94 92 -94 149 c0 74 50 146 138 162c-13 49 -28 98 -44 146c-87 -100 -172 -200 -172 -331c0 -107 105 -193 212 -193zM320 880c-83 -40 -135 -123 -135 -214c0 -68 24 -127 43 -182c67 81 123 167 123 272c0 55 -6 78 -31 124z" /> </svg>
