<?xml version="1.0" encoding="UTF-8"?> <!DOCTYPE svg PUBLIC "-//W3C//DTD SVG 1.1//EN" "http://www.w3.org/Graphics/SVG/1.1/DTD/svg11.dtd"> <svg xmlns="http://www.w3.org/2000/svg" xmlns:xlink="http://www.w3.org/1999/xlink" xmlns:ev="http://www.w3.org/2001/xml-events" version="1.1" baseProfile="full" height="1000.0" width="1000.0"> <path glyph-name="clefs.mensural.c_change" d="M24 -392c0 -10 7 -18 17 -18h318c10 0 17 8 17 18v34c0 10 -7 18 -17 18h-318c-10 0 -17 -8 -17 -18v-34zM24 -142c0 -10 7 -18 17 -18h318c10 0 17 8 17 18v34c0 10 -7 18 -17 18h-318c-10 0 -17 -8 -17 -18v-34zM24 108c0 -10 7 -18 17 -18h318c10 0 17 8 17 18v34 c0 10 -7 18 -17 18h-318c-10 0 -17 -8 -17 -18v-34zM400 -563c0 -5 -7 -8 -12 -8s-12 3 -12 8v53c0 13 -5 26 -17 26h-318c-12 0 -17 -13 -17 -26v-224c0 -5 -7 -8 -12 -8c-6 0 -12 3 -12 8v1218c0 5 7 8 12 8c6 0 12 -3 12 -8v-224c0 -13 5 -26 17 -26h318 c12 0 17 13 17 26v53c0 5 7 8 12 8s12 -3 12 -8v-876z" /> </svg>
