<?xml version="1.0" encoding="UTF-8"?> <!DOCTYPE svg PUBLIC "-//W3C//DTD SVG 1.1//EN" "http://www.w3.org/Graphics/SVG/1.1/DTD/svg11.dtd"> <svg xmlns="http://www.w3.org/2000/svg" xmlns:xlink="http://www.w3.org/1999/xlink" xmlns:ev="http://www.w3.org/2001/xml-events" version="1.1" baseProfile="full" height="1000.0" width="1000.0"> <path glyph-name="clefs.G" d="M256 563c-34 118 -54 231 -54 379c0 120 56 232 151 305c2 2 5 3 8 3s6 -1 8 -3c76 -90 143 -264 143 -385c0 -150 -90 -267 -190 -380c22 -73 42 -147 61 -221h6c154 0 254 -127 254 -259c0 -76 -33 -153 -107 -208c-25 -19 -53 -32 -83 -40c0 -13 1 -27 1 -40 c0 -46 -1 -92 -4 -138c-7 -121 -94 -227 -214 -227c-111 0 -202 92 -202 205c0 58 54 104 113 104c54 0 95 -48 95 -104c0 -52 -43 -95 -95 -95c-13 0 -27 4 -39 10c26 -47 74 -80 130 -80c99 0 166 92 172 193c3 44 4 89 4 133v31c-26 -4 -52 -6 -79 -6 c-188 0 -333 171 -333 372c0 181 134 314 254 451zM452 -207c73 22 124 97 124 170c0 90 -64 178 -168 192c23 -110 40 -239 44 -362zM338 -220c25 0 50 1 75 5c-4 127 -23 259 -47 372c-87 -5 -136 -62 -136 -124c0 -45 26 -92 83 -125c4 -4 7 -9 7 -14 c0 -11 -9 -21 -20 -21c-3 0 -6 1 -9 2c-80 43 -116 114 -116 184c0 90 61 178 168 198c-16 64 -35 127 -53 190c-110 -124 -220 -249 -220 -414c0 -138 131 -253 268 -253zM409 1108c-100 -55 -162 -159 -162 -273c0 -90 19 -162 40 -236c86 102 158 209 158 342 c0 73 -8 103 -36 167z" /> </svg>
