<?xml version="1.0" encoding="UTF-8"?> <!DOCTYPE svg PUBLIC "-//W3C//DTD SVG 1.1//EN" "http://www.w3.org/Graphics/SVG/1.1/DTD/svg11.dtd"> <svg xmlns="http://www.w3.org/2000/svg" xmlns:xlink="http://www.w3.org/1999/xlink" xmlns:ev="http://www.w3.org/2001/xml-events" version="1.1" baseProfile="full" height="1000.0" width="1000.0"> <path glyph-name="clefs.hufnagel.do.fa_change" d="M-4 -759c-2 0 -2 0 -2 2v360c0 14 28 35 40 45c15 12 26 21 40 28l60 30c6 3 11 4 12 3c18 -20 43 -34 77 -30c2 0 3 0 3 -2c0 -14 -28 -35 -40 -45c-28 -23 -55 -43 -100 -23v-77l48 24c6 3 11 4 12 3c18 -20 43 -34 77 -30c2 0 3 0 3 -2c0 -14 -28 -35 -40 -45 c-28 -23 -55 -44 -100 -24v-141c0 -14 -28 -35 -40 -45c-14 -11 -34 -31 -50 -31zM186 82c-28 -23 -56 -43 -100 -23v-110l39 -20c8 -4 -31 -41 -39 -47c-14 -11 -34 -31 -50 -31h-1l-40 20c-1 0 -1 1 -1 2v180c0 14 28 35 40 45c15 12 26 21 40 28l60 30c4 2 8 3 10 3h2 c18 -20 43 -34 77 -30c2 0 3 0 3 -2c0 -14 -28 -35 -40 -45z" /> </svg>
