<?xml version="1.0" encoding="UTF-8"?> <!DOCTYPE svg PUBLIC "-//W3C//DTD SVG 1.1//EN" "http://www.w3.org/Graphics/SVG/1.1/DTD/svg11.dtd"> <svg xmlns="http://www.w3.org/2000/svg" xmlns:xlink="http://www.w3.org/1999/xlink" xmlns:ev="http://www.w3.org/2001/xml-events" version="1.1" baseProfile="full" height="1000.0" width="1000.0"> <path glyph-name="clefs.petrucci.f" d="M400 -1117c0 -5 -9 -8 -15 -8s-15 3 -15 8v814l-87 150c-3 4 1 14 4 19l65 112l-69 119c-3 4 1 14 4 19l87 150c6 10 16 22 26 29v322c0 5 9 8 15 8s15 -3 15 -8v-314l87 -150c1 -1 1 -2 1 -4c0 -4 -3 -11 -5 -15l-65 -112l69 -119c1 -1 1 -2 1 -4c0 -4 -3 -11 -5 -15 l-87 -150c-6 -10 -16 -22 -26 -29v-822zM404 48c5 4 15 9 22 8l27 47l-66 114l-40 -70zM30 -22c0 -12 10 -21 22 -21h146c12 0 22 9 22 21v44c0 12 -10 21 -22 21h-146c-12 0 -22 -9 -22 -21v-44zM250 -1000c0 -5 -9 -8 -15 -8s-15 3 -15 8v832c0 16 -8 32 -22 32h-146 c-14 0 -22 -16 -22 -32c0 -10 -7 -15 -15 -15s-15 5 -15 15v336c0 10 7 15 15 15s15 -5 15 -15c0 -16 8 -32 22 -32h146c14 0 22 16 22 32c0 10 7 15 15 15s15 -5 15 -15v-1168zM396 -48c-5 -4 -15 -9 -22 -8l-27 -47l66 -114l40 70z" /> </svg>
