<?xml version="1.0" encoding="UTF-8"?> <!DOCTYPE svg PUBLIC "-//W3C//DTD SVG 1.1//EN" "http://www.w3.org/Graphics/SVG/1.1/DTD/svg11.dtd"> <svg xmlns="http://www.w3.org/2000/svg" xmlns:xlink="http://www.w3.org/1999/xlink" xmlns:ev="http://www.w3.org/2001/xml-events" version="1.1" baseProfile="full" height="1000.0" width="1000.0"> <path glyph-name="clefs.petrucci.c3_change" d="M24 -142c0 -10 7 -18 17 -18h118c10 0 17 8 17 18v34c0 10 -7 18 -17 18h-118c-10 0 -17 -8 -17 -18v-34zM24 108c0 -10 7 -18 17 -18h118c10 0 17 8 17 18v34c0 10 -7 18 -17 18h-118c-10 0 -17 -8 -17 -18v-34zM200 -492c0 -5 -7 -8 -12 -8c-6 0 -12 3 -12 8v232 c0 13 -5 26 -17 26h-118c-12 0 -17 -13 -17 -26v-448c0 -5 -7 -8 -12 -8s-12 3 -12 8v1416c0 5 7 8 12 8s12 -3 12 -8v-448c0 -13 5 -26 17 -26h118c12 0 17 13 17 26v232c0 5 7 8 12 8c6 0 12 -3 12 -8v-984z" /> </svg>
