<?xml version="1.0" encoding="UTF-8"?> <!DOCTYPE svg PUBLIC "-//W3C//DTD SVG 1.1//EN" "http://www.w3.org/Graphics/SVG/1.1/DTD/svg11.dtd"> <svg xmlns="http://www.w3.org/2000/svg" xmlns:xlink="http://www.w3.org/1999/xlink" xmlns:ev="http://www.w3.org/2001/xml-events" version="1.1" baseProfile="full" height="1000.0" width="1000.0"> <path glyph-name="clefs.petrucci.c4" d="M30 -147c0 -12 10 -21 22 -21h146c12 0 22 9 22 21v44c0 12 -10 21 -22 21h-146c-12 0 -22 -9 -22 -21v-44zM30 103c0 -12 10 -21 22 -21h146c12 0 22 9 22 21v44c0 12 -10 21 -22 21h-146c-12 0 -22 -9 -22 -21v-44zM250 -550c0 -5 -9 -8 -15 -8s-15 3 -15 8v257 c0 16 -8 32 -22 32h-146c-14 0 -22 -16 -22 -32v-499c0 -5 -9 -8 -15 -8s-15 3 -15 8v1384c0 5 9 8 15 8s15 -3 15 -8v-299c0 -16 8 -32 22 -32h146c14 0 22 16 22 32v249c0 5 9 8 15 8s15 -3 15 -8v-1092z" /> </svg>
