<?xml version="1.0" encoding="UTF-8"?> <!DOCTYPE svg PUBLIC "-//W3C//DTD SVG 1.1//EN" "http://www.w3.org/Graphics/SVG/1.1/DTD/svg11.dtd"> <svg xmlns="http://www.w3.org/2000/svg" xmlns:xlink="http://www.w3.org/1999/xlink" xmlns:ev="http://www.w3.org/2001/xml-events" version="1.1" baseProfile="full" height="1000.0" width="1000.0"> <path glyph-name="custodes.mensural.d1" d="M588 -371c0 -2 -1 -4 -3 -4c-13 0 -30 27 -38 39l-229 327l-58 -80c-6 -8 -34 27 -39 34l-33 47l-59 -81c-6 -8 -33 27 -38 34l-67 94c-10 14 -24 31 -24 47c0 2 1 4 3 4c12 0 28 -24 36 -35l34 -47l58 81c0 1 1 1 2 1c12 0 28 -24 36 -35l34 -47l58 81c0 1 1 1 2 1 c13 0 31 -27 39 -39l263 -375c10 -14 23 -31 23 -47z" /> </svg>
