<?xml version="1.0" encoding="UTF-8"?> <!DOCTYPE svg PUBLIC "-//W3C//DTD SVG 1.1//EN" "http://www.w3.org/Graphics/SVG/1.1/DTD/svg11.dtd"> <svg xmlns="http://www.w3.org/2000/svg" xmlns:xlink="http://www.w3.org/1999/xlink" xmlns:ev="http://www.w3.org/2001/xml-events" version="1.1" baseProfile="full" height="1000.0" width="1000.0"> <path glyph-name="custodes.mensural.u1" d="M3 -90c-2 0 -3 2 -3 4c0 17 16 36 26 50l65 91c5 7 32 43 38 34l59 -81l33 47c5 7 33 43 39 34l58 -80l229 327c8 12 25 39 38 39c2 0 3 -2 3 -4c0 -16 -13 -33 -23 -47l-263 -375c-8 -12 -26 -39 -39 -39c-1 0 -2 0 -2 1l-58 81l-34 -47c-8 -11 -24 -35 -36 -35 c-1 0 -2 0 -2 1l-58 81l-34 -47c-8 -11 -24 -35 -36 -35z" /> </svg>
