<?xml version="1.0" encoding="UTF-8"?> <!DOCTYPE svg PUBLIC "-//W3C//DTD SVG 1.1//EN" "http://www.w3.org/Graphics/SVG/1.1/DTD/svg11.dtd"> <svg xmlns="http://www.w3.org/2000/svg" xmlns:xlink="http://www.w3.org/1999/xlink" xmlns:ev="http://www.w3.org/2001/xml-events" version="1.1" baseProfile="full" height="1000.0" width="1000.0"> <path glyph-name="custodes.hufnagel.d2" d="M382 -304c0 -2 -1 -3 -2 -3c-3 0 -9 5 -18 15c-10 11 -23 27 -35 44l-170 243l-65 -130c-4 -7 -47 47 -55 58c-12 17 -22 35 -29 48c-6 12 -9 19 -8 22l71 142c0 1 1 1 2 1c3 0 9 -5 18 -15c10 -11 23 -27 35 -44l219 -312c12 -17 22 -35 29 -48c5 -10 8 -17 8 -21z" /> </svg>
