<?xml version="1.0" encoding="UTF-8"?> <!DOCTYPE svg PUBLIC "-//W3C//DTD SVG 1.1//EN" "http://www.w3.org/Graphics/SVG/1.1/DTD/svg11.dtd"> <svg xmlns="http://www.w3.org/2000/svg" xmlns:xlink="http://www.w3.org/1999/xlink" xmlns:ev="http://www.w3.org/2001/xml-events" version="1.1" baseProfile="full" height="1000.0" width="1000.0"> <path glyph-name="custodes.hufnagel.u2" d="M380 307c1 0 2 -1 2 -3c0 -4 -3 -11 -8 -21c-7 -13 -17 -31 -29 -48l-219 -312c-12 -17 -25 -33 -35 -44c-9 -10 -15 -15 -18 -15c-1 0 -2 0 -2 1l-71 142c-1 3 2 10 8 22c5 9 76 123 84 106l65 -130l170 243c12 17 25 33 35 44c9 10 15 15 18 15z" /> </svg>
