<?xml version="1.0" encoding="UTF-8"?> <!DOCTYPE svg PUBLIC "-//W3C//DTD SVG 1.1//EN" "http://www.w3.org/Graphics/SVG/1.1/DTD/svg11.dtd"> <svg xmlns="http://www.w3.org/2000/svg" xmlns:xlink="http://www.w3.org/1999/xlink" xmlns:ev="http://www.w3.org/2001/xml-events" version="1.1" baseProfile="full" height="1000.0" width="1000.0"> <path glyph-name="custodes.hufnagel.u1" d="M424 369c1 0 2 0 2 -2c0 -4 -3 -11 -8 -21c-7 -13 -18 -31 -30 -48l-262 -375c-12 -17 -25 -33 -35 -44c-9 -10 -15 -15 -18 -15c-1 0 -2 0 -2 1l-71 142c-1 3 2 10 8 22c5 9 76 123 84 106l65 -130l214 305c12 17 24 33 34 44c9 10 16 15 19 15z" /> </svg>
