<?xml version="1.0" encoding="UTF-8"?> <!DOCTYPE svg PUBLIC "-//W3C//DTD SVG 1.1//EN" "http://www.w3.org/Graphics/SVG/1.1/DTD/svg11.dtd"> <svg xmlns="http://www.w3.org/2000/svg" xmlns:xlink="http://www.w3.org/1999/xlink" xmlns:ev="http://www.w3.org/2001/xml-events" version="1.1" baseProfile="full" height="1000.0" width="1000.0"> <path glyph-name="eight" d="M252 285c29 30 54 62 54 103c0 56 -58 91 -119 91c-49 0 -78 -38 -78 -75c0 -22 9 -42 31 -55zM279 269c55 -32 85 -78 85 -127c0 -72 -65 -142 -185 -142c-92 0 -179 53 -179 138c0 51 40 86 78 121c-44 28 -64 69 -64 109c0 67 60 132 173 132c80 0 158 -40 158 -112 c0 -48 -32 -84 -66 -119zM106 243c-34 -30 -66 -61 -66 -105c0 -69 66 -117 139 -117c55 0 88 43 88 85c0 25 -11 51 -37 66z" /> </svg>
