<?xml version="1.0" encoding="UTF-8"?> <!DOCTYPE svg PUBLIC "-//W3C//DTD SVG 1.1//EN" "http://www.w3.org/Graphics/SVG/1.1/DTD/svg11.dtd"> <svg xmlns="http://www.w3.org/2000/svg" xmlns:xlink="http://www.w3.org/1999/xlink" xmlns:ev="http://www.w3.org/2001/xml-events" version="1.1" baseProfile="full" height="1000.0" width="1000.0"> <path glyph-name="five" d="M42 500c45 -8 91 -13 137 -13s92 5 137 13h3c11 0 17 -10 12 -15c-68 -68 -167 -87 -263 -87c-8 0 -15 -7 -15 -15v-108c28 28 65 47 104 47c115 0 184 -51 184 -161c0 -92 -83 -161 -179 -161c-82 0 -162 38 -162 111c0 36 29 65 65 65s65 -29 65 -65 c0 -25 -40 -28 -40 -53c0 -30 37 -37 72 -37c57 0 70 73 70 140c0 65 -18 134 -75 134c-41 0 -83 -14 -106 -48c-3 -4 -7 -5 -11 -5c-7 0 -13 5 -13 13v230c0 8 6 15 13 15h2z" /> </svg>
