<?xml version="1.0" encoding="UTF-8"?> <!DOCTYPE svg PUBLIC "-//W3C//DTD SVG 1.1//EN" "http://www.w3.org/Graphics/SVG/1.1/DTD/svg11.dtd"> <svg xmlns="http://www.w3.org/2000/svg" xmlns:xlink="http://www.w3.org/1999/xlink" xmlns:ev="http://www.w3.org/2001/xml-events" version="1.1" baseProfile="full" height="1000.0" width="1000.0"> <path glyph-name="flags.d7" d="M269 1251c0 -27 -8 -51 -20 -72c7 -27 12 -55 12 -83c0 -30 -8 -57 -20 -81c7 -34 12 -68 12 -102c0 -37 -10 -70 -26 -101c2 -32 3 -65 3 -97c0 -37 -9 -71 -23 -103c2 -31 2 -62 2 -93c0 -191 -209 -319 -209 -510v-9h-14v1250h14v-150c100 15 230 60 230 151 c0 17 -6 35 -6 52c0 12 11 20 22 20c26 0 23 -48 23 -72zM0 209c74 84 171 199 171 310c0 9 -1 19 -1 28c-68 -102 -170 -193 -170 -318v-20zM0 429c82 73 191 177 191 286v40c-75 -97 -191 -178 -191 -305v-21zM0 650c92 62 214 154 214 263c0 18 -1 36 -4 54 c-76 -95 -210 -164 -210 -292v-25zM0 875c96 45 222 119 222 221c0 15 -2 29 -5 44c-78 -77 -217 -122 -217 -240v-25z" /> </svg>
