<?xml version="1.0" encoding="UTF-8"?> <!DOCTYPE svg PUBLIC "-//W3C//DTD SVG 1.1//EN" "http://www.w3.org/Graphics/SVG/1.1/DTD/svg11.dtd"> <svg xmlns="http://www.w3.org/2000/svg" xmlns:xlink="http://www.w3.org/1999/xlink" xmlns:ev="http://www.w3.org/2001/xml-events" version="1.1" baseProfile="full" height="1000.0" width="1000.0"> <path glyph-name="flags.u4" d="M0 0c0 -178 202 -293 202 -471c0 -33 -9 -65 -23 -95c18 -37 30 -76 30 -118c0 -63 -16 -125 -42 -183c-4 -7 -11 -11 -18 -11c-12 0 -24 10 -21 25c26 53 42 110 42 169c0 98 -97 192 -170 259v-75h-14v500h14zM155 -522c6 16 8 34 8 51c0 97 -93 191 -163 258 c0 -120 93 -209 155 -309z" /> </svg>
