<?xml version="1.0" encoding="UTF-8"?> <!DOCTYPE svg PUBLIC "-//W3C//DTD SVG 1.1//EN" "http://www.w3.org/Graphics/SVG/1.1/DTD/svg11.dtd"> <svg xmlns="http://www.w3.org/2000/svg" xmlns:xlink="http://www.w3.org/1999/xlink" xmlns:ev="http://www.w3.org/2001/xml-events" version="1.1" baseProfile="full" height="1000.0" width="1000.0"> <path glyph-name="flags.mensurald13" d="M18 17c0 -14 -17 -40 -31 -40h-37c-1 0 -3 0 -4 1l-12 12c-37 37 -54 85 -54 135c0 59 23 121 64 172l50 63c4 6 11 13 19 13c4 0 5 -2 5 -6c0 -10 -6 -20 -12 -27l-50 -62c-28 -35 -41 -77 -41 -118c0 -46 17 -91 51 -125l12 -12h35c4 0 5 -2 5 -6z" /> </svg>
