<?xml version="1.0" encoding="UTF-8"?> <!DOCTYPE svg PUBLIC "-//W3C//DTD SVG 1.1//EN" "http://www.w3.org/Graphics/SVG/1.1/DTD/svg11.dtd"> <svg xmlns="http://www.w3.org/2000/svg" xmlns:xlink="http://www.w3.org/1999/xlink" xmlns:ev="http://www.w3.org/2001/xml-events" version="1.1" baseProfile="full" height="1000.0" width="1000.0"> <path glyph-name="flags.mensuralu26" d="M-18 -979c0 23 24 44 48 44c46 0 82 -60 82 -115c0 -81 -65 -107 -120 -134c-2 -1 -3 -2 -5 -2c-4 0 -5 3 -5 7c0 15 15 33 26 38c27 14 72 15 72 57c0 41 -38 103 -72 103c-7 0 -26 -11 -26 2zM-18 -729c0 23 24 44 48 44c46 0 82 -60 82 -115c0 -81 -65 -107 -120 -134 c-2 -1 -3 -2 -5 -2c-4 0 -5 3 -5 7c0 15 15 33 26 38c27 14 72 15 72 57c0 41 -38 103 -72 103c-7 0 -26 -11 -26 2zM-18 -479c0 23 24 44 48 44c46 0 82 -60 82 -115c0 -81 -65 -107 -120 -134c-2 -1 -3 -2 -5 -2c-4 0 -5 3 -5 7c0 15 15 33 26 38c27 14 72 15 72 57 c0 41 -38 103 -72 103c-7 0 -26 -11 -26 2zM-18 -17c0 14 17 40 31 40h37c2 0 3 0 4 -1l45 -50c23 -26 32 -57 32 -90c0 -42 -15 -88 -34 -129l-83 -175c-4 -10 -15 -26 -27 -26c-4 0 -5 2 -5 6c0 5 2 10 4 14l82 175c15 33 26 68 26 102c0 29 -8 57 -28 79l-44 49h-35 c-4 0 -5 2 -5 6z" /> </svg>
