<?xml version="1.0" encoding="UTF-8"?> <!DOCTYPE svg PUBLIC "-//W3C//DTD SVG 1.1//EN" "http://www.w3.org/Graphics/SVG/1.1/DTD/svg11.dtd"> <svg xmlns="http://www.w3.org/2000/svg" xmlns:xlink="http://www.w3.org/1999/xlink" xmlns:ev="http://www.w3.org/2001/xml-events" version="1.1" baseProfile="full" height="1000.0" width="1000.0"> <path glyph-name="flags.d5" d="M0 210c90 57 209 143 209 247c0 19 -5 38 -12 55c-77 -91 -197 -163 -197 -287v-15zM269 886c0 -44 -15 -81 -38 -115c19 -34 30 -71 30 -110c0 -43 -15 -80 -37 -114c15 -28 24 -59 24 -90c0 -185 -248 -272 -248 -457h-14v750h14v-90c99 46 230 121 230 226 c0 22 -5 42 -13 62c-3 15 9 25 21 25c28 0 31 -63 31 -87zM0 435c96 47 222 123 222 226c0 27 -7 52 -18 76c-80 -91 -204 -162 -204 -287v-15z" /> </svg>
