<?xml version="1.0" encoding="UTF-8"?> <!DOCTYPE svg PUBLIC "-//W3C//DTD SVG 1.1//EN" "http://www.w3.org/Graphics/SVG/1.1/DTD/svg11.dtd"> <svg xmlns="http://www.w3.org/2000/svg" xmlns:xlink="http://www.w3.org/1999/xlink" xmlns:ev="http://www.w3.org/2001/xml-events" version="1.1" baseProfile="full" height="1000.0" width="1000.0"> <path glyph-name="flags.mensuralu23" d="M-18 -17c0 14 17 40 31 40h37c2 0 3 0 4 -1l45 -50c23 -26 32 -57 32 -90c0 -42 -15 -88 -34 -129l-83 -175c-4 -10 -15 -26 -27 -26c-4 0 -5 2 -5 6c0 5 2 10 4 14l82 175c15 33 26 68 26 102c0 29 -8 57 -28 79l-44 49h-35c-4 0 -5 2 -5 6z" /> </svg>
