<?xml version="1.0" encoding="UTF-8"?> <!DOCTYPE svg PUBLIC "-//W3C//DTD SVG 1.1//EN" "http://www.w3.org/Graphics/SVG/1.1/DTD/svg11.dtd"> <svg xmlns="http://www.w3.org/2000/svg" xmlns:xlink="http://www.w3.org/1999/xlink" xmlns:ev="http://www.w3.org/2001/xml-events" version="1.1" baseProfile="full" height="1000.0" width="1000.0"> <path glyph-name="flags.u7" d="M0 -213v-19c0 -114 87 -200 147 -295c4 16 6 33 6 49c0 97 -87 194 -153 265zM0 0c0 -178 192 -300 192 -478c0 -33 -6 -65 -18 -96c17 -36 28 -73 28 -114s-10 -82 -28 -119c17 -35 28 -72 28 -113s-10 -82 -28 -119c17 -35 28 -73 28 -114c0 -35 -13 -69 -34 -97 c24 -42 41 -85 41 -135c0 -61 -16 -121 -42 -177c-4 -7 -11 -11 -18 -11c-12 0 -24 10 -21 25c26 51 42 106 42 163c0 95 -97 182 -170 243v-108h-14v1250h14zM0 -445v-20c0 -115 89 -202 149 -298c9 24 14 49 14 75c0 93 -93 181 -163 243zM0 -677v-20 c0 -115 89 -202 149 -298c9 24 14 49 14 75c0 93 -93 181 -163 243zM0 -910v-20c0 -111 84 -194 145 -285c11 19 18 40 18 62c0 93 -93 181 -163 243z" /> </svg>
