<?xml version="1.0" encoding="UTF-8"?> <!DOCTYPE svg PUBLIC "-//W3C//DTD SVG 1.1//EN" "http://www.w3.org/Graphics/SVG/1.1/DTD/svg11.dtd"> <svg xmlns="http://www.w3.org/2000/svg" xmlns:xlink="http://www.w3.org/1999/xlink" xmlns:ev="http://www.w3.org/2001/xml-events" version="1.1" baseProfile="full" height="1000.0" width="1000.0"> <path glyph-name="flags.mensuralu03" d="M-18 -17c0 14 17 40 31 40h37c2 0 3 0 4 -1l75 -88c14 -16 19 -35 19 -56c0 -27 -9 -57 -20 -84l-112 -287c-4 -10 -16 -30 -29 -30c-4 0 -5 2 -5 6s1 7 2 10l113 288c8 21 15 43 15 64c0 17 -5 33 -16 46l-74 86h-35c-4 0 -5 2 -5 6z" /> </svg>
