<?xml version="1.0" encoding="UTF-8"?> <!DOCTYPE svg PUBLIC "-//W3C//DTD SVG 1.1//EN" "http://www.w3.org/Graphics/SVG/1.1/DTD/svg11.dtd"> <svg xmlns="http://www.w3.org/2000/svg" xmlns:xlink="http://www.w3.org/1999/xlink" xmlns:ev="http://www.w3.org/2001/xml-events" version="1.1" baseProfile="full" height="1000.0" width="1000.0"> <path glyph-name="flags.u6" d="M0 -213v-12c0 -115 88 -202 148 -298c4 13 5 27 5 41c0 98 -87 197 -153 269zM0 0c0 -179 192 -303 192 -482c0 -30 -6 -59 -18 -87c17 -36 28 -74 28 -115c0 -39 -10 -77 -28 -111c17 -36 28 -73 28 -114c0 -33 -13 -64 -34 -89c24 -42 41 -86 41 -136 c0 -62 -16 -122 -42 -178c-4 -7 -11 -11 -18 -11c-12 0 -24 10 -21 25c26 51 42 107 42 164c0 95 -97 185 -170 247v-113h-14v1000h14zM0 -438v-12c0 -117 90 -205 150 -302c9 21 13 45 13 68c0 94 -93 183 -163 246zM0 -662v-13c0 -112 86 -197 147 -289c11 16 16 35 16 55 c0 94 -93 184 -163 247z" /> </svg>
