<?xml version="1.0" encoding="UTF-8"?> <!DOCTYPE svg PUBLIC "-//W3C//DTD SVG 1.1//EN" "http://www.w3.org/Graphics/SVG/1.1/DTD/svg11.dtd"> <svg xmlns="http://www.w3.org/2000/svg" xmlns:xlink="http://www.w3.org/1999/xlink" xmlns:ev="http://www.w3.org/2001/xml-events" version="1.1" baseProfile="full" height="1000.0" width="1000.0"> <path glyph-name="flags.mensuralu16" d="M-18 -917c0 23 24 44 48 44c46 0 82 -59 82 -114c0 -81 -65 -108 -120 -135c-2 -1 -3 -1 -5 -1c-4 0 -5 2 -5 6c0 15 15 34 26 39c27 14 72 15 72 57c0 41 -38 103 -72 103c-7 0 -26 -12 -26 1zM-18 -667c0 23 24 44 48 44c46 0 82 -59 82 -114c0 -81 -65 -108 -120 -135 c-2 -1 -3 -1 -5 -1c-4 0 -5 2 -5 6c0 15 15 34 26 39c27 14 72 15 72 57c0 41 -38 103 -72 103c-7 0 -26 -12 -26 1zM-18 -417c0 23 24 44 48 44c46 0 82 -59 82 -114c0 -81 -65 -108 -120 -135c-2 -1 -3 -1 -5 -1c-4 0 -5 2 -5 6c0 15 15 34 26 39c27 14 72 15 72 57 c0 41 -38 103 -72 103c-7 0 -26 -12 -26 1zM-18 -17c0 14 17 40 31 40h37c1 0 3 0 4 -1l12 -12c37 -37 54 -85 54 -135c0 -59 -23 -121 -64 -172l-50 -63c-4 -6 -11 -13 -19 -13c-4 0 -5 2 -5 6c0 10 6 20 12 27l50 62c28 35 41 77 41 118c0 46 -17 91 -51 125l-12 12h-35 c-4 0 -5 2 -5 6z" /> </svg>
