<?xml version="1.0" encoding="UTF-8"?> <!DOCTYPE svg PUBLIC "-//W3C//DTD SVG 1.1//EN" "http://www.w3.org/Graphics/SVG/1.1/DTD/svg11.dtd"> <svg xmlns="http://www.w3.org/2000/svg" xmlns:xlink="http://www.w3.org/1999/xlink" xmlns:ev="http://www.w3.org/2001/xml-events" version="1.1" baseProfile="full" height="1000.0" width="1000.0"> <path glyph-name="flags.u5" d="M0 -213v-4c0 -114 88 -200 148 -294c3 12 5 24 5 37c0 96 -87 191 -153 261zM0 0c0 -177 192 -297 192 -474c0 -28 -6 -56 -18 -82c17 -35 28 -72 28 -113c0 -36 -8 -71 -23 -104c18 -35 30 -73 30 -114c0 -61 -16 -120 -42 -175c-4 -7 -11 -11 -18 -11 c-12 0 -24 10 -21 25c26 50 42 105 42 161c0 94 -97 180 -170 240v-103h-14v750h14zM0 -430v-5c0 -115 91 -199 153 -294c6 19 10 40 10 60c0 92 -93 178 -163 239z" /> </svg>
