<?xml version="1.0" encoding="UTF-8"?> <!DOCTYPE svg PUBLIC "-//W3C//DTD SVG 1.1//EN" "http://www.w3.org/Graphics/SVG/1.1/DTD/svg11.dtd"> <svg xmlns="http://www.w3.org/2000/svg" xmlns:xlink="http://www.w3.org/1999/xlink" xmlns:ev="http://www.w3.org/2001/xml-events" version="1.1" baseProfile="full" height="1000.0" width="1000.0"> <path glyph-name="flags.mensurald03" d="M18 17c0 -14 -17 -40 -31 -40h-37c-2 0 -3 0 -4 1l-75 88c-14 16 -19 35 -19 56c0 27 9 57 20 84l112 287c4 10 16 30 29 30c4 0 5 -2 5 -6s-1 -7 -2 -10l-113 -288c-8 -21 -15 -43 -15 -64c0 -17 5 -33 16 -46l74 -86h35c4 0 5 -2 5 -6z" /> </svg>
