<?xml version="1.0" encoding="UTF-8"?> <!DOCTYPE svg PUBLIC "-//W3C//DTD SVG 1.1//EN" "http://www.w3.org/Graphics/SVG/1.1/DTD/svg11.dtd"> <svg xmlns="http://www.w3.org/2000/svg" xmlns:xlink="http://www.w3.org/1999/xlink" xmlns:ev="http://www.w3.org/2001/xml-events" version="1.1" baseProfile="full" height="1000.0" width="1000.0"> <path glyph-name="flags.d4" d="M0 200c93 53 216 135 216 240c0 25 -5 50 -14 73c-80 -91 -202 -163 -202 -288v-25zM269 665c0 -44 -16 -82 -39 -116c16 -34 25 -71 25 -109c0 -182 -255 -258 -255 -440h-14v500h14v-75c99 51 230 132 230 240c0 22 -5 43 -13 63c-3 15 9 25 21 25c28 0 31 -64 31 -88z " /> </svg>
