<?xml version="1.0" encoding="UTF-8"?> <!DOCTYPE svg PUBLIC "-//W3C//DTD SVG 1.1//EN" "http://www.w3.org/Graphics/SVG/1.1/DTD/svg11.dtd"> <svg xmlns="http://www.w3.org/2000/svg" xmlns:xlink="http://www.w3.org/1999/xlink" xmlns:ev="http://www.w3.org/2001/xml-events" version="1.1" baseProfile="full" height="1000.0" width="1000.0"> <path glyph-name="flags.mensurald25" d="M18 729c0 -23 -24 -44 -48 -44c-46 0 -82 60 -82 115c0 81 65 107 120 134c2 1 3 2 5 2c4 0 5 -3 5 -7c0 -15 -15 -33 -26 -38c-27 -14 -72 -15 -72 -57c0 -41 38 -103 72 -103c7 0 26 11 26 -2zM18 479c0 -23 -24 -44 -48 -44c-46 0 -82 60 -82 115c0 81 65 107 120 134 c2 1 3 2 5 2c4 0 5 -3 5 -7c0 -15 -15 -33 -26 -38c-27 -14 -72 -15 -72 -57c0 -41 38 -103 72 -103c7 0 26 11 26 -2zM18 17c0 -14 -17 -40 -31 -40h-37c-2 0 -3 0 -4 1l-45 50c-23 26 -32 57 -32 90c0 42 15 88 34 129l83 175c4 10 15 26 27 26c4 0 5 -2 5 -6 c0 -5 -2 -10 -4 -14l-82 -175c-15 -33 -26 -68 -26 -102c0 -29 8 -57 28 -79l44 -49h35c4 0 5 -2 5 -6z" /> </svg>
