<?xml version="1.0" encoding="UTF-8"?> <!DOCTYPE svg PUBLIC "-//W3C//DTD SVG 1.1//EN" "http://www.w3.org/Graphics/SVG/1.1/DTD/svg11.dtd"> <svg xmlns="http://www.w3.org/2000/svg" xmlns:xlink="http://www.w3.org/1999/xlink" xmlns:ev="http://www.w3.org/2001/xml-events" version="1.1" baseProfile="full" height="1000.0" width="1000.0"> <path glyph-name="flags.mensurald05" d="M18 792c0 -23 -24 -44 -48 -44c-46 0 -82 59 -82 114c0 81 65 108 120 135c2 1 3 1 5 1c4 0 5 -2 5 -6c0 -15 -15 -34 -26 -39c-27 -14 -72 -15 -72 -57c0 -41 38 -103 72 -103c7 0 26 12 26 -1zM18 17c0 -14 -17 -40 -31 -40h-37c-2 0 -3 0 -4 1l-75 88 c-14 16 -19 35 -19 56c0 27 9 57 20 84l112 287c1 2 3 5 4 8c-6 -2 -12 -3 -18 -3c-46 0 -82 59 -82 114c0 81 65 108 120 135c2 1 3 1 5 1c4 0 5 -2 5 -6c0 -15 -15 -34 -26 -39c-27 -14 -72 -15 -72 -57c0 -41 38 -103 72 -103c7 0 26 12 26 -1c0 -7 -3 -13 -6 -19 c4 1 6 -2 6 -6s-1 -7 -2 -10l-113 -288c-8 -21 -15 -43 -15 -64c0 -17 5 -33 16 -46l74 -86h35c4 0 5 -2 5 -6z" /> </svg>
