<?xml version="1.0" encoding="UTF-8"?> <!DOCTYPE svg PUBLIC "-//W3C//DTD SVG 1.1//EN" "http://www.w3.org/Graphics/SVG/1.1/DTD/svg11.dtd"> <svg xmlns="http://www.w3.org/2000/svg" xmlns:xlink="http://www.w3.org/1999/xlink" xmlns:ev="http://www.w3.org/2001/xml-events" version="1.1" baseProfile="full" height="1000.0" width="1000.0"> <path glyph-name="flags.mensuralu05" d="M-18 -792c0 23 24 44 48 44c46 0 82 -59 82 -114c0 -81 -65 -108 -120 -135c-2 -1 -3 -1 -5 -1c-4 0 -5 2 -5 6c0 15 15 34 26 39c27 14 72 15 72 57c0 41 -38 103 -72 103c-7 0 -26 -12 -26 1zM-18 -17c0 14 17 40 31 40h37c2 0 3 0 4 -1l75 -88c14 -16 19 -35 19 -56 c0 -27 -9 -57 -20 -84l-112 -287c-1 -2 -3 -5 -4 -8c6 2 12 3 18 3c46 0 82 -59 82 -114c0 -81 -65 -108 -120 -135c-2 -1 -3 -1 -5 -1c-4 0 -5 2 -5 6c0 15 15 34 26 39c27 14 72 15 72 57c0 41 -38 103 -72 103c-7 0 -26 -12 -26 1c0 7 3 13 6 19c-4 -1 -6 2 -6 6 s1 7 2 10l113 288c8 21 15 43 15 64c0 17 -5 33 -16 46l-74 86h-35c-4 0 -5 2 -5 6z" /> </svg>
