<?xml version="1.0" encoding="UTF-8"?> <!DOCTYPE svg PUBLIC "-//W3C//DTD SVG 1.1//EN" "http://www.w3.org/Graphics/SVG/1.1/DTD/svg11.dtd"> <svg xmlns="http://www.w3.org/2000/svg" xmlns:xlink="http://www.w3.org/1999/xlink" xmlns:ev="http://www.w3.org/2001/xml-events" version="1.1" baseProfile="full" height="1000.0" width="1000.0"> <path glyph-name="m" d="M-37 146c26 75 79 152 145 152c23 0 37 -21 41 -47c22 27 51 47 81 47c24 0 40 -22 45 -49c21 28 49 49 79 49c33 0 59 -35 59 -69c0 -5 -1 -9 -2 -14l-35 -149c0 -2 -1 -4 -1 -5c0 -5 2 -8 7 -8c9 0 27 11 48 31c4 4 9 5 12 5c5 0 8 -3 8 -8c0 -3 -1 -7 -5 -11 c-39 -38 -84 -76 -129 -76c-20 0 -32 14 -32 32c0 3 0 6 1 10l39 165c1 5 2 9 2 14c0 10 -4 18 -14 18c-16 0 -33 -16 -39 -32l-53 -186c-2 -8 -12 -15 -20 -15h-46c-9 0 -13 6 -11 15l53 186c2 6 3 11 3 16c0 9 -4 16 -13 16c-16 0 -35 -15 -41 -32l-63 -186 c-3 -9 -12 -15 -21 -15h-46c-9 0 -13 6 -10 15l64 186c2 5 2 10 2 15c0 10 -3 17 -13 17c-29 0 -54 -53 -66 -87c-3 -10 -13 -14 -20 -14c-6 0 -10 3 -10 9c0 2 0 3 1 5z" /> </svg>
