<?xml version="1.0" encoding="UTF-8"?> <!DOCTYPE svg PUBLIC "-//W3C//DTD SVG 1.1//EN" "http://www.w3.org/Graphics/SVG/1.1/DTD/svg11.dtd"> <svg xmlns="http://www.w3.org/2000/svg" xmlns:xlink="http://www.w3.org/1999/xlink" xmlns:ev="http://www.w3.org/2001/xml-events" version="1.1" baseProfile="full" height="1000.0" width="1000.0"> <path glyph-name="nine" d="M166 245c56 0 58 51 58 117s-2 117 -58 117c-58 0 -64 -50 -64 -117s6 -117 64 -117zM224 237c-19 -7 -38 -14 -58 -14c-99 0 -166 46 -166 139s67 138 166 138c111 0 167 -125 167 -250c0 -128 -70 -250 -187 -250c-69 0 -135 38 -135 101c0 36 29 65 65 65 s65 -29 65 -65c0 -23 -39 -26 -39 -49c0 -20 22 -31 44 -31c70 0 78 71 78 151v65z" /> </svg>
