<?xml version="1.0" encoding="UTF-8"?> <!DOCTYPE svg PUBLIC "-//W3C//DTD SVG 1.1//EN" "http://www.w3.org/Graphics/SVG/1.1/DTD/svg11.dtd"> <svg xmlns="http://www.w3.org/2000/svg" xmlns:xlink="http://www.w3.org/1999/xlink" xmlns:ev="http://www.w3.org/2001/xml-events" version="1.1" baseProfile="full" height="1000.0" width="1000.0"> <path glyph-name="noteheads.svaticana.linea.punctum" d="M215 -89c0 -4 -2 -6 -6 -6s-7 2 -7 6v178c0 4 3 6 7 6s6 -2 6 -6v-178zM13 -89c0 -4 -3 -6 -7 -6s-6 2 -6 6v178c0 4 2 6 6 6s7 -2 7 -6v-178zM50 -78c-6 0 -11 5 -11 11v127c0 20 54 25 69 25s68 -5 68 -25v-127c0 -6 -5 -11 -11 -11c-2 0 -4 0 -5 1 c-16 8 -34 13 -52 13s-37 -5 -53 -13c-1 -1 -3 -1 -5 -1z" /> </svg>
