<?xml version="1.0" encoding="UTF-8"?> <!DOCTYPE svg PUBLIC "-//W3C//DTD SVG 1.1//EN" "http://www.w3.org/Graphics/SVG/1.1/DTD/svg11.dtd"> <svg xmlns="http://www.w3.org/2000/svg" xmlns:xlink="http://www.w3.org/1999/xlink" xmlns:ev="http://www.w3.org/2001/xml-events" version="1.1" baseProfile="full" height="1000.0" width="1000.0"> <path glyph-name="noteheads.s0" d="M217 114c-50 0 -71 -42 -71 -88c0 -79 60 -140 139 -140c50 0 70 42 70 88c0 79 -59 140 -138 140zM501 0c0 -43 -34 -75 -73 -96c-54 -29 -116 -40 -177 -40s-124 11 -178 40c-39 21 -73 53 -73 96s34 75 73 96c54 29 117 40 178 40s123 -11 177 -40 c39 -21 73 -53 73 -96z" /> </svg>
