<?xml version="1.0" encoding="UTF-8"?> <!DOCTYPE svg PUBLIC "-//W3C//DTD SVG 1.1//EN" "http://www.w3.org/Graphics/SVG/1.1/DTD/svg11.dtd"> <svg xmlns="http://www.w3.org/2000/svg" xmlns:xlink="http://www.w3.org/1999/xlink" xmlns:ev="http://www.w3.org/2001/xml-events" version="1.1" baseProfile="full" height="1000.0" width="1000.0"> <path glyph-name="noteheads.s0triangle" d="M124 85c28 -49 46 -106 46 -177v-21c64 55 140 101 225 132c-98 12 -188 35 -271 66zM0 158c0 15 21 22 40 22c3 0 5 -1 7 -2c132 -70 292 -119 481 -119h7c17 0 32 -8 32 -22c0 -16 -18 -21 -34 -25c-156 -38 -287 -121 -385 -223c-3 -4 -9 -4 -14 -4 c-20 0 -42 6 -42 22c0 4 1 7 2 11c5 25 8 50 8 76c0 104 -35 179 -87 242c-6 7 -15 11 -15 22z" /> </svg>
