<?xml version="1.0" encoding="UTF-8"?> <!DOCTYPE svg PUBLIC "-//W3C//DTD SVG 1.1//EN" "http://www.w3.org/Graphics/SVG/1.1/DTD/svg11.dtd"> <svg xmlns="http://www.w3.org/2000/svg" xmlns:xlink="http://www.w3.org/1999/xlink" xmlns:ev="http://www.w3.org/2001/xml-events" version="1.1" baseProfile="full" height="1000.0" width="1000.0"> <path glyph-name="noteheads.ssolesmes.stropha.aucta" d="M-11 -87c0 6 5 11 11 11c4 0 7 -2 9 -5c8 -12 21 -18 34 -18c64 0 2 111 -38 108l65 96c1 2 3 4 6 4s6 -2 7 -4l68 -101c1 -1 1 -2 1 -4s0 -3 -1 -4l-68 -101c-9 -13 -23 -19 -37 -19c-20 0 -41 11 -55 31c-1 2 -2 4 -2 6z" /> </svg>
