<?xml version="1.0" encoding="UTF-8"?> <!DOCTYPE svg PUBLIC "-//W3C//DTD SVG 1.1//EN" "http://www.w3.org/Graphics/SVG/1.1/DTD/svg11.dtd"> <svg xmlns="http://www.w3.org/2000/svg" xmlns:xlink="http://www.w3.org/1999/xlink" xmlns:ev="http://www.w3.org/2001/xml-events" version="1.1" baseProfile="full" height="1000.0" width="1000.0"> <path glyph-name="noteheads.sM1" d="M244 136c91 0 204 -31 237 -101v79c0 12 10 22 22 22s21 -10 21 -22v-228c0 -12 -9 -22 -21 -22s-22 10 -22 22v79c-33 -70 -146 -101 -237 -101s-203 31 -236 101v-79c0 -12 -10 -22 -22 -22s-21 10 -21 22v228c0 12 9 22 21 22s22 -10 22 -22v-79 c33 70 145 101 236 101zM211 114c-51 0 -70 -43 -70 -89c0 -78 59 -139 137 -139c51 0 69 43 69 89c0 78 -58 139 -136 139z" /> </svg>
