<?xml version="1.0" encoding="UTF-8"?> <!DOCTYPE svg PUBLIC "-//W3C//DTD SVG 1.1//EN" "http://www.w3.org/Graphics/SVG/1.1/DTD/svg11.dtd"> <svg xmlns="http://www.w3.org/2000/svg" xmlns:xlink="http://www.w3.org/1999/xlink" xmlns:ev="http://www.w3.org/2001/xml-events" version="1.1" baseProfile="full" height="1000.0" width="1000.0"> <path glyph-name="noteheads.sM2neomensural" d="M52 -32h396c12 0 22 9 22 21v22c0 12 -10 21 -22 21h-396c-12 0 -22 -9 -22 -21v-22c0 -12 10 -21 22 -21zM448 -136h-396c-14 0 -22 -16 -22 -32c0 -10 -7 -15 -15 -15s-15 5 -15 15v336c0 10 7 15 15 15s15 -5 15 -15c0 -16 8 -32 22 -32h396c14 0 22 16 22 32 c0 10 7 15 15 15s15 -5 15 -15v-336c7 -83 18 -168 18 -251c0 -12 -9 -17 -18 -17s-17 5 -18 17l-12 250v1c0 16 -8 32 -22 32z" /> </svg>
