<?xml version="1.0" encoding="UTF-8"?> <!DOCTYPE svg PUBLIC "-//W3C//DTD SVG 1.1//EN" "http://www.w3.org/Graphics/SVG/1.1/DTD/svg11.dtd"> <svg xmlns="http://www.w3.org/2000/svg" xmlns:xlink="http://www.w3.org/1999/xlink" xmlns:ev="http://www.w3.org/2001/xml-events" version="1.1" baseProfile="full" height="1000.0" width="1000.0"> <path glyph-name="noteheads.d0reFunk" d="M55 0l148 -53c-4 18 -6 35 -6 53s2 35 6 53zM8 -13c-5 2 -8 8 -8 13s3 11 8 13l219 100c2 1 4 1 6 1c8 0 14 -6 14 -14c0 -2 0 -4 -1 -6c-10 -31 -21 -62 -21 -94s11 -63 21 -94c1 -2 1 -4 1 -6c0 -8 -6 -14 -14 -14c-2 0 -4 0 -6 1z" /> </svg>
