<?xml version="1.0" encoding="UTF-8"?> <!DOCTYPE svg PUBLIC "-//W3C//DTD SVG 1.1//EN" "http://www.w3.org/Graphics/SVG/1.1/DTD/svg11.dtd"> <svg xmlns="http://www.w3.org/2000/svg" xmlns:xlink="http://www.w3.org/1999/xlink" xmlns:ev="http://www.w3.org/2001/xml-events" version="1.1" baseProfile="full" height="1000.0" width="1000.0"> <path glyph-name="noteheads.d1tiThin" d="M165 -86l139 106c-34 42 -85 66 -139 66s-106 -24 -140 -66zM174 -111c-3 -2 -6 -3 -9 -3s-7 1 -10 3l-150 128c-3 3 -5 7 -5 11c0 3 1 6 3 9c39 49 99 77 162 77s122 -28 161 -77c2 -3 3 -6 3 -9c0 -4 -2 -8 -5 -11z" /> </svg>
