<?xml version="1.0" encoding="UTF-8"?> <!DOCTYPE svg PUBLIC "-//W3C//DTD SVG 1.1//EN" "http://www.w3.org/Graphics/SVG/1.1/DTD/svg11.dtd"> <svg xmlns="http://www.w3.org/2000/svg" xmlns:xlink="http://www.w3.org/1999/xlink" xmlns:ev="http://www.w3.org/2001/xml-events" version="1.1" baseProfile="full" height="1000.0" width="1000.0"> <path glyph-name="noteheads.ssolesmes.incl.auctum" d="M-11 -87c0 6 5 11 11 11c4 0 7 -2 9 -5c8 -12 21 -18 34 -18c7 0 13 2 19 5l-61 90c-2 3 -2 5 0 8l69 101c1 2 3 4 6 4s6 -2 7 -4l68 -101c1 -1 1 -2 1 -4s0 -3 -1 -4l-68 -101c-8 -11 -28 -16 -40 -16c-20 0 -40 10 -52 28c-1 2 -2 4 -2 6z" /> </svg>
