<?xml version="1.0" encoding="UTF-8"?> <!DOCTYPE svg PUBLIC "-//W3C//DTD SVG 1.1//EN" "http://www.w3.org/Graphics/SVG/1.1/DTD/svg11.dtd"> <svg xmlns="http://www.w3.org/2000/svg" xmlns:xlink="http://www.w3.org/1999/xlink" xmlns:ev="http://www.w3.org/2001/xml-events" version="1.1" baseProfile="full" height="1000.0" width="1000.0"> <path glyph-name="noteheads.s2xcircle" d="M196 169c100 0 195 -71 195 -169s-95 -169 -195 -169s-196 71 -196 169s96 169 196 169zM196 21l102 87c-29 19 -65 30 -102 30s-74 -11 -103 -30zM172 0l-103 88c-24 -25 -38 -56 -38 -88s14 -63 38 -88zM220 0l103 -88c24 25 37 56 37 88s-13 63 -37 88zM196 -21 l-103 -87c29 -19 66 -30 103 -30s73 11 102 30z" /> </svg>
