<?xml version="1.0" encoding="UTF-8"?> <!DOCTYPE svg PUBLIC "-//W3C//DTD SVG 1.1//EN" "http://www.w3.org/Graphics/SVG/1.1/DTD/svg11.dtd"> <svg xmlns="http://www.w3.org/2000/svg" xmlns:xlink="http://www.w3.org/1999/xlink" xmlns:ev="http://www.w3.org/2001/xml-events" version="1.1" baseProfile="full" height="1000.0" width="1000.0"> <path glyph-name="noteheads.svaticana.quilisma" d="M46 -58c-1 -11 -3 -40 -10 -40c-1 0 -1 1 -2 1l-25 22c-9 8 -9 40 -9 59c0 16 2 59 11 59h1l17 -15c1 11 3 40 10 40c1 0 2 -1 2 -1l30 -23c1 11 5 37 11 37h1l27 -20c1 11 4 37 10 37c4 0 7 -14 8 -24l7 -49c1 -10 2 -23 2 -36c0 -16 -2 -60 -11 -60l-1 1l-33 24 c-1 -11 -4 -38 -10 -38h-2z" /> </svg>
