<?xml version="1.0" encoding="UTF-8"?> <!DOCTYPE svg PUBLIC "-//W3C//DTD SVG 1.1//EN" "http://www.w3.org/Graphics/SVG/1.1/DTD/svg11.dtd"> <svg xmlns="http://www.w3.org/2000/svg" xmlns:xlink="http://www.w3.org/1999/xlink" xmlns:ev="http://www.w3.org/2001/xml-events" version="1.1" baseProfile="full" height="1000.0" width="1000.0"> <path glyph-name="noteheads.s1cross" d="M194 30c-2 -2 -5 -3 -8 -3s-6 1 -8 3l-111 82l-32 -24l104 -78c3 -2 6 -6 6 -10s-3 -8 -6 -10l-104 -78l32 -24l111 82c2 2 5 3 8 3s6 -1 8 -3l111 -82l33 24l-105 78c-3 2 -5 6 -5 10s2 8 5 10l105 78l-33 24zM186 56l111 83c2 2 5 2 8 2s6 0 8 -2l54 -41 c3 -2 5 -6 5 -10s-2 -9 -5 -11l-105 -77l105 -77c3 -2 5 -7 5 -11s-2 -8 -5 -10l-54 -41c-2 -2 -5 -2 -8 -2s-6 0 -8 2l-111 83l-111 -83c-2 -2 -5 -2 -8 -2s-5 0 -7 2l-55 41c-3 2 -5 6 -5 10s2 9 5 11l105 77l-105 77c-3 2 -5 7 -5 11s2 8 5 10l55 41c2 2 4 2 7 2 s6 0 8 -2z" /> </svg>
