<?xml version="1.0" encoding="UTF-8"?> <!DOCTYPE svg PUBLIC "-//W3C//DTD SVG 1.1//EN" "http://www.w3.org/Graphics/SVG/1.1/DTD/svg11.dtd"> <svg xmlns="http://www.w3.org/2000/svg" xmlns:xlink="http://www.w3.org/1999/xlink" xmlns:ev="http://www.w3.org/2001/xml-events" version="1.1" baseProfile="full" height="1000.0" width="1000.0"> <path glyph-name="noteheads.s0mensural" d="M67 74l-35 -65l45 -83l36 65zM1 -16c-1 1 -1 3 -1 5c0 5 1 11 4 16l59 106c4 6 9 14 17 14c3 0 4 -1 5 -3l58 -106c1 -1 1 -3 1 -5c0 -5 -1 -11 -4 -16l-58 -106c-4 -6 -10 -14 -18 -14c-3 0 -4 1 -5 3z" /> </svg>
