<?xml version="1.0" encoding="UTF-8"?>
<!DOCTYPE svg PUBLIC "-//W3C//DTD SVG 1.1//EN" "http://www.w3.org/Graphics/SVG/1.1/DTD/svg11.dtd">
 
<svg xmlns="http://www.w3.org/2000/svg"
     xmlns:xlink="http://www.w3.org/1999/xlink" xmlns:ev="http://www.w3.org/2001/xml-events"
     version="1.1" baseProfile="full"
height="1000.0"
width="1000.0"
> 
     
<path glyph-name="noteheads.sM1"
d="M-23 134c6 3 12 3 18 0s8 -5 11 -10c2 -5 2 -6 2 -47v-41l4 6c24 42 88 77 162 88c27 5 37 5 71 5c33 0 43 0 70 -5c25 -4 46 -9 68 -18c45 -17 78 -42 94 -70l4 -6v41c0 40 0 42 2 46c3 6 5 8 11 11s12 3 18 0s8 -5 11 -10l2 -5v-118v-118l-2 -5c-3 -6 -5 -8 -11 -11
s-12 -3 -18 0s-8 5 -11 11c-2 4 -2 6 -2 46v41l-4 -6c-16 -28 -49 -53 -94 -70c-28 -11 -57 -18 -95 -22c-15 -2 -72 -2 -87 0c-38 4 -67 11 -95 22c-45 17 -78 42 -94 70l-4 6v-41c0 -41 0 -42 -2 -46c-3 -6 -5 -8 -11 -11s-12 -3 -18 0s-8 5 -11 11l-2 5v118
c0 116 0 118 2 122c3 6 5 8 11 11zM234 113c-12 2 -30 2 -38 0c-10 -1 -22 -8 -29 -14c-20 -18 -30 -54 -25 -94c4 -31 17 -56 37 -77c25 -24 61 -40 95 -42c35 -2 61 18 70 55c7 30 4 65 -8 94c-12 27 -36 51 -65 65c-10 5 -26 10 -37 13z" 
 />
</svg>
 
