<?xml version="1.0" encoding="UTF-8"?> <!DOCTYPE svg PUBLIC "-//W3C//DTD SVG 1.1//EN" "http://www.w3.org/Graphics/SVG/1.1/DTD/svg11.dtd"> <svg xmlns="http://www.w3.org/2000/svg" xmlns:xlink="http://www.w3.org/1999/xlink" xmlns:ev="http://www.w3.org/2001/xml-events" version="1.1" baseProfile="full" height="1000.0" width="1000.0"> <path glyph-name="noteheads.s0solFunk" d="M216 34c0 27 -22 42 -46 42c-30 0 -55 -15 -78 -30c-25 -16 -64 -40 -64 -80c0 -27 22 -42 46 -42c30 0 55 15 78 30c25 16 64 40 64 80zM142 114c55 0 102 -38 102 -96c0 -74 -69 -132 -142 -132c-55 0 -102 38 -102 96c0 74 69 132 142 132z" /> </svg>
