<?xml version="1.0" encoding="UTF-8"?> <!DOCTYPE svg PUBLIC "-//W3C//DTD SVG 1.1//EN" "http://www.w3.org/Graphics/SVG/1.1/DTD/svg11.dtd"> <svg xmlns="http://www.w3.org/2000/svg" xmlns:xlink="http://www.w3.org/1999/xlink" xmlns:ev="http://www.w3.org/2001/xml-events" version="1.1" baseProfile="full" height="1000.0" width="1000.0"> <path glyph-name="noteheads.svaticana.punctum.cavum" d="M22 -51c15 5 31 8 47 8s31 -3 46 -8v105c-15 6 -30 9 -46 9s-32 -3 -47 -9v-105zM11 -78c-6 0 -11 5 -11 11v127c0 20 54 25 69 25s68 -5 68 -25v-127c0 -6 -5 -11 -11 -11c-2 0 -4 0 -5 1c-16 8 -34 13 -52 13s-37 -5 -53 -13c-1 -1 -3 -1 -5 -1z" /> </svg>
