<?xml version="1.0" encoding="UTF-8"?> <!DOCTYPE svg PUBLIC "-//W3C//DTD SVG 1.1//EN" "http://www.w3.org/Graphics/SVG/1.1/DTD/svg11.dtd"> <svg xmlns="http://www.w3.org/2000/svg" xmlns:xlink="http://www.w3.org/1999/xlink" xmlns:ev="http://www.w3.org/2001/xml-events" version="1.1" baseProfile="full" height="1000.0" width="1000.0"> <path glyph-name="noteheads.s2diamond" d="M327 136c19 0 37 -18 37 -38c0 -37 -61 -63 -84 -101c-25 -42 -34 -96 -74 -124c-9 -6 -18 -8 -28 -8c-23 0 -47 12 -72 12c-23 0 -48 -13 -69 -13c-19 0 -37 18 -37 38c0 37 62 63 85 101c25 42 33 96 73 124c9 6 18 8 28 8c23 0 47 -12 72 -12c23 0 48 13 69 13z" /> </svg>
