<?xml version="1.0" encoding="UTF-8"?> <!DOCTYPE svg PUBLIC "-//W3C//DTD SVG 1.1//EN" "http://www.w3.org/Graphics/SVG/1.1/DTD/svg11.dtd"> <svg xmlns="http://www.w3.org/2000/svg" xmlns:xlink="http://www.w3.org/1999/xlink" xmlns:ev="http://www.w3.org/2001/xml-events" version="1.1" baseProfile="full" height="1000.0" width="1000.0"> <path glyph-name="noteheads.s1diamond" d="M291 55c0 17 -14 27 -29 27c-4 0 -8 -1 -12 -2c-25 -8 -61 -30 -90 -49s-65 -42 -82 -62c-6 -7 -10 -16 -10 -24c0 -17 15 -27 30 -27c4 0 8 1 12 2c25 8 61 30 90 49s65 42 82 62c6 7 9 16 9 24zM319 136c18 0 41 -17 41 -40c0 -28 -33 -55 -42 -85 c-11 -37 2 -85 -31 -107c-16 -11 -33 -13 -51 -13c-25 0 -51 6 -77 6c-44 0 -82 -33 -118 -33c-18 0 -41 17 -41 40c0 28 33 55 42 85c11 37 -2 85 31 107c16 11 32 13 50 13c25 0 52 -6 78 -6c44 0 82 33 118 33z" /> </svg>
