<?xml version="1.0" encoding="UTF-8"?> <!DOCTYPE svg PUBLIC "-//W3C//DTD SVG 1.1//EN" "http://www.w3.org/Graphics/SVG/1.1/DTD/svg11.dtd"> <svg xmlns="http://www.w3.org/2000/svg" xmlns:xlink="http://www.w3.org/1999/xlink" xmlns:ev="http://www.w3.org/2001/xml-events" version="1.1" baseProfile="full" height="1000.0" width="1000.0"> <path glyph-name="noteheads.d2triangle" d="M54 -171c0 26 7 53 7 79c0 89 -22 156 -58 219c-2 4 -3 8 -3 12c0 13 10 23 23 23c6 0 12 -2 16 -6c69 -57 164 -101 280 -101c12 0 22 -11 22 -23c0 -11 -7 -19 -17 -23c-96 -36 -176 -105 -226 -190c-4 -7 -11 -12 -20 -12c-13 0 -24 9 -24 22z" /> </svg>
