<?xml version="1.0" encoding="UTF-8"?> <!DOCTYPE svg PUBLIC "-//W3C//DTD SVG 1.1//EN" "http://www.w3.org/Graphics/SVG/1.1/DTD/svg11.dtd"> <svg xmlns="http://www.w3.org/2000/svg" xmlns:xlink="http://www.w3.org/1999/xlink" xmlns:ev="http://www.w3.org/2001/xml-events" version="1.1" baseProfile="full" height="1000.0" width="1000.0"> <path glyph-name="noteheads.s0sol" d="M318 67c0 25 -21 42 -43 42c-4 0 -9 -1 -13 -2c-31 -9 -79 -41 -117 -65s-85 -55 -106 -80c-7 -8 -11 -19 -11 -29c0 -25 21 -42 43 -42c4 0 8 1 12 2c31 9 79 41 117 65s86 55 107 80c7 8 11 19 11 29zM267 136c44 0 79 -20 79 -68c0 -19 -6 -38 -12 -57 c-13 -37 -32 -73 -65 -95c-54 -36 -115 -52 -190 -52c-44 0 -79 20 -79 68c0 19 6 38 12 57c13 37 31 73 64 95c54 36 116 52 191 52z" /> </svg>
