<?xml version="1.0" encoding="UTF-8"?> <!DOCTYPE svg PUBLIC "-//W3C//DTD SVG 1.1//EN" "http://www.w3.org/Graphics/SVG/1.1/DTD/svg11.dtd"> <svg xmlns="http://www.w3.org/2000/svg" xmlns:xlink="http://www.w3.org/1999/xlink" xmlns:ev="http://www.w3.org/2001/xml-events" version="1.1" baseProfile="full" height="1000.0" width="1000.0"> <path glyph-name="noteheads.s0diamond" d="M207 75c-29 0 -26 -45 -26 -74c0 -47 24 -56 60 -67c13 -4 28 -9 40 -9c29 0 27 45 27 74c0 47 -25 56 -61 67c-13 4 -28 9 -40 9zM489 0c0 -57 -79 -42 -124 -67c-41 -23 -73 -69 -121 -69s-80 46 -121 69c-45 25 -123 10 -123 67s78 42 123 67c41 23 73 69 121 69 s80 -46 121 -69c45 -25 124 -10 124 -67z" /> </svg>
