<?xml version="1.0" encoding="UTF-8"?> <!DOCTYPE svg PUBLIC "-//W3C//DTD SVG 1.1//EN" "http://www.w3.org/Graphics/SVG/1.1/DTD/svg11.dtd"> <svg xmlns="http://www.w3.org/2000/svg" xmlns:xlink="http://www.w3.org/1999/xlink" xmlns:ev="http://www.w3.org/2001/xml-events" version="1.1" baseProfile="full" height="1000.0" width="1000.0"> <path glyph-name="noteheads.d1reWalker" d="M28 0c0 -71 92 -80 174 -80c-22 20 -27 50 -27 80s5 60 27 80c-82 0 -174 -9 -174 -80zM0 0c0 95 122 114 233 114c8 0 14 -6 14 -14c0 -4 -2 -7 -5 -10c-25 -23 -39 -56 -39 -90s14 -67 39 -90c3 -3 5 -6 5 -10c0 -8 -6 -14 -14 -14c-111 0 -233 19 -233 114z" /> </svg>
