<?xml version="1.0" encoding="UTF-8"?> <!DOCTYPE svg PUBLIC "-//W3C//DTD SVG 1.1//EN" "http://www.w3.org/Graphics/SVG/1.1/DTD/svg11.dtd"> <svg xmlns="http://www.w3.org/2000/svg" xmlns:xlink="http://www.w3.org/1999/xlink" xmlns:ev="http://www.w3.org/2001/xml-events" version="1.1" baseProfile="full" height="1000.0" width="1000.0"> <path glyph-name="noteheads.s2cross" d="M165 31l126 102c2 2 5 3 8 3s6 -1 8 -3l17 -14c3 -2 5 -6 5 -10s-2 -8 -5 -10l-122 -99l122 -99c3 -2 5 -6 5 -10s-2 -8 -5 -10l-17 -14c-2 -2 -5 -3 -8 -3s-6 1 -8 3l-126 102l-127 -102c-2 -2 -5 -3 -8 -3s-6 1 -8 3l-17 14c-3 2 -5 6 -5 10s2 8 5 10l122 99l-122 99 c-3 2 -5 6 -5 10s2 8 5 10l17 14c2 2 5 3 8 3s6 -1 8 -3z" /> </svg>
