<?xml version="1.0" encoding="UTF-8"?> <!DOCTYPE svg PUBLIC "-//W3C//DTD SVG 1.1//EN" "http://www.w3.org/Graphics/SVG/1.1/DTD/svg11.dtd"> <svg xmlns="http://www.w3.org/2000/svg" xmlns:xlink="http://www.w3.org/1999/xlink" xmlns:ev="http://www.w3.org/2001/xml-events" version="1.1" baseProfile="full" height="1000.0" width="1000.0"> <path glyph-name="noteheads.svaticana.inner.cephalicus" d="M11 -112c-6 0 -11 5 -11 11v127c0 15 2 64 20 64c40 0 79 -12 112 -34c3 -2 5 -5 5 -9v-128c0 -6 -5 -11 -11 -11c-2 0 -4 1 -6 2c-28 19 -60 30 -93 31c-4 -14 -5 -28 -5 -42c0 -6 -5 -11 -11 -11z" /> </svg>
