<?xml version="1.0" encoding="UTF-8"?> <!DOCTYPE svg PUBLIC "-//W3C//DTD SVG 1.1//EN" "http://www.w3.org/Graphics/SVG/1.1/DTD/svg11.dtd"> <svg xmlns="http://www.w3.org/2000/svg" xmlns:xlink="http://www.w3.org/1999/xlink" xmlns:ev="http://www.w3.org/2001/xml-events" version="1.1" baseProfile="full" height="1000.0" width="1000.0"> <path glyph-name="noteheads.u0tiFunk" d="M200 0l-150 70c-14 -21 -22 -45 -22 -70s8 -49 22 -70zM240 12c4 -3 7 -7 7 -12s-3 -9 -7 -12l-175 -100c-2 -1 -4 -2 -6 -2c-5 0 -9 3 -13 7c-29 28 -46 67 -46 107s17 79 46 107c4 3 8 7 13 7c2 0 4 -1 6 -2z" /> </svg>
