<?xml version="1.0" encoding="UTF-8"?> <!DOCTYPE svg PUBLIC "-//W3C//DTD SVG 1.1//EN" "http://www.w3.org/Graphics/SVG/1.1/DTD/svg11.dtd"> <svg xmlns="http://www.w3.org/2000/svg" xmlns:xlink="http://www.w3.org/1999/xlink" xmlns:ev="http://www.w3.org/2001/xml-events" version="1.1" baseProfile="full" height="1000.0" width="1000.0"> <path glyph-name="noteheads.s0cross" d="M215 38c-2 -1 -4 -2 -7 -2s-6 1 -8 2l-115 80l-49 -33l107 -74c4 -2 6 -7 6 -11s-2 -9 -6 -11l-107 -73l49 -34l115 80c2 1 5 2 8 2s5 -1 7 -2l116 -80l49 34l-108 73c-4 2 -6 7 -6 11s2 9 6 11l108 74l-49 33zM208 65l116 79c2 1 4 3 7 3s5 -2 7 -3l72 -49 c4 -2 6 -6 6 -10s-2 -9 -6 -11l-108 -74l108 -74c4 -2 6 -6 6 -10s-2 -9 -6 -11l-72 -49c-2 -1 -4 -3 -7 -3s-5 2 -7 3l-116 79l-116 -79c-2 -1 -4 -3 -7 -3s-6 2 -8 3l-71 49c-4 2 -6 7 -6 11s2 8 6 10l107 74l-107 74c-4 2 -6 7 -6 11s2 8 6 10l71 49c2 1 5 3 8 3 s5 -2 7 -3z" /> </svg>
