<?xml version="1.0" encoding="UTF-8"?> <!DOCTYPE svg PUBLIC "-//W3C//DTD SVG 1.1//EN" "http://www.w3.org/Graphics/SVG/1.1/DTD/svg11.dtd"> <svg xmlns="http://www.w3.org/2000/svg" xmlns:xlink="http://www.w3.org/1999/xlink" xmlns:ev="http://www.w3.org/2001/xml-events" version="1.1" baseProfile="full" height="1000.0" width="1000.0"> <path glyph-name="noteheads.ssolesmes.oriscus" d="M0 -14c0 49 3 95 47 95c30 0 40 -28 70 -28c16 0 30 9 35 24c1 3 2 4 3 4c7 0 8 -52 8 -67c0 -49 -3 -95 -47 -95c-30 0 -40 28 -70 28c-16 0 -30 -9 -35 -24c-1 -3 -2 -4 -3 -4c-7 0 -8 52 -8 67z" /> </svg>
