<?xml version="1.0" encoding="UTF-8"?> <!DOCTYPE svg PUBLIC "-//W3C//DTD SVG 1.1//EN" "http://www.w3.org/Graphics/SVG/1.1/DTD/svg11.dtd"> <svg xmlns="http://www.w3.org/2000/svg" xmlns:xlink="http://www.w3.org/1999/xlink" xmlns:ev="http://www.w3.org/2001/xml-events" version="1.1" baseProfile="full" height="1000.0" width="1000.0"> <path glyph-name="noteheads.shufnagel.virga" d="M108 -375c-1 0 -1 0 -1 1v297l-104 70c-2 1 -3 4 -3 7s1 6 3 7l171 117c1 1 3 1 5 1s3 0 4 -1l171 -117c2 -1 3 -4 3 -7s-1 -6 -3 -7l-104 -70v-198c0 -2 -6 -9 -18 -19c-24 -21 -72 -54 -101 -70c-12 -7 -20 -11 -23 -11z" /> </svg>
