<?xml version="1.0" encoding="UTF-8"?> <!DOCTYPE svg PUBLIC "-//W3C//DTD SVG 1.1//EN" "http://www.w3.org/Graphics/SVG/1.1/DTD/svg11.dtd"> <svg xmlns="http://www.w3.org/2000/svg" xmlns:xlink="http://www.w3.org/1999/xlink" xmlns:ev="http://www.w3.org/2001/xml-events" version="1.1" baseProfile="full" height="1000.0" width="1000.0"> <path glyph-name="noteheads.u1triangle" d="M96 71c20 -46 32 -99 32 -161c42 42 93 79 149 106c-66 11 -127 30 -181 55zM0 140c0 13 14 22 30 22c4 0 8 -1 12 -3c89 -60 202 -104 341 -104c14 0 27 -9 27 -22s-13 -21 -25 -25c-113 -35 -206 -105 -270 -193c-4 -6 -12 -8 -20 -8c-15 0 -30 8 -30 22c0 3 1 5 1 7 c4 23 7 47 7 71c0 90 -26 157 -66 216c-3 5 -7 10 -7 17z" /> </svg>
