<?xml version="1.0" encoding="UTF-8"?> <!DOCTYPE svg PUBLIC "-//W3C//DTD SVG 1.1//EN" "http://www.w3.org/Graphics/SVG/1.1/DTD/svg11.dtd"> <svg xmlns="http://www.w3.org/2000/svg" xmlns:xlink="http://www.w3.org/1999/xlink" xmlns:ev="http://www.w3.org/2001/xml-events" version="1.1" baseProfile="full" height="1000.0" width="1000.0"> <path glyph-name="one" d="M0 250l109 250c1 2 3 3 5 3c3 0 7 -1 10 -3c13 -6 26 -13 40 -13s26 7 39 13c1 1 3 1 4 1c6 0 11 -7 11 -16v-376c0 -45 26 -88 68 -88c7 0 11 -5 11 -10s-4 -11 -11 -11c-41 0 -81 13 -122 13s-82 -13 -123 -13c-7 0 -11 6 -11 11s4 10 11 10c42 0 68 43 68 88v258 c0 11 -8 17 -15 17c-4 0 -7 -2 -9 -6l-61 -139c-2 -6 -6 -8 -11 -8c-7 0 -14 5 -14 13c0 2 0 4 1 6z" /> </svg>
