<?xml version="1.0" encoding="UTF-8"?> <!DOCTYPE svg PUBLIC "-//W3C//DTD SVG 1.1//EN" "http://www.w3.org/Graphics/SVG/1.1/DTD/svg11.dtd"> <svg xmlns="http://www.w3.org/2000/svg" xmlns:xlink="http://www.w3.org/1999/xlink" xmlns:ev="http://www.w3.org/2001/xml-events" version="1.1" baseProfile="full" height="1000.0" width="1000.0"> <path glyph-name="p" d="M233 243c-55 0 -102 -106 -102 -172c0 -23 8 -38 30 -38c65 0 97 125 97 177c0 18 -7 33 -25 33zM113 -146c-38 0 -78 5 -117 5s-81 -5 -118 -5c-8 0 -11 6 -11 12c0 16 31 14 46 15c22 1 46 1 53 20l105 308c2 6 4 13 4 18c0 9 -4 16 -13 16c-34 0 -67 -59 -83 -97 c-4 -10 -13 -15 -21 -15c-7 0 -12 4 -12 11c0 2 1 4 2 7c30 68 71 143 131 143c36 0 61 -21 68 -52c29 31 67 52 103 52c69 0 107 -49 107 -114c0 -21 -4 -44 -12 -67c-20 -57 -91 -118 -146 -118c-27 0 -52 6 -73 18c-4 2 -8 2 -12 2c-7 0 -13 -3 -15 -9l-33 -95 c-1 -2 -1 -4 -1 -6c0 -29 59 -15 59 -37c0 -6 -3 -12 -11 -12z" /> </svg>
