<?xml version="1.0" encoding="UTF-8"?> <!DOCTYPE svg PUBLIC "-//W3C//DTD SVG 1.1//EN" "http://www.w3.org/Graphics/SVG/1.1/DTD/svg11.dtd"> <svg xmlns="http://www.w3.org/2000/svg" xmlns:xlink="http://www.w3.org/1999/xlink" xmlns:ev="http://www.w3.org/2001/xml-events" version="1.1" baseProfile="full" height="1000.0" width="1000.0"> <path glyph-name="pedal.e" d="M72 0c-38 0 -51 50 -62 89c-4 -4 -11 2 -11 8c0 4 5 6 7 8c-5 19 -7 29 -7 48c0 59 33 132 96 132c25 0 48 -17 48 -44c0 -38 -46 -80 -83 -111l-10 -7c13 -24 35 -61 50 -73c4 -3 10 -2 15 0c11 6 66 47 75 56c3 3 11 -3 11 -8c0 -1 0 -3 -1 -4 c-12 -13 -85 -75 -100 -85c-8 -5 -18 -9 -28 -9zM76 255c-32 0 -46 -29 -46 -59c0 -20 5 -42 13 -60c27 23 68 57 68 87c0 20 -17 32 -35 32z" /> </svg>
