<?xml version="1.0" encoding="UTF-8"?> <!DOCTYPE svg PUBLIC "-//W3C//DTD SVG 1.1//EN" "http://www.w3.org/Graphics/SVG/1.1/DTD/svg11.dtd"> <svg xmlns="http://www.w3.org/2000/svg" xmlns:xlink="http://www.w3.org/1999/xlink" xmlns:ev="http://www.w3.org/2001/xml-events" version="1.1" baseProfile="full" height="1000.0" width="1000.0"> <path glyph-name="pedal.P" d="M43 342c0 -20 13 -48 39 -48c22 0 45 27 45 56c0 7 15 7 15 0c0 -59 -39 -117 -80 -117c-40 0 -60 42 -60 75c0 80 90 192 248 192c106 0 164 -81 164 -142c0 -29 -16 -65 -51 -65c-33 0 -66 45 -84 84c-3 6 11 12 14 6c8 -17 27 -30 45 -30c22 0 34 18 34 37 c0 39 -44 95 -122 95h-6c-9 -15 -42 -95 -42 -113c0 -46 100 -113 100 -162c0 -24 -29 -53 -60 -90c30 -4 83 -34 103 -50c5 -4 12 0 18 4l44 32c4 3 11 -4 11 -9c0 -1 0 -2 -1 -3c-13 -15 -96 -81 -113 -90c-5 -3 -11 -4 -15 0c-20 16 -29 92 -59 100 c-25 -30 -50 -57 -59 -66c-12 -12 -44 -38 -61 -38c-6 0 -12 5 -12 11c0 13 22 36 31 45c18 18 65 61 92 64c19 22 32 31 32 52c0 46 -88 110 -88 149c0 24 48 142 64 163c-116 -9 -186 -87 -186 -142z" /> </svg>
