<?xml version="1.0" encoding="UTF-8"?> <!DOCTYPE svg PUBLIC "-//W3C//DTD SVG 1.1//EN" "http://www.w3.org/Graphics/SVG/1.1/DTD/svg11.dtd"> <svg xmlns="http://www.w3.org/2000/svg" xmlns:xlink="http://www.w3.org/1999/xlink" xmlns:ev="http://www.w3.org/2001/xml-events" version="1.1" baseProfile="full" height="1000.0" width="1000.0"> <path glyph-name="pedal.Ped" d="M43 342c0 -20 13 -48 39 -48c22 0 45 27 45 56c0 7 15 7 15 0c0 -59 -39 -117 -80 -117c-40 0 -60 42 -60 75c0 80 90 192 248 192c106 0 164 -81 164 -142c0 -29 -16 -65 -51 -65c-33 0 -66 45 -84 84c-3 6 11 12 14 6c8 -17 27 -30 45 -30c22 0 34 18 34 37 c0 39 -44 95 -122 95h-6c-9 -15 -42 -95 -42 -113c0 -46 100 -113 100 -162c0 -24 -29 -53 -60 -90c30 -4 83 -34 103 -50c5 -4 12 0 18 4l41 30l2 1c-5 19 -7 29 -7 48c0 59 33 132 96 132c25 0 48 -17 48 -44c0 -38 -47 -80 -84 -111l-9 -7c13 -24 35 -61 50 -73 c4 -3 10 -2 15 0c9 5 49 34 67 49c-4 14 -6 29 -6 44c0 56 47 114 100 138c-52 71 -131 128 -211 142c-7 1 -5 16 2 15c143 -25 306 -135 331 -274c1 -8 2 -16 2 -24c0 -69 -50 -140 -113 -140c-43 0 -81 38 -99 83c-25 -23 -76 -66 -88 -74c-8 -5 -18 -9 -28 -9 c-37 0 -51 50 -62 88c-23 -22 -91 -76 -106 -84c-5 -3 -11 -4 -15 0c-20 16 -29 92 -59 100c-25 -30 -50 -57 -59 -66c-12 -12 -44 -38 -61 -38c-6 0 -12 5 -12 11c0 13 22 36 31 45c18 18 65 61 92 64c19 22 32 31 32 52c0 46 -88 110 -88 149c0 24 48 142 64 163 c-116 -9 -186 -87 -186 -142zM475 255c-32 0 -46 -29 -46 -59c0 -20 6 -42 14 -60c27 23 67 57 67 87c0 20 -17 32 -35 32zM685 268c-40 -20 -60 -78 -60 -125c0 -50 19 -113 62 -113c35 0 49 44 49 88c0 61 -21 105 -51 150z" /> </svg>
