<?xml version="1.0" encoding="UTF-8"?> <!DOCTYPE svg PUBLIC "-//W3C//DTD SVG 1.1//EN" "http://www.w3.org/Graphics/SVG/1.1/DTD/svg11.dtd"> <svg xmlns="http://www.w3.org/2000/svg" xmlns:xlink="http://www.w3.org/1999/xlink" xmlns:ev="http://www.w3.org/2001/xml-events" version="1.1" baseProfile="full" height="1000.0" width="1000.0"> <path glyph-name="pedal.d" d="M3 438c143 -25 305 -135 330 -274c1 -8 2 -16 2 -24c0 -69 -50 -140 -113 -140c-62 0 -111 76 -111 143c0 56 47 114 100 138c-52 71 -131 128 -211 142c-3 0 -4 3 -4 6c0 4 2 9 6 9h1zM220 268c-40 -20 -60 -78 -60 -125c0 -50 19 -113 62 -113c35 0 50 44 50 88 c0 61 -22 105 -52 150z" /> </svg>
