<?xml version="1.0" encoding="UTF-8"?> <!DOCTYPE svg PUBLIC "-//W3C//DTD SVG 1.1//EN" "http://www.w3.org/Graphics/SVG/1.1/DTD/svg11.dtd"> <svg xmlns="http://www.w3.org/2000/svg" xmlns:xlink="http://www.w3.org/1999/xlink" xmlns:ev="http://www.w3.org/2001/xml-events" version="1.1" baseProfile="full" height="1000.0" width="1000.0"> <path glyph-name="r" d="M226 305c32 0 60 -14 60 -42c0 -24 -21 -47 -43 -47c-13 0 -23 5 -28 15c-7 13 -5 30 -25 30c-21 0 -52 -22 -58 -44l-52 -202c-2 -9 -11 -15 -20 -15h-45c-9 0 -13 6 -11 15l58 224c1 4 1 8 1 12c0 11 -4 20 -15 20c-19 0 -43 -29 -49 -51c-4 -6 -9 -9 -14 -9 c-6 0 -11 4 -11 10c0 2 0 5 2 8c11 43 52 75 96 75c28 0 51 -13 62 -35c28 23 61 36 92 36z" /> </svg>
