<?xml version="1.0" encoding="UTF-8"?> <!DOCTYPE svg PUBLIC "-//W3C//DTD SVG 1.1//EN" "http://www.w3.org/Graphics/SVG/1.1/DTD/svg11.dtd"> <svg xmlns="http://www.w3.org/2000/svg" xmlns:xlink="http://www.w3.org/1999/xlink" xmlns:ev="http://www.w3.org/2001/xml-events" version="1.1" baseProfile="full" height="1000.0" width="1000.0"> <path glyph-name="rests.4neomensural" d="M22 125c-11 0 -22 9 -22 22c0 8 5 15 12 19l156 82c3 2 7 2 10 2c11 0 22 -9 22 -22v-206c0 -12 -10 -22 -22 -22s-21 10 -21 22v77l-125 -65c-3 -2 -7 -3 -10 -3c-11 0 -22 9 -22 22c0 8 5 15 12 19l145 76v45l-125 -66c-3 -2 -7 -2 -10 -2z" /> </svg>
