<?xml version="1.0" encoding="UTF-8"?> <!DOCTYPE svg PUBLIC "-//W3C//DTD SVG 1.1//EN" "http://www.w3.org/Graphics/SVG/1.1/DTD/svg11.dtd"> <svg xmlns="http://www.w3.org/2000/svg" xmlns:xlink="http://www.w3.org/1999/xlink" xmlns:ev="http://www.w3.org/2001/xml-events" version="1.1" baseProfile="full" height="1000.0" width="1000.0"> <path glyph-name="rests.5" d="M59 -500l86 328c-36 -13 -73 -24 -112 -24c-46 0 -87 34 -87 80c0 39 31 71 71 71c26 0 48 -16 56 -40c10 -28 7 -60 36 -60c17 0 57 54 62 72l39 150c-35 -13 -72 -23 -109 -23c-46 0 -87 34 -87 80c0 39 32 71 72 71c26 0 48 -16 56 -40c10 -28 7 -60 36 -60 c17 0 54 53 58 70l40 152c-34 -12 -70 -23 -106 -23c-46 0 -87 34 -87 80c0 39 31 71 71 71c26 0 49 -16 57 -40c10 -28 6 -60 35 -60c16 0 49 54 55 70c4 11 20 11 24 0l-219 -925c-7 -6 -15 -9 -23 -9s-17 3 -24 9z" /> </svg>
