<?xml version="1.0" encoding="UTF-8"?> <!DOCTYPE svg PUBLIC "-//W3C//DTD SVG 1.1//EN" "http://www.w3.org/Graphics/SVG/1.1/DTD/svg11.dtd"> <svg xmlns="http://www.w3.org/2000/svg" xmlns:xlink="http://www.w3.org/1999/xlink" xmlns:ev="http://www.w3.org/2001/xml-events" version="1.1" baseProfile="full" height="1000.0" width="1000.0"> <path glyph-name="rests.3" d="M76 -250l116 327c-35 -12 -70 -23 -107 -23c-46 0 -87 34 -87 80c0 39 31 71 71 71c26 0 49 -16 57 -40c10 -28 6 -60 35 -60c17 0 58 54 65 70c5 11 20 10 24 0l-126 -425c-7 -6 -16 -9 -24 -9s-17 3 -24 9z" /> </svg>
