<?xml version="1.0" encoding="UTF-8"?> <!DOCTYPE svg PUBLIC "-//W3C//DTD SVG 1.1//EN" "http://www.w3.org/Graphics/SVG/1.1/DTD/svg11.dtd"> <svg xmlns="http://www.w3.org/2000/svg" xmlns:xlink="http://www.w3.org/1999/xlink" xmlns:ev="http://www.w3.org/2001/xml-events" version="1.1" baseProfile="full" height="1000.0" width="1000.0"> <path glyph-name="rests.6" d="M65 -750l73 329c-38 -13 -77 -25 -117 -25c-46 0 -87 34 -87 80c0 39 32 71 72 71c26 0 48 -16 56 -40c10 -28 7 -60 36 -60c18 0 58 56 62 75l33 148c-36 -13 -73 -24 -112 -24c-46 0 -87 34 -87 80c0 39 31 71 71 71c26 0 49 -16 57 -40c10 -28 6 -60 35 -60 c17 0 54 55 58 73l34 149c-35 -12 -71 -23 -108 -23c-46 0 -88 34 -88 80c0 39 32 71 72 71c26 0 48 -16 56 -40c10 -28 7 -60 36 -60c16 0 49 53 53 70l34 151c-34 -12 -68 -22 -104 -22c-46 0 -87 34 -87 80c0 39 31 71 71 71c26 0 49 -16 57 -40c10 -28 6 -60 35 -60 c16 0 44 55 50 70c4 11 20 11 24 0l-238 -1175c-7 -6 -16 -9 -24 -9s-16 3 -23 9z" /> </svg>
