<?xml version="1.0" encoding="UTF-8"?> <!DOCTYPE svg PUBLIC "-//W3C//DTD SVG 1.1//EN" "http://www.w3.org/Graphics/SVG/1.1/DTD/svg11.dtd"> <svg xmlns="http://www.w3.org/2000/svg" xmlns:xlink="http://www.w3.org/1999/xlink" xmlns:ev="http://www.w3.org/2001/xml-events" version="1.1" baseProfile="full" height="1000.0" width="1000.0"> <path glyph-name="rests.7" d="M88 -750l61 330c-39 -14 -79 -26 -121 -26c-46 0 -87 34 -87 80c0 39 31 71 71 71c26 0 49 -16 57 -40c10 -28 6 -60 35 -60c18 0 60 58 64 77l27 147c-38 -13 -76 -25 -116 -25c-46 0 -88 34 -88 80c0 39 32 71 72 71c26 0 48 -16 56 -40c10 -28 7 -60 36 -60 c17 0 55 56 58 75l28 148c-36 -13 -74 -24 -112 -24c-46 0 -87 34 -87 80c0 39 31 71 71 71c26 0 49 -16 57 -40c10 -28 6 -60 35 -60c16 0 51 54 54 72l28 150c-35 -12 -71 -23 -108 -23c-46 0 -87 34 -87 80c0 39 32 71 72 71c26 0 48 -16 56 -40c10 -28 7 -60 36 -60 c16 0 46 53 49 70l28 151c-33 -12 -68 -22 -103 -22c-46 0 -87 34 -87 80c0 39 31 71 71 71c26 0 49 -16 57 -40c10 -28 6 -60 35 -60c16 0 39 55 45 70c4 11 20 11 24 0l-239 -1425c-7 -6 -16 -9 -24 -9s-17 3 -24 9z" /> </svg>
