<?xml version="1.0" encoding="UTF-8"?> <!DOCTYPE svg PUBLIC "-//W3C//DTD SVG 1.1//EN" "http://www.w3.org/Graphics/SVG/1.1/DTD/svg11.dtd"> <svg xmlns="http://www.w3.org/2000/svg" xmlns:xlink="http://www.w3.org/1999/xlink" xmlns:ev="http://www.w3.org/2001/xml-events" version="1.1" baseProfile="full" height="1000.0" width="1000.0"> <path glyph-name="s" d="M162 74c0 58 -99 63 -99 120c0 55 46 98 101 98s78 -34 78 -62c0 -20 -12 -37 -31 -37c-18 0 -32 11 -32 22c0 3 1 5 3 7c6 8 9 18 9 26c0 13 -7 24 -19 24c-27 0 -48 -23 -48 -50c0 -17 16 -29 31 -38c33 -20 68 -43 68 -81c0 -60 -57 -103 -120 -103 c-43 0 -82 26 -82 65c0 21 12 42 31 42c18 0 32 -15 32 -33c0 -13 -21 -15 -21 -28c0 -16 18 -23 36 -23c33 0 63 20 63 51z" /> </svg>
