<?xml version="1.0" encoding="UTF-8"?> <!DOCTYPE svg PUBLIC "-//W3C//DTD SVG 1.1//EN" "http://www.w3.org/Graphics/SVG/1.1/DTD/svg11.dtd"> <svg xmlns="http://www.w3.org/2000/svg" xmlns:xlink="http://www.w3.org/1999/xlink" xmlns:ev="http://www.w3.org/2001/xml-events" version="1.1" baseProfile="full" height="1000.0" width="1000.0"> <path glyph-name="scripts.varsegno" d="M-287 -791c0 36 26 67 67 67c48 0 74 -37 74 -75c0 -21 -8 -42 -25 -56c62 -57 141 -96 238 -96c82 0 169 39 169 129c0 65 -58 121 -118 163l-307 215c-75 52 -125 133 -125 211c0 67 42 125 90 151c-55 51 -90 118 -90 183c0 67 42 124 90 150c-55 51 -90 118 -90 183 c0 67 42 126 90 151c-53 51 -83 119 -83 188c0 44 12 89 39 128c49 71 133 102 219 102c16 0 33 -1 49 -3c113 -15 213 -78 277 -172c7 -12 10 -25 10 -37c0 -36 -26 -67 -67 -67c-48 0 -74 37 -74 75c0 21 8 42 25 56c-62 57 -141 96 -238 96c-82 0 -169 -39 -169 -129 c0 -65 58 -121 118 -163l307 -215c75 -52 125 -133 125 -211c0 -67 -42 -125 -90 -151c55 -51 90 -118 90 -183c0 -67 -42 -124 -90 -150c55 -51 90 -118 90 -183c0 -67 -42 -126 -90 -151c53 -51 83 -119 83 -188c0 -44 -12 -89 -39 -128c-49 -71 -133 -102 -219 -102 c-16 0 -33 1 -49 3c-113 15 -213 78 -277 172c-7 12 -10 25 -10 37zM217 126c28 0 56 22 56 53c0 53 -83 112 -155 162l-156 109c-61 42 -130 91 -179 91c-28 0 -56 -23 -56 -54c0 -53 83 -112 155 -162l154 -107c61 -43 131 -92 181 -92zM217 -541c28 0 56 23 56 54 c0 53 -83 112 -155 162l-154 107c-61 43 -131 92 -181 92c-28 0 -56 -22 -56 -53c0 -53 83 -112 155 -162l154 -108c61 -43 131 -92 181 -92zM-217 207c-28 0 -56 -22 -56 -53c0 -53 83 -112 155 -162l165 -115c58 -41 123 -84 170 -84c28 0 56 22 56 53 c0 53 -83 112 -155 162l-165 115c-58 41 -123 84 -170 84z" /> </svg>
