<?xml version="1.0" encoding="UTF-8"?> <!DOCTYPE svg PUBLIC "-//W3C//DTD SVG 1.1//EN" "http://www.w3.org/Graphics/SVG/1.1/DTD/svg11.dtd"> <svg xmlns="http://www.w3.org/2000/svg" xmlns:xlink="http://www.w3.org/1999/xlink" xmlns:ev="http://www.w3.org/2001/xml-events" version="1.1" baseProfile="full" height="1000.0" width="1000.0"> <path glyph-name="scripts.upbow" d="M133 509c2 6 7 11 14 11c8 0 16 -7 16 -15c0 -1 -1 -3 -1 -4l-147 -486c0 -10 -5 -15 -15 -15s-15 5 -15 15l-147 486c0 1 -1 3 -1 4c0 8 8 15 16 15c7 0 12 -5 14 -11l90 -300l43 -167l43 167z" /> </svg>
