<?xml version="1.0" encoding="UTF-8"?> <!DOCTYPE svg PUBLIC "-//W3C//DTD SVG 1.1//EN" "http://www.w3.org/Graphics/SVG/1.1/DTD/svg11.dtd"> <svg xmlns="http://www.w3.org/2000/svg" xmlns:xlink="http://www.w3.org/1999/xlink" xmlns:ev="http://www.w3.org/2001/xml-events" version="1.1" baseProfile="full" height="1000.0" width="1000.0"> <path glyph-name="scripts.thumb" d="M20 -125l3 -52c1 -13 -10 -23 -23 -23s-24 10 -23 23l3 52c0 1 1 1 1 2c-49 11 -81 65 -81 123c0 65 40 125 100 125s100 -60 100 -125c0 -58 -32 -112 -81 -123c0 -1 1 -1 1 -2zM49 0c0 46 -9 97 -49 97s-49 -51 -49 -97s9 -97 49 -97s49 51 49 97z" /> </svg>
