<?xml version="1.0" encoding="UTF-8"?> <!DOCTYPE svg PUBLIC "-//W3C//DTD SVG 1.1//EN" "http://www.w3.org/Graphics/SVG/1.1/DTD/svg11.dtd"> <svg xmlns="http://www.w3.org/2000/svg" xmlns:xlink="http://www.w3.org/1999/xlink" xmlns:ev="http://www.w3.org/2001/xml-events" version="1.1" baseProfile="full" height="1000.0" width="1000.0"> <path glyph-name="scripts.lineprall" d="M320 45c4 5 10 9 16 9c10 0 19 -9 19 -19c0 -4 -2 -8 -4 -11l-93 -141c-4 -5 -10 -8 -16 -8s-11 3 -15 7l-99 120l-79 -119c-4 -5 -10 -8 -16 -8s-10 3 -14 7l-99 120l-79 -119c-4 -5 -10 -8 -16 -8s-10 3 -14 7l-99 120l-32 -47c-4 -5 -10 -9 -16 -9c-10 0 -19 9 -19 19 v500c0 10 9 19 19 19s19 -9 19 -19v-437l59 89c4 5 10 8 16 8s11 -3 15 -7l99 -120l79 119c4 5 10 8 16 8s10 -3 14 -7l99 -120l79 119c4 5 10 8 16 8s10 -3 14 -7l99 -120z" /> </svg>
