<?xml version="1.0" encoding="UTF-8"?> <!DOCTYPE svg PUBLIC "-//W3C//DTD SVG 1.1//EN" "http://www.w3.org/Graphics/SVG/1.1/DTD/svg11.dtd"> <svg xmlns="http://www.w3.org/2000/svg" xmlns:xlink="http://www.w3.org/1999/xlink" xmlns:ev="http://www.w3.org/2001/xml-events" version="1.1" baseProfile="full" height="1000.0" width="1000.0"> <path glyph-name="scripts.arpeggio.arrow.1" d="M157 -29c5 -4 7 -8 7 -12c0 -8 -7 -15 -15 -15c-3 0 -8 2 -11 5l-86 91c-11 12 -17 27 -20 43l-79 -38c-5 -2 -13 -4 -13 5c0 2 1 4 2 5c53 63 124 114 152 192c1 2 4 3 7 3c2 0 3 -1 4 -2c28 -78 99 -129 152 -192c1 -2 3 -4 3 -6c0 -7 -7 -8 -12 -6l-94 45 c-18 -23 -44 -44 -44 -66c0 -9 4 -18 16 -27z" /> </svg>
