<?xml version="1.0" encoding="UTF-8"?> <!DOCTYPE svg PUBLIC "-//W3C//DTD SVG 1.1//EN" "http://www.w3.org/Graphics/SVG/1.1/DTD/svg11.dtd"> <svg xmlns="http://www.w3.org/2000/svg" xmlns:xlink="http://www.w3.org/1999/xlink" xmlns:ev="http://www.w3.org/2001/xml-events" version="1.1" baseProfile="full" height="1000.0" width="1000.0"> <path glyph-name="scripts.downmordent" d="M123 -148c0 -10 -9 -19 -19 -19s-19 9 -19 19v85l-36 -54c-4 -5 -10 -8 -16 -8s-10 3 -14 7l-99 120l-79 -119c-4 -5 -10 -8 -16 -8s-10 3 -14 7l-99 120l-32 -47c-4 -5 -10 -9 -16 -9c-7 0 -13 4 -16 9c-27 41 -40 88 -40 135s14 95 41 136c3 5 9 8 15 8 c15 0 25 -16 16 -29c-23 -35 -34 -75 -34 -115c0 -30 7 -61 20 -89l76 116c4 5 10 8 16 8s11 -3 15 -7l99 -120l79 119c4 5 10 8 16 8s10 -3 14 -7l99 -120l5 8v142c0 10 9 19 19 19s19 -9 19 -19v-85l36 54c4 5 10 8 16 8s10 -3 14 -7l99 -120l32 47c4 5 10 9 16 9 c10 0 19 -9 19 -19c0 -4 -2 -8 -4 -11l-93 -141c-4 -5 -10 -8 -16 -8s-11 3 -15 7l-99 120l-5 -8v-142z" /> </svg>
