<?xml version="1.0" encoding="UTF-8"?> <!DOCTYPE svg PUBLIC "-//W3C//DTD SVG 1.1//EN" "http://www.w3.org/Graphics/SVG/1.1/DTD/svg11.dtd"> <svg xmlns="http://www.w3.org/2000/svg" xmlns:xlink="http://www.w3.org/1999/xlink" xmlns:ev="http://www.w3.org/2001/xml-events" version="1.1" baseProfile="full" height="1000.0" width="1000.0"> <path glyph-name="scripts.dlongfermata" d="M-62 -62c0 34 28 62 62 62s62 -28 62 -62s-28 -62 -62 -62s-62 28 -62 62zM-305 -375c-4 0 -8 4 -8 8v351c0 9 8 16 17 16s16 -7 16 -16v-262h560v262c0 9 7 16 16 16s16 -7 16 -16v-351c0 -4 -3 -8 -7 -8h-610z" /> </svg>
