<?xml version="1.0" encoding="UTF-8"?> <!DOCTYPE svg PUBLIC "-//W3C//DTD SVG 1.1//EN" "http://www.w3.org/Graphics/SVG/1.1/DTD/svg11.dtd"> <svg xmlns="http://www.w3.org/2000/svg" xmlns:xlink="http://www.w3.org/1999/xlink" xmlns:ev="http://www.w3.org/2001/xml-events" version="1.1" baseProfile="full" height="1000.0" width="1000.0"> <path glyph-name="scripts.usignumcongruentiae" d="M93 0c0 18 14 32 32 32s32 -14 32 -32s-14 -32 -32 -32s-32 14 -32 32zM-157 0c0 18 14 32 32 32s32 -14 32 -32s-14 -32 -32 -32s-32 14 -32 32zM45 475c-63 0 -130 -44 -130 -102c0 -81 97 -89 141 -129c31 -27 45 -63 45 -101c0 -69 -48 -145 -127 -187 c-1 -1 -2 -1 -3 -1c-11 0 28 63 32 67c15 18 23 40 23 62c0 26 -11 53 -32 72c-25 23 -59 32 -87 50c-39 25 -65 67 -65 112c0 6 0 12 1 18c15 97 94 167 184 208c25 11 52 20 77 20c20 0 37 -5 52 -20c1 -1 1 -2 1 -3c0 -26 -33 -63 -48 -77c-7 -7 -13 -10 -15 -8 c-14 14 -31 19 -49 19z" /> </svg>
