<?xml version="1.0" encoding="UTF-8"?> <!DOCTYPE svg PUBLIC "-//W3C//DTD SVG 1.1//EN" "http://www.w3.org/Graphics/SVG/1.1/DTD/svg11.dtd"> <svg xmlns="http://www.w3.org/2000/svg" xmlns:xlink="http://www.w3.org/1999/xlink" xmlns:ev="http://www.w3.org/2001/xml-events" version="1.1" baseProfile="full" height="1000.0" width="1000.0"> <path glyph-name="scripts.caesura.curved" d="M284 311c16 0 27 -13 27 -27c0 -161 -65 -329 -130 -474c-3 -6 -9 -10 -15 -10c-13 0 -19 13 -15 23c65 146 95 304 106 463c1 14 13 25 27 25zM16 -200c-10 0 -16 8 -16 16c0 2 0 5 1 7c65 146 95 304 106 463c1 14 13 25 27 25c16 0 27 -13 27 -27 c0 -161 -65 -329 -130 -474c-3 -6 -9 -10 -15 -10z" /> </svg>
