<?xml version="1.0" encoding="UTF-8"?> <!DOCTYPE svg PUBLIC "-//W3C//DTD SVG 1.1//EN" "http://www.w3.org/Graphics/SVG/1.1/DTD/svg11.dtd"> <svg xmlns="http://www.w3.org/2000/svg" xmlns:xlink="http://www.w3.org/1999/xlink" xmlns:ev="http://www.w3.org/2001/xml-events" version="1.1" baseProfile="full" height="1000.0" width="1000.0"> <path glyph-name="scripts.pralldown" d="M-320 45l32 -47l99 120c4 4 8 7 14 7s12 -3 16 -8l79 -119l99 120c4 4 8 7 14 7s12 -3 16 -8l79 -119l99 120c4 4 9 7 15 7s12 -3 16 -8l93 -141c27 -41 41 -89 41 -136s-14 -94 -41 -135c-3 -5 -9 -9 -15 -9c-15 0 -25 17 -16 30c23 35 34 74 34 114s-11 80 -34 115 l-32 47l-99 -120c-4 -4 -8 -7 -14 -7s-12 3 -16 8l-79 119l-99 -120c-4 -4 -8 -7 -14 -7s-12 3 -16 8l-79 119l-99 -120c-4 -4 -9 -7 -15 -7s-12 3 -16 8l-93 141c-2 3 -4 7 -4 11c0 10 9 19 19 19c6 0 12 -4 16 -9z" /> </svg>
