<?xml version="1.0" encoding="UTF-8"?> <!DOCTYPE svg PUBLIC "-//W3C//DTD SVG 1.1//EN" "http://www.w3.org/Graphics/SVG/1.1/DTD/svg11.dtd"> <svg xmlns="http://www.w3.org/2000/svg" xmlns:xlink="http://www.w3.org/1999/xlink" xmlns:ev="http://www.w3.org/2001/xml-events" version="1.1" baseProfile="full" height="1000.0" width="1000.0"> <path glyph-name="scripts.reverseturn" d="M139 132c74 0 134 -58 134 -132c0 -70 -48 -132 -115 -132c-34 0 -66 20 -66 51c0 34 28 52 53 52c19 0 37 -11 46 -31c29 3 53 28 53 60c0 33 -30 57 -64 57c-64 0 -110 -53 -156 -98c-47 -45 -97 -91 -163 -91c-74 0 -134 58 -134 132c0 70 48 132 115 132 c34 0 66 -20 66 -51c0 -34 -28 -52 -53 -52c-19 0 -37 11 -46 31c-29 -3 -53 -28 -53 -60c0 -33 30 -57 64 -57c64 0 110 53 156 98c47 45 97 91 163 91z" /> </svg>
