<?xml version="1.0" encoding="UTF-8"?> <!DOCTYPE svg PUBLIC "-//W3C//DTD SVG 1.1//EN" "http://www.w3.org/Graphics/SVG/1.1/DTD/svg11.dtd"> <svg xmlns="http://www.w3.org/2000/svg" xmlns:xlink="http://www.w3.org/1999/xlink" xmlns:ev="http://www.w3.org/2001/xml-events" version="1.1" baseProfile="full" height="1000.0" width="1000.0"> <path glyph-name="scripts.prallup" d="M-320 45l32 -47l99 120c4 4 8 7 14 7s12 -3 16 -8l79 -119l99 120c4 4 8 7 14 7s12 -3 16 -8l79 -119l99 120c4 4 9 7 15 7s12 -3 16 -8l76 -116c13 28 20 59 20 89c0 40 -11 80 -34 115c-9 13 1 29 16 29c6 0 12 -3 15 -8c27 -41 41 -89 41 -136s-13 -94 -40 -135 c-3 -5 -9 -9 -16 -9c-6 0 -12 4 -16 9l-32 47l-99 -120c-4 -4 -8 -7 -14 -7s-12 3 -16 8l-79 119l-99 -120c-4 -4 -8 -7 -14 -7s-12 3 -16 8l-79 119l-99 -120c-4 -4 -9 -7 -15 -7s-12 3 -16 8l-93 141c-2 3 -4 7 -4 11c0 10 9 19 19 19c6 0 12 -4 16 -9z" /> </svg>
