<?xml version="1.0" encoding="UTF-8"?> <!DOCTYPE svg PUBLIC "-//W3C//DTD SVG 1.1//EN" "http://www.w3.org/Graphics/SVG/1.1/DTD/svg11.dtd"> <svg xmlns="http://www.w3.org/2000/svg" xmlns:xlink="http://www.w3.org/1999/xlink" xmlns:ev="http://www.w3.org/2001/xml-events" version="1.1" baseProfile="full" height="1000.0" width="1000.0"> <path glyph-name="scripts.coda" d="M13 -338c0 -7 -6 -12 -13 -12s-13 5 -13 12v89c-99 9 -149 120 -153 236h-88c-7 0 -13 6 -13 13s6 13 13 13h88c4 116 54 227 153 236v89c0 7 6 12 13 12s13 -5 13 -12v-89c99 -9 149 -120 153 -236h88c7 0 13 -6 13 -13s-6 -13 -13 -13h-88c-4 -116 -54 -227 -153 -236 v-89zM13 13h80c0 96 -6 199 -80 210v-210zM13 -13v-210c74 11 80 114 80 210h-80zM-13 13v210c-74 -11 -80 -114 -80 -210h80zM-13 -13h-80c0 -96 6 -199 80 -210v210z" /> </svg>
