<?xml version="1.0" encoding="UTF-8"?> <!DOCTYPE svg PUBLIC "-//W3C//DTD SVG 1.1//EN" "http://www.w3.org/Graphics/SVG/1.1/DTD/svg11.dtd"> <svg xmlns="http://www.w3.org/2000/svg" xmlns:xlink="http://www.w3.org/1999/xlink" xmlns:ev="http://www.w3.org/2001/xml-events" version="1.1" baseProfile="full" height="1000.0" width="1000.0"> <path glyph-name="scripts.ufermata" d="M-63 47c0 35 28 63 63 63s63 -28 63 -63s-28 -63 -63 -63s-63 28 -63 63zM0 360c156 0 329 -173 329 -362c0 -8 -8 -14 -16 -14c-7 0 -15 5 -17 16c-26 149 -147 265 -296 265s-270 -116 -296 -265c-2 -11 -10 -16 -17 -16c-8 0 -16 6 -16 14c0 189 174 362 329 362z" /> </svg>
