<?xml version="1.0" encoding="UTF-8"?> <!DOCTYPE svg PUBLIC "-//W3C//DTD SVG 1.1//EN" "http://www.w3.org/Graphics/SVG/1.1/DTD/svg11.dtd"> <svg xmlns="http://www.w3.org/2000/svg" xmlns:xlink="http://www.w3.org/1999/xlink" xmlns:ev="http://www.w3.org/2001/xml-events" version="1.1" baseProfile="full" height="1000.0" width="1000.0"> <path glyph-name="scripts.sforzato" d="M-212 91c-8 2 -13 9 -13 17c0 9 7 17 17 17c1 0 3 -1 4 -1l412 -107c12 0 17 -5 17 -17s-5 -17 -17 -17l-412 -107c-1 0 -3 -1 -4 -1c-10 0 -17 8 -17 17c0 8 5 15 13 17l256 66l140 25l-140 25z" /> </svg>
