<?xml version="1.0" encoding="UTF-8"?> <!DOCTYPE svg PUBLIC "-//W3C//DTD SVG 1.1//EN" "http://www.w3.org/Graphics/SVG/1.1/DTD/svg11.dtd"> <svg xmlns="http://www.w3.org/2000/svg" xmlns:xlink="http://www.w3.org/1999/xlink" xmlns:ev="http://www.w3.org/2001/xml-events" version="1.1" baseProfile="full" height="1000.0" width="1000.0"> <path glyph-name="scripts.snappizzicato" d="M14 0c0 -8 -6 -14 -14 -14s-14 6 -14 14v104c-51 -7 -91 -51 -91 -104c0 -58 47 -105 105 -105s105 47 105 105c0 53 -40 97 -91 104v-104zM-14 133v67c0 8 6 14 14 14s14 -6 14 -14v-67c67 -7 119 -64 119 -133c0 -74 -59 -133 -133 -133s-133 59 -133 133 c0 69 52 126 119 133z" /> </svg>
