<?xml version="1.0" encoding="UTF-8"?> <!DOCTYPE svg PUBLIC "-//W3C//DTD SVG 1.1//EN" "http://www.w3.org/Graphics/SVG/1.1/DTD/svg11.dtd"> <svg xmlns="http://www.w3.org/2000/svg" xmlns:xlink="http://www.w3.org/1999/xlink" xmlns:ev="http://www.w3.org/2001/xml-events" version="1.1" baseProfile="full" height="1000.0" width="1000.0"> <path glyph-name="scripts.trill" d="M-322 223c0 50 47 78 94 78c31 0 59 -10 83 -25l47 234c6 -3 13 -5 20 -5c22 0 48 16 68 35l-54 -268l66 36c26 14 51 21 74 21c29 0 53 -11 64 -30c17 21 44 32 70 32c35 0 67 -20 67 -66c0 -44 -27 -89 -64 -89c-25 0 -37 22 -37 48c0 41 28 63 59 63h4 c-8 14 -23 21 -38 21c-25 0 -51 -16 -57 -45l-53 -269c-11 7 -25 10 -39 10s-29 -3 -43 -10l54 269v6c0 16 -13 27 -30 27c-7 0 -15 -2 -23 -6l-79 -44l-7 -35c27 -31 50 -66 50 -108c0 -61 -47 -113 -98 -113c-39 0 -56 43 -56 90c0 14 1 28 4 41l16 78 c-32 -13 -63 -25 -103 -25c-34 0 -59 17 -59 49zM-300 227c0 -23 18 -32 41 -32c40 0 72 14 104 28l5 28c-23 17 -50 29 -82 29c-33 0 -68 -17 -68 -53zM-84 39c23 0 36 33 36 61c0 31 -15 57 -34 81l-6 -30c-4 -18 -12 -54 -12 -81c0 -18 4 -31 16 -31z" /> </svg>
