<?xml version="1.0" encoding="UTF-8"?> <!DOCTYPE svg PUBLIC "-//W3C//DTD SVG 1.1//EN" "http://www.w3.org/Graphics/SVG/1.1/DTD/svg11.dtd"> <svg xmlns="http://www.w3.org/2000/svg" xmlns:xlink="http://www.w3.org/1999/xlink" xmlns:ev="http://www.w3.org/2001/xml-events" version="1.1" baseProfile="full" height="1000.0" width="1000.0"> <path glyph-name="scripts.ulongfermata" d="M-62 62c0 34 28 62 62 62s62 -28 62 -62s-28 -62 -62 -62s-62 28 -62 62zM-305 375h610c4 0 7 -4 7 -8v-351c0 -9 -7 -16 -16 -16s-16 7 -16 16v262h-560v-262c0 -9 -7 -16 -16 -16s-17 7 -17 16v351c0 4 4 8 8 8z" /> </svg>
