<?xml version="1.0" encoding="UTF-8"?> <!DOCTYPE svg PUBLIC "-//W3C//DTD SVG 1.1//EN" "http://www.w3.org/Graphics/SVG/1.1/DTD/svg11.dtd"> <svg xmlns="http://www.w3.org/2000/svg" xmlns:xlink="http://www.w3.org/1999/xlink" xmlns:ev="http://www.w3.org/2001/xml-events" version="1.1" baseProfile="full" height="1000.0" width="1000.0"> <path glyph-name="scripts.uverylongfermata" d="M-60 60c0 33 27 60 60 60s60 -27 60 -60s-27 -60 -60 -60s-60 27 -60 60zM-242 225h484c4 0 8 -4 8 -8v-201c0 -9 -7 -16 -16 -16s-16 7 -16 16v134h-436v-134c0 -9 -7 -16 -16 -16s-16 7 -16 16v201c0 4 4 8 8 8zM-367 400h734c4 0 8 -4 8 -8v-376c0 -9 -7 -16 -16 -16 s-16 7 -16 16v259h-686v-259c0 -9 -7 -16 -16 -16s-16 7 -16 16v376c0 4 4 8 8 8z" /> </svg>
