<?xml version="1.0" encoding="UTF-8"?> <!DOCTYPE svg PUBLIC "-//W3C//DTD SVG 1.1//EN" "http://www.w3.org/Graphics/SVG/1.1/DTD/svg11.dtd"> <svg xmlns="http://www.w3.org/2000/svg" xmlns:xlink="http://www.w3.org/1999/xlink" xmlns:ev="http://www.w3.org/2001/xml-events" version="1.1" baseProfile="full" height="1000.0" width="1000.0"> <path glyph-name="scripts.varcoda" d="M13 -334c0 -7 -6 -13 -13 -13s-13 6 -13 13v84h-146c-4 0 -8 4 -8 8v229h-84c-7 0 -13 6 -13 13s6 13 13 13h84v229c0 4 4 8 8 8h146v84c0 7 6 13 13 13s13 -6 13 -13v-84h146c4 0 8 -4 8 -8v-229h84c7 0 13 -6 13 -13s-6 -13 -13 -13h-84v-229c0 -4 -4 -8 -8 -8h-146 v-84zM13 13h70v211h-70v-211zM13 -13v-211h70v211h-70zM-13 13v211h-70v-211h70zM-13 -13h-70v-211h70v211z" /> </svg>
