<?xml version="1.0" encoding="UTF-8"?> <!DOCTYPE svg PUBLIC "-//W3C//DTD SVG 1.1//EN" "http://www.w3.org/Graphics/SVG/1.1/DTD/svg11.dtd"> <svg xmlns="http://www.w3.org/2000/svg" xmlns:xlink="http://www.w3.org/1999/xlink" xmlns:ev="http://www.w3.org/2001/xml-events" version="1.1" baseProfile="full" height="1000.0" width="1000.0"> <path glyph-name="scripts.espr" d="M-43 91l-253 -66l-141 -25l141 -25l253 -66c7 -2 13 -9 13 -17c0 -9 -8 -17 -17 -17c-1 0 -3 1 -4 1l-407 107c-12 0 -17 5 -17 17s5 17 17 17l407 107c1 0 3 1 4 1c9 0 17 -8 17 -17c0 -8 -6 -15 -13 -17zM43 91c-7 2 -13 9 -13 17c0 9 8 17 17 17c1 0 3 -1 4 -1 l407 -107c12 0 17 -5 17 -17s-5 -17 -17 -17l-407 -107c-1 0 -3 -1 -4 -1c-9 0 -17 8 -17 17c0 8 6 15 13 17l253 66l141 25l-141 25z" /> </svg>
