<?xml version="1.0" encoding="UTF-8"?> <!DOCTYPE svg PUBLIC "-//W3C//DTD SVG 1.1//EN" "http://www.w3.org/Graphics/SVG/1.1/DTD/svg11.dtd"> <svg xmlns="http://www.w3.org/2000/svg" xmlns:xlink="http://www.w3.org/1999/xlink" xmlns:ev="http://www.w3.org/2001/xml-events" version="1.1" baseProfile="full" height="1000.0" width="1000.0"> <path glyph-name="scripts.arpeggio" d="M43 279c-4 3 -6 7 -6 11c0 8 7 16 15 16c3 0 7 -2 10 -5l128 -105c8 -7 11 -13 11 -20c0 -24 -40 -51 -69 -78c-16 -15 -23 -35 -23 -55c0 -17 6 -33 17 -47l31 -25c4 -3 6 -7 6 -11c0 -8 -7 -15 -15 -15c-3 0 -7 1 -10 4l-128 105c-8 7 -11 13 -11 20c0 24 40 51 69 78 c16 15 23 35 23 55c0 17 -6 33 -17 47z" /> </svg>
