<?xml version="1.0" encoding="UTF-8"?> <!DOCTYPE svg PUBLIC "-//W3C//DTD SVG 1.1//EN" "http://www.w3.org/Graphics/SVG/1.1/DTD/svg11.dtd"> <svg xmlns="http://www.w3.org/2000/svg" xmlns:xlink="http://www.w3.org/1999/xlink" xmlns:ev="http://www.w3.org/2001/xml-events" version="1.1" baseProfile="full" height="1000.0" width="1000.0"> <path glyph-name="scripts.dpedaltoe" d="M93 -364l-67 212l-26 107l-26 -107l-67 -212c-2 -7 -9 -11 -16 -11c-9 0 -16 7 -16 16c0 2 1 3 1 5l108 338c0 11 5 16 16 16s16 -5 16 -16l108 -338c0 -2 1 -3 1 -5c0 -9 -7 -16 -16 -16c-7 0 -14 4 -16 11z" /> </svg>
