<?xml version="1.0" encoding="UTF-8"?> <!DOCTYPE svg PUBLIC "-//W3C//DTD SVG 1.1//EN" "http://www.w3.org/Graphics/SVG/1.1/DTD/svg11.dtd"> <svg xmlns="http://www.w3.org/2000/svg" xmlns:xlink="http://www.w3.org/1999/xlink" xmlns:ev="http://www.w3.org/2001/xml-events" version="1.1" baseProfile="full" height="1000.0" width="1000.0"> <path glyph-name="scripts.halfopen" d="M125 168c6 0 11 -6 11 -12c0 -2 0 -5 -2 -7l-56 -70c14 -22 22 -50 22 -79c0 -65 -40 -125 -100 -125c-25 0 -46 10 -63 27l-53 -65c-2 -3 -6 -5 -9 -5c-6 0 -11 6 -11 12c0 2 0 5 2 7l56 70c-14 22 -22 50 -22 79c0 65 40 125 100 125c25 0 46 -10 63 -27l53 65 c2 3 6 5 9 5zM-42 -71c9 -16 23 -26 42 -26c42 0 58 49 58 97c0 16 -2 32 -6 47zM-52 -47l94 118c-9 16 -23 26 -42 26c-42 0 -58 -49 -58 -97c0 -16 2 -32 6 -47z" /> </svg>
