<?xml version="1.0" encoding="UTF-8"?> <!DOCTYPE svg PUBLIC "-//W3C//DTD SVG 1.1//EN" "http://www.w3.org/Graphics/SVG/1.1/DTD/svg11.dtd"> <svg xmlns="http://www.w3.org/2000/svg" xmlns:xlink="http://www.w3.org/1999/xlink" xmlns:ev="http://www.w3.org/2001/xml-events" version="1.1" baseProfile="full" height="1000.0" width="1000.0"> <path glyph-name="scripts.caesura.straight" d="M147 -186l236 472c4 9 13 14 23 14h30c6 0 10 -5 10 -10c0 -1 0 -3 -1 -4l-236 -472c-4 -9 -13 -14 -23 -14h-30c-7 0 -12 7 -9 14zM7 -186l236 472c4 9 13 14 23 14h30c6 0 10 -5 10 -10c0 -1 0 -3 -1 -4l-236 -472c-4 -9 -13 -14 -23 -14h-30c-6 0 -10 5 -10 10 c0 1 0 3 1 4z" /> </svg>
