<?xml version="1.0" encoding="UTF-8"?> <!DOCTYPE svg PUBLIC "-//W3C//DTD SVG 1.1//EN" "http://www.w3.org/Graphics/SVG/1.1/DTD/svg11.dtd"> <svg xmlns="http://www.w3.org/2000/svg" xmlns:xlink="http://www.w3.org/1999/xlink" xmlns:ev="http://www.w3.org/2001/xml-events" version="1.1" baseProfile="full" height="1000.0" width="1000.0"> <path glyph-name="scripts.dsignumcongruentiae" d="M-93 0c0 -18 -14 -32 -32 -32s-32 14 -32 32s14 32 32 32s32 -14 32 -32zM157 0c0 -18 -14 -32 -32 -32s-32 14 -32 32s14 32 32 32s32 -14 32 -32zM-45 -475c63 0 130 44 130 102c0 81 -97 89 -141 129c-31 27 -45 63 -45 101c0 69 48 145 127 187c1 1 2 1 3 1 c11 0 -28 -63 -32 -67c-15 -18 -23 -40 -23 -62c0 -26 11 -53 32 -72c25 -23 59 -32 87 -50c39 -25 65 -67 65 -112c0 -6 0 -12 -1 -18c-15 -97 -94 -167 -184 -208c-25 -11 -52 -20 -77 -20c-20 0 -37 5 -52 20c-1 1 -1 2 -1 3c0 26 33 63 48 77c7 7 13 10 15 8 c14 -14 31 -19 49 -19z" /> </svg>
