<?xml version="1.0" encoding="UTF-8"?> <!DOCTYPE svg PUBLIC "-//W3C//DTD SVG 1.1//EN" "http://www.w3.org/Graphics/SVG/1.1/DTD/svg11.dtd"> <svg xmlns="http://www.w3.org/2000/svg" xmlns:xlink="http://www.w3.org/1999/xlink" xmlns:ev="http://www.w3.org/2001/xml-events" version="1.1" baseProfile="full" height="1000.0" width="1000.0"> <path glyph-name="scripts.segno" d="M-204 -43c0 16 12 28 28 28s29 -12 29 -28s-13 -29 -29 -29s-28 13 -28 29zM147 43c0 16 13 29 29 29s28 -13 28 -29s-12 -28 -28 -28s-29 12 -29 28zM-33 -227c0 33 16 57 52 57c38 0 55 -30 55 -60c0 -27 -14 -54 -39 -62c8 -31 37 -54 71 -54c40 0 70 36 70 78 c0 100 -85 168 -176 219l-193 -326h-57l206 350c-105 57 -206 132 -206 245c0 85 63 155 144 155c79 0 139 -68 139 -148c0 -33 -16 -57 -52 -57c-38 0 -55 30 -55 60c0 27 14 54 39 62c-8 31 -37 54 -71 54c-40 0 -70 -36 -70 -78c0 -100 85 -168 176 -219l193 326h57 l-206 -350c105 -57 206 -132 206 -245c0 -85 -63 -155 -144 -155c-79 0 -139 68 -139 148z" /> </svg>
