<?xml version="1.0" encoding="UTF-8"?> <!DOCTYPE svg PUBLIC "-//W3C//DTD SVG 1.1//EN" "http://www.w3.org/Graphics/SVG/1.1/DTD/svg11.dtd"> <svg xmlns="http://www.w3.org/2000/svg" xmlns:xlink="http://www.w3.org/1999/xlink" xmlns:ev="http://www.w3.org/2001/xml-events" version="1.1" baseProfile="full" height="1000.0" width="1000.0"> <path glyph-name="scripts.turn" d="M139 -132c-66 0 -116 46 -163 91c-46 45 -92 98 -156 98c-34 0 -64 -24 -64 -57c0 -32 24 -57 53 -60c9 20 27 31 46 31c25 0 53 -18 53 -52c0 -31 -32 -51 -66 -51c-67 0 -115 62 -115 132c0 74 60 132 134 132c66 0 116 -46 163 -91c46 -45 92 -98 156 -98 c34 0 64 24 64 57c0 32 -24 57 -53 60c-9 -20 -27 -31 -46 -31c-25 0 -53 18 -53 52c0 31 32 51 66 51c67 0 115 -62 115 -132c0 -74 -60 -132 -134 -132z" /> </svg>
