<?xml version="1.0" encoding="UTF-8"?> <!DOCTYPE svg PUBLIC "-//W3C//DTD SVG 1.1//EN" "http://www.w3.org/Graphics/SVG/1.1/DTD/svg11.dtd"> <svg xmlns="http://www.w3.org/2000/svg" xmlns:xlink="http://www.w3.org/1999/xlink" xmlns:ev="http://www.w3.org/2001/xml-events" version="1.1" baseProfile="full" height="1000.0" width="1000.0"> <path glyph-name="scripts.arpeggio.arrow.M1" d="M43 279c-5 4 -7 8 -7 12c0 8 7 15 15 15c3 0 8 -2 11 -5l86 -91c11 -12 17 -27 20 -43l79 38c5 2 13 4 13 -5c0 -2 -1 -4 -2 -5c-53 -63 -124 -114 -152 -192c-1 -2 -4 -3 -7 -3c-2 0 -3 1 -4 2c-28 78 -99 129 -152 192c-1 2 -3 4 -3 6c0 7 7 8 12 6l94 -45 c18 23 44 44 44 66c0 9 -4 18 -16 27z" /> </svg>
