<?xml version="1.0" encoding="UTF-8"?> <!DOCTYPE svg PUBLIC "-//W3C//DTD SVG 1.1//EN" "http://www.w3.org/Graphics/SVG/1.1/DTD/svg11.dtd"> <svg xmlns="http://www.w3.org/2000/svg" xmlns:xlink="http://www.w3.org/1999/xlink" xmlns:ev="http://www.w3.org/2001/xml-events" version="1.1" baseProfile="full" height="1000.0" width="1000.0"> <path glyph-name="scripts.dshortfermata" d="M87 -62c0 -34 -28 -62 -62 -62s-62 28 -62 62s28 62 62 62s62 -28 62 -62zM234 0c9 0 16 -7 16 -16c0 -2 0 -5 -1 -7l-234 -517c-3 -6 -9 -10 -15 -10s-12 4 -15 10l-234 517c-1 2 -1 5 -1 7c0 9 7 16 16 16h50c6 0 12 -4 15 -10l195 -428l193 428c3 6 9 10 15 10z" /> </svg>
