<?xml version="1.0" encoding="UTF-8"?> <!DOCTYPE svg PUBLIC "-//W3C//DTD SVG 1.1//EN" "http://www.w3.org/Graphics/SVG/1.1/DTD/svg11.dtd"> <svg xmlns="http://www.w3.org/2000/svg" xmlns:xlink="http://www.w3.org/1999/xlink" xmlns:ev="http://www.w3.org/2001/xml-events" version="1.1" baseProfile="full" height="1000.0" width="1000.0"> <path glyph-name="scripts.upmordent" d="M123 -148c0 -10 -9 -19 -19 -19s-19 9 -19 19v85l-36 -54c-4 -5 -10 -8 -16 -8s-10 3 -14 7l-99 120l-79 -119c-4 -5 -10 -8 -16 -8s-10 3 -14 7l-99 120l-32 -47c-23 -35 -34 -75 -34 -115s11 -79 34 -114c9 -13 -1 -30 -16 -30c-6 0 -12 4 -15 9c-27 41 -41 88 -41 135 s14 95 41 136l93 141c4 5 10 8 16 8s11 -3 15 -7l99 -120l79 119c4 5 10 8 16 8s10 -3 14 -7l99 -120l5 8v142c0 10 9 19 19 19s19 -9 19 -19v-85l36 54c4 5 10 8 16 8s10 -3 14 -7l99 -120l32 47c4 5 10 9 16 9c10 0 19 -9 19 -19c0 -4 -2 -8 -4 -11l-93 -141 c-4 -5 -10 -8 -16 -8s-11 3 -15 7l-99 120l-5 -8v-142z" /> </svg>
