<?xml version="1.0" encoding="UTF-8"?> <!DOCTYPE svg PUBLIC "-//W3C//DTD SVG 1.1//EN" "http://www.w3.org/Graphics/SVG/1.1/DTD/svg11.dtd"> <svg xmlns="http://www.w3.org/2000/svg" xmlns:xlink="http://www.w3.org/1999/xlink" xmlns:ev="http://www.w3.org/2001/xml-events" version="1.1" baseProfile="full" height="1000.0" width="1000.0"> <path glyph-name="seven" d="M64 417c-30 0 -37 -40 -37 -67v-87c0 -9 -7 -13 -14 -13s-13 4 -13 13v224c0 9 6 13 13 13s14 -4 14 -13v-14c0 -9 10 -18 13 -14c19 27 47 41 76 41s59 -13 84 -37c13 -12 28 -18 44 -18c30 0 63 19 84 49c3 4 6 6 10 6c7 0 14 -6 14 -13c0 -2 0 -5 -2 -8 c-84 -120 -165 -253 -165 -393c0 -24 2 -48 7 -73c2 -8 -4 -16 -11 -16c-1 0 -3 1 -4 1c-23 7 -45 15 -69 15s-46 -8 -69 -15c-1 0 -3 -1 -4 -1c-8 0 -14 8 -11 16c56 132 138 250 221 366c-21 -12 -42 -19 -62 -19c-21 0 -41 7 -59 24c-19 18 -41 33 -60 33z" /> </svg>
