<?xml version="1.0" encoding="UTF-8"?> <!DOCTYPE svg PUBLIC "-//W3C//DTD SVG 1.1//EN" "http://www.w3.org/Graphics/SVG/1.1/DTD/svg11.dtd"> <svg xmlns="http://www.w3.org/2000/svg" xmlns:xlink="http://www.w3.org/1999/xlink" xmlns:ev="http://www.w3.org/2001/xml-events" version="1.1" baseProfile="full" height="1000.0" width="1000.0"> <path glyph-name="six" d="M166 255c-56 0 -57 -51 -57 -117s1 -117 57 -117c58 0 64 50 64 117s-6 117 -64 117zM109 263c19 7 37 14 57 14c99 0 167 -46 167 -139s-68 -138 -167 -138c-111 0 -166 125 -166 250c0 128 69 250 186 250c69 0 136 -38 136 -101c0 -36 -29 -65 -65 -65s-65 29 -65 65 c0 23 39 26 39 49c0 20 -23 31 -45 31c-70 0 -78 -71 -78 -151c0 -22 1 -43 1 -65z" /> </svg>
