<?xml version="1.0" encoding="UTF-8" standalone="no"?>
<!-- Created with Inkscape (http://www.inkscape.org/) -->

<svg
   xmlns:dc="http://purl.org/dc/elements/1.1/"
   xmlns:cc="http://creativecommons.org/ns#"
   xmlns:rdf="http://www.w3.org/1999/02/22-rdf-syntax-ns#"
   xmlns:svg="http://www.w3.org/2000/svg"
   xmlns="http://www.w3.org/2000/svg"
   version="1.1"
   width="16.25"
   height="17.5"
   id="svg2"
   xml:space="preserve"><metadata
     id="metadata8"><rdf:RDF><cc:Work
         rdf:about=""><dc:format>image/svg+xml</dc:format><dc:type
           rdf:resource="http://purl.org/dc/dcmitype/StillImage" /><dc:title></dc:title></cc:Work></rdf:RDF></metadata><defs
     id="defs6" /><g
     transform="matrix(1.25,0,0,-1.25,0,17.5)"
     id="g10"><g
       transform="scale(0.1,0.1)"
       id="g12"><path
         d="M 0.898438,11.1719 C -0.230469,12.3398 -0.230469,12.6914 0.550781,16.7891 6.05078,44.7188 20.9805,67.5 40,77.1797 c 7.0312,3.5586 12.2305,4.8515 21.4492,5.2422 9.7227,0.3867 14.5703,-0.5117 22.8516,-4.3828 11.8711,-5.5 21.5582,-14.918 29.4882,-28.5508 5.27,-9.0586 9.801,-21.4492 12.031,-32.6992 0.821,-4.0977 0.782,-4.4493 -0.351,-5.6172 -1.559,-1.56252 -4.141,-1.56252 -5.508,0.039 -0.582,0.6993 -1.91,4.25 -2.93,7.8907 -4.301,15.3867 -12.543,26.789 -25.4294,35.2695 -9.5704,6.2891 -18.711,8.668 -31.25,8.1289 C 48.7109,61.9883 39.5312,58.3906 29.7695,50.5781 20.3086,43.0391 12.5391,30.8906 8.98047,18.1211 8.12109,15 6.91016,11.9102 6.28906,11.2109 4.83984,9.60938 2.5,9.60938 0.898438,11.1719 z M 64.5312,13.3203 c 1.25,1.168 1.4493,-0.8594 -0.7031,1.168 0,0 -3.3984,0.2305 -0.8984,0.8203 5.5117,1.293 -3.1289,-3.75 0.3515,0.043 2.4571,1.7187 -2.7695,0.039 0.9376,0.039 5.082,0 -1.4102,3 1.5624,-1.0625 1.5977,-2.1875 0.9805,-1.9883 -1.9531,-0.1484 0,0 0.0821,1.25 -0.3086,0.2695 0,0 -0.4687,1.25 1.5586,0.5899 -2.3789,-1.0196 -0.8164,-0.75 1.3711,0.1914"
         id="path14"
         style="fill:#000000;fill-opacity:1;fill-rule:nonzero;stroke:none" /><path
         d="m 87.6992,106.789 c 0,-11.5976 -10.4687,-20.9687 -23.4375,-20.9687 -12.9726,0 -23.4414,9.3711 -23.4414,20.9687 0,11.57 10.4688,20.981 23.4414,20.981 12.9688,0 23.4375,-9.411 23.4375,-20.981"
         id="path16"
         style="fill:#ffffff;fill-opacity:1;fill-rule:nonzero;stroke:none" /><path
         d="m 87.6992,106.793 c 0,-11.5977 -10.4687,-20.9805 -23.4375,-20.9805 -12.9726,0 -23.4414,9.3828 -23.4414,20.9805 0,11.562 10.4688,20.98 23.4414,20.98 12.9688,0 23.4375,-9.418 23.4375,-20.98 z"
         id="path18"
         style="fill:none;stroke:#000000;stroke-width:8;stroke-linecap:butt;stroke-linejoin:miter;stroke-miterlimit:4;stroke-opacity:1;stroke-dasharray:none" /></g></g></svg>