<?xml version="1.0" encoding="UTF-8"?> <!DOCTYPE svg PUBLIC "-//W3C//DTD SVG 1.1//EN" "http://www.w3.org/Graphics/SVG/1.1/DTD/svg11.dtd"> <svg xmlns="http://www.w3.org/2000/svg" xmlns:xlink="http://www.w3.org/1999/xlink" xmlns:ev="http://www.w3.org/2001/xml-events" version="1.1" baseProfile="full" height="1000.0" width="1000.0"> <path glyph-name="three" d="M147 479c-28 0 -58 -9 -58 -33c0 -22 36 -25 36 -47c0 -32 -25 -57 -57 -57s-57 25 -57 57c0 63 66 101 136 101c90 0 165 -35 165 -115c0 -44 -3 -83 -41 -101c-8 -4 -13 -12 -13 -20s5 -16 13 -20c41 -19 55 -58 55 -104c0 -91 -77 -140 -175 -140 c-77 0 -151 41 -151 111c0 36 29 65 65 65s65 -29 65 -65c0 -25 -40 -28 -40 -53c0 -26 31 -37 61 -37c50 0 66 61 66 119c0 62 -1 110 -54 110h-82c-9 0 -13 7 -13 14s4 13 13 13h82c52 0 54 47 54 108c0 56 -18 94 -70 94z" /> </svg>
