<?xml version="1.0" encoding="UTF-8"?> <!DOCTYPE svg PUBLIC "-//W3C//DTD SVG 1.1//EN" "http://www.w3.org/Graphics/SVG/1.1/DTD/svg11.dtd"> <svg xmlns="http://www.w3.org/2000/svg" xmlns:xlink="http://www.w3.org/1999/xlink" xmlns:ev="http://www.w3.org/2001/xml-events" version="1.1" baseProfile="full" height="1000.0" width="1000.0"> <path glyph-name="timesig.mensural24" d="M418 0c0 -100 -76 -173 -166 -189v-117c0 -4 -3 -8 -7 -8h-28c-4 0 -8 4 -8 8v113c-57 0 -113 19 -153 59l-1 1c0 4 16 6 22 6c8 0 16 0 20 -4c30 -30 70 -51 112 -51v364c-42 0 -82 -21 -112 -51c-3 -3 -12 -4 -20 -4c-6 0 -22 2 -22 6l1 1c40 40 96 59 153 59v27 c0 26 -23 49 -23 74c0 7 2 20 9 20h71c7 0 10 -13 10 -20c0 -25 -24 -48 -24 -74v-31c90 -16 166 -89 166 -189zM252 -175c68 22 123 96 123 175s-55 153 -123 175v-350z" /> </svg>
