<?xml version="1.0" encoding="UTF-8"?> <!DOCTYPE svg PUBLIC "-//W3C//DTD SVG 1.1//EN" "http://www.w3.org/Graphics/SVG/1.1/DTD/svg11.dtd"> <svg xmlns="http://www.w3.org/2000/svg" xmlns:xlink="http://www.w3.org/1999/xlink" xmlns:ev="http://www.w3.org/2001/xml-events" version="1.1" baseProfile="full" height="1000.0" width="1000.0"> <path glyph-name="timesig.mensural94" d="M166 0c0 24 19 43 43 43s43 -19 43 -43s-19 -43 -43 -43s-43 19 -43 43zM209 -182c93 0 164 92 166 182c-2 90 -73 182 -166 182s-166 -92 -166 -182s73 -182 166 -182zM209 193c111 0 210 -79 209 -193c1 -114 -98 -193 -209 -193s-209 79 -209 193s98 193 209 193z" /> </svg>
