<?xml version="1.0" encoding="UTF-8"?> <!DOCTYPE svg PUBLIC "-//W3C//DTD SVG 1.1//EN" "http://www.w3.org/Graphics/SVG/1.1/DTD/svg11.dtd"> <svg xmlns="http://www.w3.org/2000/svg" xmlns:xlink="http://www.w3.org/1999/xlink" xmlns:ev="http://www.w3.org/2001/xml-events" version="1.1" baseProfile="full" height="1000.0" width="1000.0"> <path glyph-name="timesig.neomensural94" d="M166 0c0 24 19 43 43 43s43 -19 43 -43s-19 -43 -43 -43s-43 19 -43 43zM209 -166c90 0 166 76 166 166s-76 166 -166 166s-166 -76 -166 -166s76 -166 166 -166zM209 209c114 0 209 -95 209 -209s-95 -209 -209 -209s-209 95 -209 209s95 209 209 209z" /> </svg>
