<?xml version="1.0" encoding="UTF-8"?> <!DOCTYPE svg PUBLIC "-//W3C//DTD SVG 1.1//EN" "http://www.w3.org/Graphics/SVG/1.1/DTD/svg11.dtd"> <svg xmlns="http://www.w3.org/2000/svg" xmlns:xlink="http://www.w3.org/1999/xlink" xmlns:ev="http://www.w3.org/2001/xml-events" version="1.1" baseProfile="full" height="1000.0" width="1000.0"> <path glyph-name="timesig.neomensural68alt" d="M166 0c0 24 19 43 43 43s43 -19 43 -43s-19 -43 -43 -43s-43 19 -43 43zM55 -133c0 12 10 22 22 22c6 0 11 -2 15 -6c31 -31 73 -49 117 -49c90 0 166 76 166 166s-76 166 -166 166c-44 0 -86 -18 -117 -49c-4 -4 -9 -6 -15 -6c-12 0 -22 10 -22 22c0 6 2 11 6 15 c39 39 93 61 148 61c114 0 209 -95 209 -209s-95 -209 -209 -209c-55 0 -109 22 -148 61c-4 4 -6 9 -6 15z" /> </svg>
