<?xml version="1.0" encoding="UTF-8"?> <!DOCTYPE svg PUBLIC "-//W3C//DTD SVG 1.1//EN" "http://www.w3.org/Graphics/SVG/1.1/DTD/svg11.dtd"> <svg xmlns="http://www.w3.org/2000/svg" xmlns:xlink="http://www.w3.org/1999/xlink" xmlns:ev="http://www.w3.org/2001/xml-events" version="1.1" baseProfile="full" height="1000.0" width="1000.0"> <path glyph-name="timesig.mensural64" d="M166 0c0 24 19 43 43 43s43 -19 43 -43s-19 -43 -43 -43s-43 19 -43 43zM363 133c0 -4 -15 -6 -21 -6c-8 0 -18 1 -21 4c-30 30 -69 51 -112 51c-92 0 -166 -92 -166 -182s74 -182 166 -182c43 0 82 21 112 51c3 3 13 4 21 4c6 0 21 -2 21 -6v-1 c-40 -40 -96 -59 -153 -59c-111 0 -210 79 -210 193s99 193 210 193c57 0 113 -19 153 -59v-1z" /> </svg>
