<?xml version="1.0" encoding="UTF-8"?> <!DOCTYPE svg PUBLIC "-//W3C//DTD SVG 1.1//EN" "http://www.w3.org/Graphics/SVG/1.1/DTD/svg11.dtd"> <svg xmlns="http://www.w3.org/2000/svg" xmlns:xlink="http://www.w3.org/1999/xlink" xmlns:ev="http://www.w3.org/2001/xml-events" version="1.1" baseProfile="full" height="1000.0" width="1000.0"> <path glyph-name="timesig.C22" d="M360 25c-51 0 -76 43 -76 77c0 39 28 78 74 78c6 0 13 0 18 -1c-29 37 -76 60 -126 60h-10v-478h10c82 0 145 68 164 151c1 6 6 9 10 9c6 0 11 -4 11 -11c0 -94 -107 -171 -185 -171h-10v-81c0 -4 -4 -8 -8 -8h-18c-4 0 -8 4 -8 8v84c-53 7 -103 27 -140 66 c-49 51 -66 122 -66 192s17 141 66 192c37 39 87 59 140 66v84c0 4 4 8 8 8h18c4 0 8 -4 8 -8v-81h10c88 0 163 -63 178 -149c1 -5 2 -8 2 -13c0 -40 -32 -74 -70 -74zM206 -234v468c-64 -19 -69 -86 -69 -180c0 -17 1 -35 1 -54s-1 -37 -1 -54c0 -94 5 -161 69 -180z" /> </svg>
