<?xml version="1.0" encoding="UTF-8"?> <!DOCTYPE svg PUBLIC "-//W3C//DTD SVG 1.1//EN" "http://www.w3.org/Graphics/SVG/1.1/DTD/svg11.dtd"> <svg xmlns="http://www.w3.org/2000/svg" xmlns:xlink="http://www.w3.org/1999/xlink" xmlns:ev="http://www.w3.org/2001/xml-events" version="1.1" baseProfile="full" height="1000.0" width="1000.0"> <path glyph-name="timesig.mensural22" d="M342 -127c6 0 21 -2 21 -6v-1c-40 -40 -97 -59 -154 -59v-113c0 -4 -3 -8 -7 -8h-29c-4 0 -7 4 -7 8v117c-90 16 -166 89 -166 189s76 173 166 189v31c0 26 -24 49 -24 74c0 7 3 20 10 20h71c7 0 10 -13 10 -20c0 -25 -24 -48 -24 -74v-27c57 0 114 -19 154 -59v-1 c0 -4 -15 -6 -21 -6c-8 0 -18 1 -21 4c-30 30 -70 51 -112 51v-364c42 0 82 21 112 51c3 3 13 4 21 4zM166 175c-68 -22 -123 -96 -123 -175s55 -153 123 -175v350z" /> </svg>
