<?xml version="1.0" encoding="UTF-8"?> <!DOCTYPE svg PUBLIC "-//W3C//DTD SVG 1.1//EN" "http://www.w3.org/Graphics/SVG/1.1/DTD/svg11.dtd"> <svg xmlns="http://www.w3.org/2000/svg" xmlns:xlink="http://www.w3.org/1999/xlink" xmlns:ev="http://www.w3.org/2001/xml-events" version="1.1" baseProfile="full" height="1000.0" width="1000.0"> <path glyph-name="timesig.mensural34" d="M231 -180c81 13 143 94 144 180c-1 86 -63 167 -144 180v-360zM231 192c100 -9 188 -85 187 -192c1 -107 -87 -183 -187 -192v-114c0 -4 -4 -8 -8 -8h-28c-4 0 -7 4 -7 8l-1 114c-100 9 -187 85 -187 192s87 183 187 192l1 28c0 26 -24 49 -24 74c0 7 2 20 9 20h72 c7 0 9 -13 9 -20c0 -25 -23 -48 -23 -74v-28zM187 180c-80 -13 -144 -94 -144 -180s65 -167 145 -180z" /> </svg>
