<?xml version="1.0" encoding="UTF-8"?> <!DOCTYPE svg PUBLIC "-//W3C//DTD SVG 1.1//EN" "http://www.w3.org/Graphics/SVG/1.1/DTD/svg11.dtd"> <svg xmlns="http://www.w3.org/2000/svg" xmlns:xlink="http://www.w3.org/1999/xlink" xmlns:ev="http://www.w3.org/2001/xml-events" version="1.1" baseProfile="full" height="1000.0" width="1000.0"> <path glyph-name="timesig.neomensural98" d="M231 -164c79 10 144 79 144 164s-65 154 -144 164v-127c13 -7 21 -21 21 -37s-8 -30 -21 -37v-127zM209 209c114 0 209 -95 209 -209s-95 -209 -209 -209s-209 95 -209 209s95 209 209 209zM188 164c-79 -10 -145 -79 -145 -164s66 -154 145 -164v127 c-13 7 -22 21 -22 37s9 30 22 37v127z" /> </svg>
