<?xml version="1.0" encoding="UTF-8"?> <!DOCTYPE svg PUBLIC "-//W3C//DTD SVG 1.1//EN" "http://www.w3.org/Graphics/SVG/1.1/DTD/svg11.dtd"> <svg xmlns="http://www.w3.org/2000/svg" xmlns:xlink="http://www.w3.org/1999/xlink" xmlns:ev="http://www.w3.org/2001/xml-events" version="1.1" baseProfile="full" height="1000.0" width="1000.0"> <path glyph-name="timesig.mensural68" d="M342 -127c6 0 21 -2 21 -6v-1c-35 -35 -83 -54 -132 -58v-114c0 -4 -4 -8 -8 -8h-28c-4 0 -7 4 -7 8v114c-100 9 -188 85 -188 192s88 183 188 192v28c0 26 -24 49 -24 74c0 7 2 20 9 20h72c7 0 9 -13 9 -20c0 -25 -23 -48 -23 -74v-28c49 -4 97 -23 132 -58v-1 c0 -4 -15 -6 -21 -6c-8 0 -18 1 -21 4c-25 25 -56 43 -90 49v-143c13 -7 21 -21 21 -37s-8 -30 -21 -37v-143c34 6 65 24 90 49c3 3 13 4 21 4zM187 180c-80 -13 -144 -94 -144 -180s64 -167 144 -180l1 143c-13 7 -22 21 -22 37s9 30 22 37z" /> </svg>
