<?xml version="1.0" encoding="UTF-8"?> <!DOCTYPE svg PUBLIC "-//W3C//DTD SVG 1.1//EN" "http://www.w3.org/Graphics/SVG/1.1/DTD/svg11.dtd"> <svg xmlns="http://www.w3.org/2000/svg" xmlns:xlink="http://www.w3.org/1999/xlink" xmlns:ev="http://www.w3.org/2001/xml-events" version="1.1" baseProfile="full" height="1000.0" width="1000.0"> <path glyph-name="timesig.neomensural68" d="M188 164c-79 -10 -145 -79 -145 -164s66 -154 145 -164v127c-13 7 -22 21 -22 37s9 30 22 37v127zM363 133c0 -12 -9 -22 -21 -22c-6 0 -12 2 -16 6c-26 26 -59 42 -95 47v-127c13 -7 21 -21 21 -37s-8 -30 -21 -37v-127c36 5 69 21 95 47c4 4 10 6 16 6 c12 0 21 -10 21 -22c0 -6 -2 -11 -6 -15c-39 -39 -93 -61 -148 -61c-114 0 -209 95 -209 209s95 209 209 209c55 0 109 -22 148 -61c4 -4 6 -9 6 -15z" /> </svg>
