<?xml version="1.0" encoding="UTF-8"?> <!DOCTYPE svg PUBLIC "-//W3C//DTD SVG 1.1//EN" "http://www.w3.org/Graphics/SVG/1.1/DTD/svg11.dtd"> <svg xmlns="http://www.w3.org/2000/svg" xmlns:xlink="http://www.w3.org/1999/xlink" xmlns:ev="http://www.w3.org/2001/xml-events" version="1.1" baseProfile="full" height="1000.0" width="1000.0"> <path glyph-name="timesig.mensural68alt" d="M166 0c0 24 19 43 43 43s43 -19 43 -43s-19 -43 -43 -43s-43 19 -43 43zM55 -133c0 4 16 6 22 6c8 0 16 0 20 -4c30 -30 70 -51 113 -51c92 0 165 92 165 182s-73 182 -165 182c-43 0 -83 -21 -113 -51c-3 -3 -12 -4 -20 -4c-6 0 -22 2 -22 6l1 1c40 40 96 59 153 59 c111 0 209 -79 209 -193s-98 -193 -209 -193c-57 0 -113 19 -153 59z" /> </svg>
