<?xml version="1.0" encoding="UTF-8"?> <!DOCTYPE svg PUBLIC "-//W3C//DTD SVG 1.1//EN" "http://www.w3.org/Graphics/SVG/1.1/DTD/svg11.dtd"> <svg xmlns="http://www.w3.org/2000/svg" xmlns:xlink="http://www.w3.org/1999/xlink" xmlns:ev="http://www.w3.org/2001/xml-events" version="1.1" baseProfile="full" height="1000.0" width="1000.0"> <path glyph-name="timesig.neomensural22" d="M166 160c-67 -18 -123 -82 -123 -160s56 -142 123 -160v320zM363 133c0 -12 -9 -22 -21 -22c-6 0 -12 2 -16 6c-31 31 -73 49 -117 49v-332c44 0 86 18 117 49c4 4 10 6 16 6c12 0 21 -10 21 -22c0 -6 -2 -11 -6 -15c-39 -39 -93 -61 -148 -61c-114 0 -209 95 -209 209 s95 209 209 209c55 0 109 -22 148 -61c4 -4 6 -9 6 -15z" /> </svg>
