<?xml version="1.0" encoding="UTF-8"?> <!DOCTYPE svg PUBLIC "-//W3C//DTD SVG 1.1//EN" "http://www.w3.org/Graphics/SVG/1.1/DTD/svg11.dtd"> <svg xmlns="http://www.w3.org/2000/svg" xmlns:xlink="http://www.w3.org/1999/xlink" xmlns:ev="http://www.w3.org/2001/xml-events" version="1.1" baseProfile="full" height="1000.0" width="1000.0"> <path glyph-name="z" d="M267 126c17 0 19 -42 19 -57c0 -50 -37 -93 -86 -93c-44 0 -83 34 -127 34c-9 0 -20 1 -29 1s-17 -2 -24 -8c-3 -2 -5 -3 -8 -3c-6 0 -12 6 -12 12c0 3 1 6 4 9l193 182c-36 -8 -75 -8 -112 -14c-15 -3 -31 -7 -43 -7c-11 0 -18 3 -18 15c0 33 41 70 75 70 c32 0 62 -19 94 -19c11 0 22 -2 32 -2s19 1 27 8c3 2 5 4 8 4c6 0 12 -6 12 -12c0 -3 -1 -6 -4 -9l-184 -173h9c46 0 90 -6 136 -6c17 0 29 16 29 35c0 7 -4 15 -4 22s7 11 13 11z" /> </svg>
